<svg width="42" height="42" viewBox="0 0 42 42" fill="none" xmlns="http://www.w3.org/2000/svg">
<g filter="url(#filter0_b_794_14771)">
<rect width="40" height="40" rx="8" transform="matrix(1 0 0 -1 1 41)" fill="black" fill-opacity="0.75"/>
<rect x="-0.5" y="0.5" width="41" height="41" rx="8.5" transform="matrix(1 0 0 -1 1 42)" stroke="url(#paint0_linear_794_14771)" stroke-opacity="0.28"/>
<path d="M24.9226 21.5893C25.248 21.2638 25.248 20.7362 24.9226 20.4107L19.6193 15.1074C19.2938 14.782 18.7662 14.782 18.4408 15.1074C18.1153 15.4329 18.1153 15.9605 18.4408 16.286L23.1548 21L18.4408 25.714C18.1153 26.0395 18.1153 26.5671 18.4408 26.8926C18.7662 27.218 19.2938 27.218 19.6193 26.8926L24.9226 21.5893ZM23.0833 21.8333H24.3333V20.1667H23.0833V21.8333Z" fill="white"/>
</g>
<defs>
<filter id="filter0_b_794_14771" x="-6" y="-6" width="54" height="54" filterUnits="userSpaceOnUse" color-interpolation-filters="sRGB">
<feFlood flood-opacity="0" result="BackgroundImageFix"/>
<feGaussianBlur in="BackgroundImageFix" stdDeviation="3"/>
<feComposite in2="SourceAlpha" operator="in" result="effect1_backgroundBlur_794_14771"/>
<feBlend mode="normal" in="SourceGraphic" in2="effect1_backgroundBlur_794_14771" result="shape"/>
</filter>
<linearGradient id="paint0_linear_794_14771" x1="1.38895e-07" y1="35.1468" x2="41.5002" y2="32.9292" gradientUnits="userSpaceOnUse">
<stop stop-color="#6356FE"/>
<stop offset="0.303754" stop-color="#764AEF"/>
<stop offset="0.618202" stop-color="#8A3EDF"/>
<stop offset="1" stop-color="#A330CB"/>
</linearGradient>
</defs>
</svg>
