<svg width="112" height="112" viewBox="0 0 112 112" fill="none" xmlns="http://www.w3.org/2000/svg">
<g filter="url(#filter0_d_1754_10956)">
<rect width="112" height="112" rx="17.92" fill="#1E1E20" shape-rendering="crispEdges"/>
<rect x="-0.56" y="-0.56" width="113.12" height="113.12" rx="18.48" stroke="url(#paint0_linear_1754_10956)" stroke-opacity="0.04" stroke-width="1.12" shape-rendering="crispEdges"/>
<g filter="url(#filter1_b_1754_10956)">
<g opacity="0.4">
<circle cx="82.9728" cy="70.1762" r="9.58591" transform="rotate(-90 82.9728 70.1762)" fill="url(#paint1_linear_1754_10956)"/>
<circle cx="82.9728" cy="70.1762" r="9.58591" transform="rotate(-90 82.9728 70.1762)" stroke="url(#paint2_radial_1754_10956)" stroke-width="0.42749"/>
<circle cx="82.9728" cy="70.1762" r="9.58591" transform="rotate(-90 82.9728 70.1762)" stroke="url(#paint3_radial_1754_10956)" stroke-width="0.42749"/>
<circle cx="82.9728" cy="70.1762" r="9.58591" transform="rotate(-90 82.9728 70.1762)" stroke="url(#paint4_radial_1754_10956)" stroke-width="0.42749"/>
</g>
<g opacity="0.4">
<circle cx="29.0272" cy="70.3463" r="9.58591" transform="rotate(-90 29.0272 70.3463)" fill="url(#paint5_linear_1754_10956)"/>
<circle cx="29.0272" cy="70.3463" r="9.58591" transform="rotate(-90 29.0272 70.3463)" stroke="url(#paint6_radial_1754_10956)" stroke-width="0.42749"/>
<circle cx="29.0272" cy="70.3463" r="9.58591" transform="rotate(-90 29.0272 70.3463)" stroke="url(#paint7_radial_1754_10956)" stroke-width="0.42749"/>
<circle cx="29.0272" cy="70.3463" r="9.58591" transform="rotate(-90 29.0272 70.3463)" stroke="url(#paint8_radial_1754_10956)" stroke-width="0.42749"/>
</g>
<g opacity="0.4">
<circle cx="17.7343" cy="97.1992" r="9.58591" transform="rotate(-45 17.7343 97.1992)" fill="url(#paint9_linear_1754_10956)"/>
<circle cx="17.7343" cy="97.1992" r="9.58591" transform="rotate(-45 17.7343 97.1992)" stroke="url(#paint10_radial_1754_10956)" stroke-width="0.42749"/>
<circle cx="17.7343" cy="97.1992" r="9.58591" transform="rotate(-45 17.7343 97.1992)" stroke="url(#paint11_radial_1754_10956)" stroke-width="0.42749"/>
<circle cx="17.7343" cy="97.1992" r="9.58591" transform="rotate(-45 17.7343 97.1992)" stroke="url(#paint12_radial_1754_10956)" stroke-width="0.42749"/>
</g>
<g opacity="0.4">
<circle cx="55.9991" cy="59.1743" r="9.58591" transform="rotate(-45 55.9991 59.1743)" fill="url(#paint13_linear_1754_10956)"/>
<circle cx="55.9991" cy="59.1743" r="9.58591" transform="rotate(-45 55.9991 59.1743)" stroke="url(#paint14_radial_1754_10956)" stroke-width="0.42749"/>
<circle cx="55.9991" cy="59.1743" r="9.58591" transform="rotate(-45 55.9991 59.1743)" stroke="url(#paint15_radial_1754_10956)" stroke-width="0.42749"/>
<circle cx="55.9991" cy="59.1743" r="9.58591" transform="rotate(-45 55.9991 59.1743)" stroke="url(#paint16_radial_1754_10956)" stroke-width="0.42749"/>
</g>
<g opacity="0.4">
<circle cx="94.2664" cy="97.1992" r="9.58591" transform="rotate(-45 94.2664 97.1992)" fill="url(#paint17_linear_1754_10956)"/>
<circle cx="94.2664" cy="97.1992" r="9.58591" transform="rotate(-45 94.2664 97.1992)" stroke="url(#paint18_radial_1754_10956)" stroke-width="0.42749"/>
<circle cx="94.2664" cy="97.1992" r="9.58591" transform="rotate(-45 94.2664 97.1992)" stroke="url(#paint19_radial_1754_10956)" stroke-width="0.42749"/>
<circle cx="94.2664" cy="97.1992" r="9.58591" transform="rotate(-45 94.2664 97.1992)" stroke="url(#paint20_radial_1754_10956)" stroke-width="0.42749"/>
</g>
</g>
<g filter="url(#filter2_b_1754_10956)">
<g opacity="0.8">
<circle cx="37.5447" cy="78.8645" r="6.62609" transform="rotate(-90 37.5447 78.8645)" fill="url(#paint21_linear_1754_10956)"/>
<circle cx="37.5447" cy="78.8645" r="6.62609" transform="rotate(-90 37.5447 78.8645)" stroke="url(#paint22_radial_1754_10956)" stroke-width="0.42749"/>
<circle cx="37.5447" cy="78.8645" r="6.62609" transform="rotate(-90 37.5447 78.8645)" stroke="url(#paint23_radial_1754_10956)" stroke-width="0.42749"/>
<circle cx="37.5447" cy="78.8645" r="6.62609" transform="rotate(-90 37.5447 78.8645)" stroke="url(#paint24_radial_1754_10956)" stroke-width="0.42749"/>
</g>
<g opacity="0.8">
<circle cx="29.8186" cy="97.2371" r="6.6261" transform="rotate(-45 29.8186 97.2371)" fill="url(#paint25_linear_1754_10956)"/>
<circle cx="29.8186" cy="97.2371" r="6.6261" transform="rotate(-45 29.8186 97.2371)" stroke="url(#paint26_radial_1754_10956)" stroke-width="0.42749"/>
<circle cx="29.8186" cy="97.2371" r="6.6261" transform="rotate(-45 29.8186 97.2371)" stroke="url(#paint27_radial_1754_10956)" stroke-width="0.42749"/>
<circle cx="29.8186" cy="97.2371" r="6.6261" transform="rotate(-45 29.8186 97.2371)" stroke="url(#paint28_radial_1754_10956)" stroke-width="0.42749"/>
</g>
<g opacity="0.8">
<circle cx="55.9989" cy="71.2207" r="6.6261" transform="rotate(-45 55.9989 71.2207)" fill="url(#paint29_linear_1754_10956)"/>
<circle cx="55.9989" cy="71.2207" r="6.6261" transform="rotate(-45 55.9989 71.2207)" stroke="url(#paint30_radial_1754_10956)" stroke-width="0.42749"/>
<circle cx="55.9989" cy="71.2207" r="6.6261" transform="rotate(-45 55.9989 71.2207)" stroke="url(#paint31_radial_1754_10956)" stroke-width="0.42749"/>
<circle cx="55.9989" cy="71.2207" r="6.6261" transform="rotate(-45 55.9989 71.2207)" stroke="url(#paint32_radial_1754_10956)" stroke-width="0.42749"/>
</g>
<g opacity="0.8">
<circle cx="82.1825" cy="97.2371" r="6.6261" transform="rotate(-45 82.1825 97.2371)" fill="url(#paint33_linear_1754_10956)"/>
<circle cx="82.1825" cy="97.2371" r="6.6261" transform="rotate(-45 82.1825 97.2371)" stroke="url(#paint34_radial_1754_10956)" stroke-width="0.42749"/>
<circle cx="82.1825" cy="97.2371" r="6.6261" transform="rotate(-45 82.1825 97.2371)" stroke="url(#paint35_radial_1754_10956)" stroke-width="0.42749"/>
<circle cx="82.1825" cy="97.2371" r="6.6261" transform="rotate(-45 82.1825 97.2371)" stroke="url(#paint36_radial_1754_10956)" stroke-width="0.42749"/>
</g>
<g opacity="0.8">
<circle cx="74.4568" cy="78.7483" r="6.62609" transform="rotate(-90 74.4568 78.7483)" fill="url(#paint37_linear_1754_10956)"/>
<circle cx="74.4568" cy="78.7483" r="6.62609" transform="rotate(-90 74.4568 78.7483)" stroke="url(#paint38_radial_1754_10956)" stroke-width="0.42749"/>
<circle cx="74.4568" cy="78.7483" r="6.62609" transform="rotate(-90 74.4568 78.7483)" stroke="url(#paint39_radial_1754_10956)" stroke-width="0.42749"/>
<circle cx="74.4568" cy="78.7483" r="6.62609" transform="rotate(-90 74.4568 78.7483)" stroke="url(#paint40_radial_1754_10956)" stroke-width="0.42749"/>
</g>
</g>
<g filter="url(#filter3_b_1754_10956)">
<circle cx="43.0477" cy="84.3673" r="4.71414" transform="rotate(-90 43.0477 84.3673)" fill="url(#paint41_linear_1754_10956)"/>
<circle cx="43.0477" cy="84.3673" r="4.71414" transform="rotate(-90 43.0477 84.3673)" stroke="url(#paint42_radial_1754_10956)" stroke-width="0.42749"/>
<circle cx="43.0477" cy="84.3673" r="4.71414" transform="rotate(-90 43.0477 84.3673)" stroke="url(#paint43_radial_1754_10956)" stroke-width="0.42749"/>
<circle cx="43.0477" cy="84.3673" r="4.71414" transform="rotate(-90 43.0477 84.3673)" stroke="url(#paint44_radial_1754_10956)" stroke-width="0.42749"/>
<circle cx="37.6242" cy="97.2617" r="4.71415" transform="rotate(-45 37.6242 97.2617)" fill="url(#paint45_linear_1754_10956)"/>
<circle cx="37.6242" cy="97.2617" r="4.71415" transform="rotate(-45 37.6242 97.2617)" stroke="url(#paint46_radial_1754_10956)" stroke-width="0.42749"/>
<circle cx="37.6242" cy="97.2617" r="4.71415" transform="rotate(-45 37.6242 97.2617)" stroke="url(#paint47_radial_1754_10956)" stroke-width="0.42749"/>
<circle cx="37.6242" cy="97.2617" r="4.71415" transform="rotate(-45 37.6242 97.2617)" stroke="url(#paint48_radial_1754_10956)" stroke-width="0.42749"/>
<circle cx="55.9981" cy="79.0027" r="4.71415" transform="rotate(-45 55.9981 79.0027)" fill="url(#paint49_linear_1754_10956)"/>
<circle cx="55.9981" cy="79.0027" r="4.71415" transform="rotate(-45 55.9981 79.0027)" stroke="url(#paint50_radial_1754_10956)" stroke-width="0.42749"/>
<circle cx="55.9981" cy="79.0027" r="4.71415" transform="rotate(-45 55.9981 79.0027)" stroke="url(#paint51_radial_1754_10956)" stroke-width="0.42749"/>
<circle cx="55.9981" cy="79.0027" r="4.71415" transform="rotate(-45 55.9981 79.0027)" stroke="url(#paint52_radial_1754_10956)" stroke-width="0.42749"/>
<circle cx="74.3739" cy="97.2617" r="4.71415" transform="rotate(-45 74.3739 97.2617)" fill="url(#paint53_linear_1754_10956)"/>
<circle cx="74.3739" cy="97.2617" r="4.71415" transform="rotate(-45 74.3739 97.2617)" stroke="url(#paint54_radial_1754_10956)" stroke-width="0.42749"/>
<circle cx="74.3739" cy="97.2617" r="4.71415" transform="rotate(-45 74.3739 97.2617)" stroke="url(#paint55_radial_1754_10956)" stroke-width="0.42749"/>
<circle cx="74.3739" cy="97.2617" r="4.71415" transform="rotate(-45 74.3739 97.2617)" stroke="url(#paint56_radial_1754_10956)" stroke-width="0.42749"/>
<circle cx="68.951" cy="84.2857" r="4.71414" transform="rotate(-90 68.951 84.2857)" fill="url(#paint57_linear_1754_10956)"/>
<circle cx="68.951" cy="84.2857" r="4.71414" transform="rotate(-90 68.951 84.2857)" stroke="url(#paint58_radial_1754_10956)" stroke-width="0.42749"/>
<circle cx="68.951" cy="84.2857" r="4.71414" transform="rotate(-90 68.951 84.2857)" stroke="url(#paint59_radial_1754_10956)" stroke-width="0.42749"/>
<circle cx="68.951" cy="84.2857" r="4.71414" transform="rotate(-90 68.951 84.2857)" stroke="url(#paint60_radial_1754_10956)" stroke-width="0.42749"/>
</g>
<path d="M16.6469 35.72V17.3143H16.3866L10.8434 21.2343V17.7278L16.6622 13.624H20.0769V35.72H16.6469ZM31.8062 35.72V17.3143H31.5459L26.0028 21.2343V17.7278L31.8216 13.624H35.2362V35.72H31.8062Z" fill="white"/>
<path d="M48.1216 36.72H46.0642V26.0001H48.722L52.1772 33.6684H52.3445L55.8095 26.0001H58.3984V36.72H56.3313V29.3273H56.1442L53.0041 36.2868H51.4488L48.3086 29.3273H48.1216V36.72ZM64.5606 31.8178C64.5081 32.625 64.4163 33.3206 64.285 33.9047C64.1538 34.4822 63.9602 35.0006 63.7042 35.46C63.4548 35.9128 63.1234 36.254 62.71 36.4837C62.2966 36.7134 61.8011 36.8283 61.2236 36.8283C60.9414 36.8283 60.6986 36.7889 60.4952 36.7101V34.7315C60.6723 34.784 60.8627 34.8103 61.0661 34.8103C61.5583 34.8103 61.9192 34.5445 62.1489 34.0129C62.3852 33.4814 62.5394 32.7136 62.6116 31.7095L62.9856 26.0001H70.3684V36.72H68.252V27.7818H64.8559L64.5606 31.8178ZM80.6847 36.72V32.0737H75.7431V36.72H73.6267V26.0001H75.7431V30.292H80.6847V26.0001H82.7913V36.72H80.6847Z" fill="white"/>
<path d="M12.7422 58.1311C12.4615 58.1311 12.2829 58.1238 12.2063 58.1092V56.999C12.2756 57.0136 12.3995 57.0209 12.5782 57.0209C12.8662 57.0209 13.0941 56.9607 13.2618 56.8404C13.4331 56.7201 13.5625 56.5232 13.65 56.2498L13.7211 55.9873L11.5829 49.9771H13.0704L14.4704 54.6475H14.5633L15.9579 49.9771H17.3907L15.2305 56.1514C14.9789 56.8915 14.6691 57.4055 14.3008 57.6936C13.9362 57.9852 13.4167 58.1311 12.7422 58.1311ZM19.9831 53.1764C19.9576 53.5373 19.9193 53.8581 19.8682 54.1389C19.8172 54.4196 19.7424 54.6803 19.644 54.9209C19.5492 55.1615 19.4307 55.362 19.2885 55.5225C19.1464 55.6792 18.9714 55.8014 18.7635 55.8889C18.5557 55.9764 18.3151 56.0201 18.0417 56.0201C17.863 56.0201 17.7117 55.9982 17.5878 55.9545V54.7514C17.6826 54.7769 17.7919 54.7896 17.9159 54.7896C18.1893 54.7896 18.388 54.6438 18.512 54.3521C18.6396 54.0605 18.7198 53.643 18.7526 53.0998L18.9495 49.9771H23.237V55.96H21.8862V51.06H20.1307L19.9831 53.1764ZM25.4411 58.1311C25.1604 58.1311 24.9817 58.1238 24.9052 58.1092V56.999C24.9744 57.0136 25.0984 57.0209 25.277 57.0209C25.5651 57.0209 25.7929 56.9607 25.9606 56.8404C26.132 56.7201 26.2614 56.5232 26.3489 56.2498L26.42 55.9873L24.2817 49.9771H25.7692L27.1692 54.6475H27.2622L28.6567 49.9771H30.0895L27.9294 56.1514C27.6778 56.8915 27.3679 57.4055 26.9997 57.6936C26.6351 57.9852 26.1156 58.1311 25.4411 58.1311ZM36.0343 55.96H34.678V53.499H34.5851C34.2168 53.8235 33.7411 53.9857 33.1577 53.9857C32.465 53.9857 31.9181 53.7834 31.5171 53.3787C31.1197 52.974 30.921 52.4381 30.921 51.7709V49.9771H32.2773V51.6615C32.2773 52.0188 32.3757 52.2995 32.5726 52.5037C32.7731 52.7042 33.0556 52.8045 33.4202 52.8045C33.9562 52.8045 34.3754 52.6495 34.678 52.3396V49.9771H36.0343V55.96ZM37.5767 55.96V49.9771H38.9329V54.8771H40.8415V49.9771H42.1978V54.8771H44.1064V49.9771H45.4626V55.96H37.5767ZM49.5152 50.9342C49.1105 50.9342 48.7769 51.0673 48.5144 51.3334C48.2519 51.5995 48.1061 51.9514 48.0769 52.3889H50.8933C50.8787 51.9441 50.7475 51.5904 50.4996 51.3279C50.2517 51.0654 49.9235 50.9342 49.5152 50.9342ZM50.9043 54.3139H52.1894C52.0618 54.8607 51.761 55.2928 51.2871 55.61C50.8168 55.9235 50.2316 56.0803 49.5316 56.0803C48.653 56.0803 47.9621 55.8068 47.459 55.26C46.9595 54.7094 46.7097 53.9529 46.7097 52.9904C46.7097 52.0279 46.9613 51.266 47.4644 50.7045C47.9675 50.1394 48.653 49.8568 49.5207 49.8568C50.3738 49.8568 51.041 50.1248 51.5222 50.6607C52.0071 51.193 52.2496 51.9313 52.2496 52.8756V53.3131H48.0715V53.3842C48.0897 53.8837 48.2319 54.2792 48.498 54.5709C48.7678 54.8589 49.1251 55.0029 49.5699 55.0029C50.2553 55.0029 50.7001 54.7732 50.9043 54.3139ZM57.4342 55.96V53.4225H54.8474V55.96H53.4912V49.9771H54.8474V52.3396H57.4342V49.9771H58.7904V55.96H57.4342ZM64.2758 55.96V53.4225H61.6891V55.96H60.3328V49.9771H61.6891V52.3396H64.2758V49.9771H65.632V55.96H64.2758ZM72.7362 55.96V49.9771H74.0869V55.96H72.7362ZM69.5534 52.8482H68.5307V54.8771H69.5534C69.8888 54.8771 70.1549 54.7842 70.3518 54.5982C70.5523 54.4123 70.6526 54.1662 70.6526 53.86C70.6526 53.5537 70.5523 53.3094 70.3518 53.1271C70.1513 52.9412 69.8851 52.8482 69.5534 52.8482ZM67.1744 55.96V49.9771H68.5307V51.7709H69.7174C70.4138 51.7709 70.9679 51.9605 71.3799 52.3396C71.7955 52.7188 72.0034 53.2274 72.0034 53.8654C72.0034 54.5035 71.7955 55.012 71.3799 55.3912C70.9679 55.7704 70.4138 55.96 69.7174 55.96H67.1744ZM77.959 53.8982H77.8661L76.6411 55.96H75.1809L77.1169 52.9904L75.1645 49.9771H76.734L77.9262 52.0334H78.0192L79.2004 49.9771H80.6934L78.7629 52.9357L80.7153 55.96H79.184L77.959 53.8982ZM14.968 68.9482V64.9889C14.4138 65.0035 13.9745 65.1876 13.65 65.5412C13.3256 65.8912 13.1633 66.367 13.1633 66.9686C13.1633 67.5738 13.3237 68.0514 13.6446 68.4014C13.9691 68.7514 14.4102 68.9337 14.968 68.9482ZM18.0797 66.9686C18.0797 66.3633 17.9175 65.8857 17.593 65.5357C17.2722 65.1857 16.8347 65.0035 16.2805 64.9889V68.9482C16.831 68.9337 17.2685 68.7514 17.593 68.4014C17.9175 68.0477 18.0797 67.5701 18.0797 66.9686ZM14.9571 70.042C13.9909 70.0201 13.2217 69.7357 12.6493 69.1889C12.0769 68.6383 11.7907 67.8982 11.7907 66.9686C11.7907 66.0425 12.0769 65.3042 12.6493 64.7537C13.2253 64.1995 13.9946 63.9133 14.9571 63.8951V62.0193H16.2914V63.8951C17.2576 63.917 18.0269 64.2032 18.5993 64.7537C19.1717 65.3006 19.4579 66.0389 19.4579 66.9686C19.4579 67.8946 19.1698 68.6347 18.5938 69.1889C18.0178 69.7394 17.2503 70.0238 16.2914 70.042V71.9506H14.9571V70.042ZM23.2917 70.0803C22.3948 70.0803 21.6911 69.805 21.1807 69.2545C20.6703 68.7003 20.4151 67.9383 20.4151 66.9686C20.4151 66.0061 20.6721 65.2477 21.1862 64.6936C21.7003 64.1357 22.4021 63.8568 23.2917 63.8568C24.1849 63.8568 24.8867 64.1339 25.3971 64.6881C25.9112 65.2423 26.1682 66.0024 26.1682 66.9686C26.1682 67.9383 25.9112 68.7003 25.3971 69.2545C24.8867 69.805 24.1849 70.0803 23.2917 70.0803ZM22.1924 68.4287C22.4513 68.7714 22.8177 68.9428 23.2917 68.9428C23.7656 68.9428 24.1302 68.7714 24.3854 68.4287C24.6443 68.0824 24.7737 67.5956 24.7737 66.9686C24.7737 66.3451 24.6443 65.8602 24.3854 65.5139C24.1266 65.1675 23.762 64.9943 23.2917 64.9943C22.8177 64.9943 22.4513 65.1675 22.1924 65.5139C21.9336 65.8602 21.8042 66.3451 21.8042 66.9686C21.8042 67.5956 21.9336 68.0824 22.1924 68.4287ZM31.6317 63.9771V65.06H29.7888V69.96H28.4325V65.06H26.5895V63.9771H31.6317ZM35.0937 70.0803C34.1968 70.0803 33.4931 69.805 32.9827 69.2545C32.4723 68.7003 32.2171 67.9383 32.2171 66.9686C32.2171 66.0061 32.4741 65.2477 32.9882 64.6936C33.5023 64.1357 34.2041 63.8568 35.0937 63.8568C35.9869 63.8568 36.6887 64.1339 37.1991 64.6881C37.7132 65.2423 37.9702 66.0024 37.9702 66.9686C37.9702 67.9383 37.7132 68.7003 37.1991 69.2545C36.6887 69.805 35.9869 70.0803 35.0937 70.0803ZM33.9944 68.4287C34.2533 68.7714 34.6197 68.9428 35.0937 68.9428C35.5676 68.9428 35.9322 68.7714 36.1874 68.4287C36.4463 68.0824 36.5757 67.5956 36.5757 66.9686C36.5757 66.3451 36.4463 65.8602 36.1874 65.5139C35.9286 65.1675 35.564 64.9943 35.0937 64.9943C34.6197 64.9943 34.2533 65.1675 33.9944 65.5139C33.7356 65.8602 33.6062 66.3451 33.6062 66.9686C33.6062 67.5956 33.7356 68.0824 33.9944 68.4287ZM43.2478 65.06H40.5736V69.96H39.2173V63.9771H43.2478V65.06ZM47.6558 63.8787C48.4142 63.8787 49.0139 64.154 49.455 64.7045C49.8998 65.255 50.1222 66.0097 50.1222 66.9686C50.1222 67.9238 49.9017 68.6785 49.4605 69.2326C49.023 69.7831 48.4269 70.0584 47.6722 70.0584C47.2457 70.0584 46.872 69.9709 46.5511 69.7959C46.2339 69.6173 45.9988 69.3693 45.8457 69.0521H45.7527V71.9506H44.3964V63.9771H45.7035V64.967H45.7964C45.9678 64.6279 46.2175 64.3618 46.5457 64.1686C46.8774 63.9753 47.2475 63.8787 47.6558 63.8787ZM47.2293 68.9045C47.6996 68.9045 48.066 68.7331 48.3285 68.3904C48.5946 68.0477 48.7277 67.5738 48.7277 66.9686C48.7277 66.3633 48.5946 65.8894 48.3285 65.5467C48.066 65.204 47.7014 65.0326 47.2347 65.0326C46.7717 65.0326 46.4053 65.2058 46.1355 65.5521C45.8657 65.8985 45.729 66.3706 45.7254 66.9686C45.729 67.5665 45.8639 68.0386 46.13 68.385C46.3998 68.7313 46.7662 68.9045 47.2293 68.9045ZM53.431 68.992C53.8394 68.992 54.1803 68.8753 54.4537 68.642C54.7271 68.405 54.8639 68.1133 54.8639 67.767V67.2912L53.5131 67.3787C52.7693 67.4261 52.3974 67.6959 52.3974 68.1881C52.3974 68.436 52.4922 68.6329 52.6818 68.7787C52.8751 68.9209 53.1248 68.992 53.431 68.992ZM53.0318 70.0584C52.4485 70.0584 51.9727 69.8943 51.6045 69.5662C51.2362 69.2381 51.0521 68.8042 51.0521 68.2646C51.0521 67.7251 51.2472 67.3021 51.6373 66.9959C52.031 66.6896 52.5925 66.5146 53.3217 66.4709L54.8639 66.3779V65.8748C54.8639 65.5795 54.7672 65.3535 54.574 65.1967C54.3808 65.0399 54.1019 64.9615 53.7373 64.9615C53.4237 64.9615 53.1649 65.0162 52.9607 65.1256C52.7566 65.2313 52.6235 65.3844 52.5615 65.585H51.2818C51.3365 65.0563 51.5917 64.637 52.0474 64.3271C52.5068 64.0136 53.092 63.8568 53.8029 63.8568C54.5685 63.8568 55.1592 64.0337 55.5748 64.3873C55.9941 64.741 56.2037 65.2368 56.2037 65.8748V69.96H54.8967V69.1396H54.8037C54.636 69.4277 54.3954 69.6537 54.0818 69.8178C53.7719 69.9782 53.4219 70.0584 53.0318 70.0584ZM60.6063 68.9482V64.9889C60.0521 65.0035 59.6128 65.1876 59.2883 65.5412C58.9638 65.8912 58.8016 66.367 58.8016 66.9686C58.8016 67.5738 58.962 68.0514 59.2828 68.4014C59.6073 68.7514 60.0484 68.9337 60.6063 68.9482ZM63.718 66.9686C63.718 66.3633 63.5557 65.8857 63.2313 65.5357C62.9104 65.1857 62.4729 65.0035 61.9188 64.9889V68.9482C62.4693 68.9337 62.9068 68.7514 63.2313 68.4014C63.5557 68.0477 63.718 67.5701 63.718 66.9686ZM60.5953 70.042C59.6292 70.0201 58.8599 69.7357 58.2875 69.1889C57.7151 68.6383 57.4289 67.8982 57.4289 66.9686C57.4289 66.0425 57.7151 65.3042 58.2875 64.7537C58.8636 64.1995 59.6328 63.9133 60.5953 63.8951V62.0193H61.9297V63.8951C62.8958 63.917 63.6651 64.2032 64.2375 64.7537C64.8099 65.3006 65.0961 66.0389 65.0961 66.9686C65.0961 67.8946 64.8081 68.6347 64.232 69.1889C63.656 69.7394 62.8886 70.0238 61.9297 70.042V71.9506H60.5953V70.042ZM67.683 69.96H66.3432V63.9771H67.683V67.9365H67.776L70.3791 63.9771H71.7135V69.96H70.3791V65.9732H70.2807L67.683 69.96ZM74.5903 69.96H73.2504V63.9771H74.5903V67.9365H74.6833L77.2864 63.9771H78.6208V69.96H77.2864V65.9732H77.1879L74.5903 69.96ZM73.8739 61.2428H74.9458C74.9494 61.5454 75.0351 61.7969 75.2028 61.9975C75.3741 62.198 75.6002 62.2982 75.8809 62.2982C76.1616 62.2982 76.3859 62.198 76.5536 61.9975C76.7249 61.7969 76.8143 61.5454 76.8215 61.2428H77.8879C77.8879 61.7896 77.702 62.2381 77.3301 62.5881C76.9619 62.9381 76.4788 63.1131 75.8809 63.1131C75.283 63.1131 74.7981 62.9381 74.4262 62.5881C74.058 62.2381 73.8739 61.7896 73.8739 61.2428Z" fill="#C1C1C1"/>
</g>
<defs>
<filter id="filter0_d_1754_10956" x="-19.04" y="-19.0401" width="150.08" height="185.92" filterUnits="userSpaceOnUse" color-interpolation-filters="sRGB">
<feFlood flood-opacity="0" result="BackgroundImageFix"/>
<feColorMatrix in="SourceAlpha" type="matrix" values="0 0 0 0 0 0 0 0 0 0 0 0 0 0 0 0 0 0 127 0" result="hardAlpha"/>
<feOffset/>
<feGaussianBlur stdDeviation="8.96"/>
<feComposite in2="hardAlpha" operator="out"/>
<feColorMatrix type="matrix" values="0 0 0 0 0 0 0 0 0 0 0 0 0 0 0 0 0 0 0.1 0"/>
<feBlend mode="normal" in2="BackgroundImageFix" result="effect1_dropShadow_1754_10956"/>
<feBlend mode="normal" in="SourceGraphic" in2="effect1_dropShadow_1754_10956" result="shape"/>
</filter>
<filter id="filter1_b_1754_10956" x="0.20511" y="41.645" width="111.59" height="111.349" filterUnits="userSpaceOnUse" color-interpolation-filters="sRGB">
<feFlood flood-opacity="0" result="BackgroundImageFix"/>
<feGaussianBlur in="BackgroundImageFix" stdDeviation="2.13745"/>
<feComposite in2="SourceAlpha" operator="in" result="effect1_backgroundBlur_1754_10956"/>
<feBlend mode="normal" in="SourceGraphic" in2="effect1_backgroundBlur_1754_10956" result="shape"/>
</filter>
<filter id="filter2_b_1754_10956" x="16.4755" y="57.8774" width="79.0489" height="78.884" filterUnits="userSpaceOnUse" color-interpolation-filters="sRGB">
<feFlood flood-opacity="0" result="BackgroundImageFix"/>
<feGaussianBlur in="BackgroundImageFix" stdDeviation="2.13745"/>
<feComposite in2="SourceAlpha" operator="in" result="effect1_backgroundBlur_1754_10956"/>
<feBlend mode="normal" in="SourceGraphic" in2="effect1_backgroundBlur_1754_10956" result="shape"/>
</filter>
<filter id="filter3_b_1754_10956" x="26.9867" y="68.3633" width="58.0284" height="57.9128" filterUnits="userSpaceOnUse" color-interpolation-filters="sRGB">
<feFlood flood-opacity="0" result="BackgroundImageFix"/>
<feGaussianBlur in="BackgroundImageFix" stdDeviation="2.13745"/>
<feComposite in2="SourceAlpha" operator="in" result="effect1_backgroundBlur_1754_10956"/>
<feBlend mode="normal" in="SourceGraphic" in2="effect1_backgroundBlur_1754_10956" result="shape"/>
</filter>
<linearGradient id="paint0_linear_1754_10956" x1="0" y1="0" x2="132.914" y2="37.124" gradientUnits="userSpaceOnUse">
<stop stop-color="white"/>
<stop offset="1" stop-color="white" stop-opacity="0"/>
</linearGradient>
<linearGradient id="paint1_linear_1754_10956" x1="82.9728" y1="60.804" x2="82.9728" y2="79.5483" gradientUnits="userSpaceOnUse">
<stop stop-color="#8A3EDF"/>
<stop offset="1" stop-color="#280F44" stop-opacity="0"/>
</linearGradient>
<radialGradient id="paint2_radial_1754_10956" cx="0" cy="0" r="1" gradientUnits="userSpaceOnUse" gradientTransform="translate(82.9728 70.1762) rotate(-132.581) scale(17.6742 13.7109)">
<stop stop-color="white"/>
<stop offset="1" stop-color="white" stop-opacity="0"/>
</radialGradient>
<radialGradient id="paint3_radial_1754_10956" cx="0" cy="0" r="1" gradientUnits="userSpaceOnUse" gradientTransform="translate(82.9728 70.1762) rotate(40.6798) scale(14.8301 10.6526)">
<stop stop-color="#6356FE"/>
<stop offset="1" stop-color="#A330CB" stop-opacity="0.12"/>
</radialGradient>
<radialGradient id="paint4_radial_1754_10956" cx="0" cy="0" r="1" gradientUnits="userSpaceOnUse" gradientTransform="translate(82.9728 70.1762) rotate(135.957) scale(14.2901 10.6736)">
<stop stop-color="#151515"/>
<stop offset="1" stop-color="#151515" stop-opacity="0"/>
</radialGradient>
<linearGradient id="paint5_linear_1754_10956" x1="29.0272" y1="60.9742" x2="29.0272" y2="79.7185" gradientUnits="userSpaceOnUse">
<stop stop-color="#8A3EDF"/>
<stop offset="1" stop-color="#280F44" stop-opacity="0"/>
</linearGradient>
<radialGradient id="paint6_radial_1754_10956" cx="0" cy="0" r="1" gradientUnits="userSpaceOnUse" gradientTransform="translate(29.0272 70.3463) rotate(-132.581) scale(17.6742 13.7109)">
<stop stop-color="white"/>
<stop offset="1" stop-color="white" stop-opacity="0"/>
</radialGradient>
<radialGradient id="paint7_radial_1754_10956" cx="0" cy="0" r="1" gradientUnits="userSpaceOnUse" gradientTransform="translate(29.0272 70.3463) rotate(40.6798) scale(14.8301 10.6526)">
<stop stop-color="#6356FE"/>
<stop offset="1" stop-color="#A330CB" stop-opacity="0.12"/>
</radialGradient>
<radialGradient id="paint8_radial_1754_10956" cx="0" cy="0" r="1" gradientUnits="userSpaceOnUse" gradientTransform="translate(29.0272 70.3463) rotate(135.957) scale(14.2901 10.6736)">
<stop stop-color="#151515"/>
<stop offset="1" stop-color="#151515" stop-opacity="0"/>
</radialGradient>
<linearGradient id="paint9_linear_1754_10956" x1="17.7343" y1="87.8271" x2="17.7343" y2="106.571" gradientUnits="userSpaceOnUse">
<stop stop-color="#8A3EDF"/>
<stop offset="1" stop-color="#280F44" stop-opacity="0"/>
</linearGradient>
<radialGradient id="paint10_radial_1754_10956" cx="0" cy="0" r="1" gradientUnits="userSpaceOnUse" gradientTransform="translate(17.7343 97.1992) rotate(-132.581) scale(17.6742 13.7109)">
<stop stop-color="white"/>
<stop offset="1" stop-color="white" stop-opacity="0"/>
</radialGradient>
<radialGradient id="paint11_radial_1754_10956" cx="0" cy="0" r="1" gradientUnits="userSpaceOnUse" gradientTransform="translate(17.7343 97.1992) rotate(40.6798) scale(14.8301 10.6526)">
<stop stop-color="#6356FE"/>
<stop offset="1" stop-color="#A330CB" stop-opacity="0.12"/>
</radialGradient>
<radialGradient id="paint12_radial_1754_10956" cx="0" cy="0" r="1" gradientUnits="userSpaceOnUse" gradientTransform="translate(17.7343 97.1992) rotate(135.957) scale(14.2901 10.6736)">
<stop stop-color="#151515"/>
<stop offset="1" stop-color="#151515" stop-opacity="0"/>
</radialGradient>
<linearGradient id="paint13_linear_1754_10956" x1="55.9991" y1="49.8022" x2="55.9991" y2="68.5465" gradientUnits="userSpaceOnUse">
<stop stop-color="#8A3EDF"/>
<stop offset="1" stop-color="#280F44" stop-opacity="0"/>
</linearGradient>
<radialGradient id="paint14_radial_1754_10956" cx="0" cy="0" r="1" gradientUnits="userSpaceOnUse" gradientTransform="translate(55.9991 59.1743) rotate(-132.581) scale(17.6742 13.7109)">
<stop stop-color="white"/>
<stop offset="1" stop-color="white" stop-opacity="0"/>
</radialGradient>
<radialGradient id="paint15_radial_1754_10956" cx="0" cy="0" r="1" gradientUnits="userSpaceOnUse" gradientTransform="translate(55.9991 59.1743) rotate(40.6798) scale(14.8301 10.6526)">
<stop stop-color="#6356FE"/>
<stop offset="1" stop-color="#A330CB" stop-opacity="0.12"/>
</radialGradient>
<radialGradient id="paint16_radial_1754_10956" cx="0" cy="0" r="1" gradientUnits="userSpaceOnUse" gradientTransform="translate(55.9991 59.1743) rotate(135.957) scale(14.2901 10.6736)">
<stop stop-color="#151515"/>
<stop offset="1" stop-color="#151515" stop-opacity="0"/>
</radialGradient>
<linearGradient id="paint17_linear_1754_10956" x1="94.2664" y1="87.8271" x2="94.2664" y2="106.571" gradientUnits="userSpaceOnUse">
<stop stop-color="#8A3EDF"/>
<stop offset="1" stop-color="#280F44" stop-opacity="0"/>
</linearGradient>
<radialGradient id="paint18_radial_1754_10956" cx="0" cy="0" r="1" gradientUnits="userSpaceOnUse" gradientTransform="translate(94.2664 97.1992) rotate(-132.581) scale(17.6742 13.7109)">
<stop stop-color="white"/>
<stop offset="1" stop-color="white" stop-opacity="0"/>
</radialGradient>
<radialGradient id="paint19_radial_1754_10956" cx="0" cy="0" r="1" gradientUnits="userSpaceOnUse" gradientTransform="translate(94.2664 97.1992) rotate(40.6798) scale(14.8301 10.6526)">
<stop stop-color="#6356FE"/>
<stop offset="1" stop-color="#A330CB" stop-opacity="0.12"/>
</radialGradient>
<radialGradient id="paint20_radial_1754_10956" cx="0" cy="0" r="1" gradientUnits="userSpaceOnUse" gradientTransform="translate(94.2664 97.1992) rotate(135.957) scale(14.2901 10.6736)">
<stop stop-color="#151515"/>
<stop offset="1" stop-color="#151515" stop-opacity="0"/>
</radialGradient>
<linearGradient id="paint21_linear_1754_10956" x1="37.5447" y1="72.4521" x2="37.5447" y2="85.2768" gradientUnits="userSpaceOnUse">
<stop stop-color="#8A3EDF"/>
<stop offset="1" stop-color="#280F44" stop-opacity="0"/>
</linearGradient>
<radialGradient id="paint22_radial_1754_10956" cx="0" cy="0" r="1" gradientUnits="userSpaceOnUse" gradientTransform="translate(37.5447 78.8645) rotate(-132.581) scale(12.0925 9.38087)">
<stop stop-color="white"/>
<stop offset="1" stop-color="white" stop-opacity="0"/>
</radialGradient>
<radialGradient id="paint23_radial_1754_10956" cx="0" cy="0" r="1" gradientUnits="userSpaceOnUse" gradientTransform="translate(37.5447 78.8645) rotate(40.6798) scale(10.1466 7.28842)">
<stop stop-color="#6356FE"/>
<stop offset="1" stop-color="#A330CB" stop-opacity="0.12"/>
</radialGradient>
<radialGradient id="paint24_radial_1754_10956" cx="0" cy="0" r="1" gradientUnits="userSpaceOnUse" gradientTransform="translate(37.5447 78.8645) rotate(135.957) scale(9.77713 7.30279)">
<stop stop-color="#151515"/>
<stop offset="1" stop-color="#151515" stop-opacity="0"/>
</radialGradient>
<linearGradient id="paint25_linear_1754_10956" x1="29.8186" y1="90.8247" x2="29.8186" y2="103.649" gradientUnits="userSpaceOnUse">
<stop stop-color="#8A3EDF"/>
<stop offset="1" stop-color="#280F44" stop-opacity="0"/>
</linearGradient>
<radialGradient id="paint26_radial_1754_10956" cx="0" cy="0" r="1" gradientUnits="userSpaceOnUse" gradientTransform="translate(29.8186 97.2371) rotate(-132.581) scale(12.0925 9.38087)">
<stop stop-color="white"/>
<stop offset="1" stop-color="white" stop-opacity="0"/>
</radialGradient>
<radialGradient id="paint27_radial_1754_10956" cx="0" cy="0" r="1" gradientUnits="userSpaceOnUse" gradientTransform="translate(29.8186 97.2371) rotate(40.6798) scale(10.1466 7.28842)">
<stop stop-color="#6356FE"/>
<stop offset="1" stop-color="#A330CB" stop-opacity="0.12"/>
</radialGradient>
<radialGradient id="paint28_radial_1754_10956" cx="0" cy="0" r="1" gradientUnits="userSpaceOnUse" gradientTransform="translate(29.8186 97.2371) rotate(135.957) scale(9.77713 7.30279)">
<stop stop-color="#151515"/>
<stop offset="1" stop-color="#151515" stop-opacity="0"/>
</radialGradient>
<linearGradient id="paint29_linear_1754_10956" x1="55.9989" y1="64.8083" x2="55.9989" y2="77.633" gradientUnits="userSpaceOnUse">
<stop stop-color="#8A3EDF"/>
<stop offset="1" stop-color="#280F44" stop-opacity="0"/>
</linearGradient>
<radialGradient id="paint30_radial_1754_10956" cx="0" cy="0" r="1" gradientUnits="userSpaceOnUse" gradientTransform="translate(55.9989 71.2207) rotate(-132.581) scale(12.0925 9.38087)">
<stop stop-color="white"/>
<stop offset="1" stop-color="white" stop-opacity="0"/>
</radialGradient>
<radialGradient id="paint31_radial_1754_10956" cx="0" cy="0" r="1" gradientUnits="userSpaceOnUse" gradientTransform="translate(55.9989 71.2207) rotate(40.6798) scale(10.1466 7.28842)">
<stop stop-color="#6356FE"/>
<stop offset="1" stop-color="#A330CB" stop-opacity="0.12"/>
</radialGradient>
<radialGradient id="paint32_radial_1754_10956" cx="0" cy="0" r="1" gradientUnits="userSpaceOnUse" gradientTransform="translate(55.9989 71.2207) rotate(135.957) scale(9.77713 7.30279)">
<stop stop-color="#151515"/>
<stop offset="1" stop-color="#151515" stop-opacity="0"/>
</radialGradient>
<linearGradient id="paint33_linear_1754_10956" x1="82.1825" y1="90.8247" x2="82.1825" y2="103.649" gradientUnits="userSpaceOnUse">
<stop stop-color="#8A3EDF"/>
<stop offset="1" stop-color="#280F44" stop-opacity="0"/>
</linearGradient>
<radialGradient id="paint34_radial_1754_10956" cx="0" cy="0" r="1" gradientUnits="userSpaceOnUse" gradientTransform="translate(82.1825 97.2371) rotate(-132.581) scale(12.0925 9.38087)">
<stop stop-color="white"/>
<stop offset="1" stop-color="white" stop-opacity="0"/>
</radialGradient>
<radialGradient id="paint35_radial_1754_10956" cx="0" cy="0" r="1" gradientUnits="userSpaceOnUse" gradientTransform="translate(82.1825 97.2371) rotate(40.6798) scale(10.1466 7.28842)">
<stop stop-color="#6356FE"/>
<stop offset="1" stop-color="#A330CB" stop-opacity="0.12"/>
</radialGradient>
<radialGradient id="paint36_radial_1754_10956" cx="0" cy="0" r="1" gradientUnits="userSpaceOnUse" gradientTransform="translate(82.1825 97.2371) rotate(135.957) scale(9.77713 7.30279)">
<stop stop-color="#151515"/>
<stop offset="1" stop-color="#151515" stop-opacity="0"/>
</radialGradient>
<linearGradient id="paint37_linear_1754_10956" x1="74.4568" y1="72.3359" x2="74.4568" y2="85.1606" gradientUnits="userSpaceOnUse">
<stop stop-color="#8A3EDF"/>
<stop offset="1" stop-color="#280F44" stop-opacity="0"/>
</linearGradient>
<radialGradient id="paint38_radial_1754_10956" cx="0" cy="0" r="1" gradientUnits="userSpaceOnUse" gradientTransform="translate(74.4568 78.7483) rotate(-132.581) scale(12.0925 9.38087)">
<stop stop-color="white"/>
<stop offset="1" stop-color="white" stop-opacity="0"/>
</radialGradient>
<radialGradient id="paint39_radial_1754_10956" cx="0" cy="0" r="1" gradientUnits="userSpaceOnUse" gradientTransform="translate(74.4568 78.7483) rotate(40.6798) scale(10.1466 7.28842)">
<stop stop-color="#6356FE"/>
<stop offset="1" stop-color="#A330CB" stop-opacity="0.12"/>
</radialGradient>
<radialGradient id="paint40_radial_1754_10956" cx="0" cy="0" r="1" gradientUnits="userSpaceOnUse" gradientTransform="translate(74.4568 78.7483) rotate(135.957) scale(9.77713 7.30279)">
<stop stop-color="#151515"/>
<stop offset="1" stop-color="#151515" stop-opacity="0"/>
</radialGradient>
<linearGradient id="paint41_linear_1754_10956" x1="43.0477" y1="79.8669" x2="43.0477" y2="88.8677" gradientUnits="userSpaceOnUse">
<stop stop-color="#8A3EDF"/>
<stop offset="1" stop-color="#280F44" stop-opacity="0"/>
</linearGradient>
<radialGradient id="paint42_radial_1754_10956" cx="0" cy="0" r="1" gradientUnits="userSpaceOnUse" gradientTransform="translate(43.0477 84.3673) rotate(-132.581) scale(8.48693 6.5838)">
<stop stop-color="white"/>
<stop offset="1" stop-color="white" stop-opacity="0"/>
</radialGradient>
<radialGradient id="paint43_radial_1754_10956" cx="0" cy="0" r="1" gradientUnits="userSpaceOnUse" gradientTransform="translate(43.0477 84.3673) rotate(40.6798) scale(7.12123 5.11525)">
<stop stop-color="#6356FE"/>
<stop offset="1" stop-color="#A330CB" stop-opacity="0.12"/>
</radialGradient>
<radialGradient id="paint44_radial_1754_10956" cx="0" cy="0" r="1" gradientUnits="userSpaceOnUse" gradientTransform="translate(43.0477 84.3673) rotate(135.957) scale(6.86192 5.12534)">
<stop stop-color="#151515"/>
<stop offset="1" stop-color="#151515" stop-opacity="0"/>
</radialGradient>
<linearGradient id="paint45_linear_1754_10956" x1="37.6242" y1="92.7613" x2="37.6242" y2="101.762" gradientUnits="userSpaceOnUse">
<stop stop-color="#8A3EDF"/>
<stop offset="1" stop-color="#280F44" stop-opacity="0"/>
</linearGradient>
<radialGradient id="paint46_radial_1754_10956" cx="0" cy="0" r="1" gradientUnits="userSpaceOnUse" gradientTransform="translate(37.6242 97.2617) rotate(-132.581) scale(8.48693 6.5838)">
<stop stop-color="white"/>
<stop offset="1" stop-color="white" stop-opacity="0"/>
</radialGradient>
<radialGradient id="paint47_radial_1754_10956" cx="0" cy="0" r="1" gradientUnits="userSpaceOnUse" gradientTransform="translate(37.6242 97.2617) rotate(40.6798) scale(7.12123 5.11525)">
<stop stop-color="#6356FE"/>
<stop offset="1" stop-color="#A330CB" stop-opacity="0.12"/>
</radialGradient>
<radialGradient id="paint48_radial_1754_10956" cx="0" cy="0" r="1" gradientUnits="userSpaceOnUse" gradientTransform="translate(37.6242 97.2617) rotate(135.957) scale(6.86192 5.12534)">
<stop stop-color="#151515"/>
<stop offset="1" stop-color="#151515" stop-opacity="0"/>
</radialGradient>
<linearGradient id="paint49_linear_1754_10956" x1="55.9981" y1="74.5023" x2="55.9981" y2="83.5031" gradientUnits="userSpaceOnUse">
<stop stop-color="#8A3EDF"/>
<stop offset="1" stop-color="#280F44" stop-opacity="0"/>
</linearGradient>
<radialGradient id="paint50_radial_1754_10956" cx="0" cy="0" r="1" gradientUnits="userSpaceOnUse" gradientTransform="translate(55.9981 79.0027) rotate(-132.581) scale(8.48693 6.5838)">
<stop stop-color="white"/>
<stop offset="1" stop-color="white" stop-opacity="0"/>
</radialGradient>
<radialGradient id="paint51_radial_1754_10956" cx="0" cy="0" r="1" gradientUnits="userSpaceOnUse" gradientTransform="translate(55.9981 79.0027) rotate(40.6798) scale(7.12123 5.11525)">
<stop stop-color="#6356FE"/>
<stop offset="1" stop-color="#A330CB" stop-opacity="0.12"/>
</radialGradient>
<radialGradient id="paint52_radial_1754_10956" cx="0" cy="0" r="1" gradientUnits="userSpaceOnUse" gradientTransform="translate(55.9981 79.0027) rotate(135.957) scale(6.86192 5.12534)">
<stop stop-color="#151515"/>
<stop offset="1" stop-color="#151515" stop-opacity="0"/>
</radialGradient>
<linearGradient id="paint53_linear_1754_10956" x1="74.3739" y1="92.7613" x2="74.3739" y2="101.762" gradientUnits="userSpaceOnUse">
<stop stop-color="#8A3EDF"/>
<stop offset="1" stop-color="#280F44" stop-opacity="0"/>
</linearGradient>
<radialGradient id="paint54_radial_1754_10956" cx="0" cy="0" r="1" gradientUnits="userSpaceOnUse" gradientTransform="translate(74.3739 97.2617) rotate(-132.581) scale(8.48693 6.5838)">
<stop stop-color="white"/>
<stop offset="1" stop-color="white" stop-opacity="0"/>
</radialGradient>
<radialGradient id="paint55_radial_1754_10956" cx="0" cy="0" r="1" gradientUnits="userSpaceOnUse" gradientTransform="translate(74.3739 97.2617) rotate(40.6798) scale(7.12123 5.11525)">
<stop stop-color="#6356FE"/>
<stop offset="1" stop-color="#A330CB" stop-opacity="0.12"/>
</radialGradient>
<radialGradient id="paint56_radial_1754_10956" cx="0" cy="0" r="1" gradientUnits="userSpaceOnUse" gradientTransform="translate(74.3739 97.2617) rotate(135.957) scale(6.86192 5.12534)">
<stop stop-color="#151515"/>
<stop offset="1" stop-color="#151515" stop-opacity="0"/>
</radialGradient>
<linearGradient id="paint57_linear_1754_10956" x1="68.951" y1="79.7853" x2="68.951" y2="88.7861" gradientUnits="userSpaceOnUse">
<stop stop-color="#8A3EDF"/>
<stop offset="1" stop-color="#280F44" stop-opacity="0"/>
</linearGradient>
<radialGradient id="paint58_radial_1754_10956" cx="0" cy="0" r="1" gradientUnits="userSpaceOnUse" gradientTransform="translate(68.951 84.2857) rotate(-132.581) scale(8.48693 6.5838)">
<stop stop-color="white"/>
<stop offset="1" stop-color="white" stop-opacity="0"/>
</radialGradient>
<radialGradient id="paint59_radial_1754_10956" cx="0" cy="0" r="1" gradientUnits="userSpaceOnUse" gradientTransform="translate(68.951 84.2857) rotate(40.6798) scale(7.12123 5.11525)">
<stop stop-color="#6356FE"/>
<stop offset="1" stop-color="#A330CB" stop-opacity="0.12"/>
</radialGradient>
<radialGradient id="paint60_radial_1754_10956" cx="0" cy="0" r="1" gradientUnits="userSpaceOnUse" gradientTransform="translate(68.951 84.2857) rotate(135.957) scale(6.86192 5.12534)">
<stop stop-color="#151515"/>
<stop offset="1" stop-color="#151515" stop-opacity="0"/>
</radialGradient>
</defs>
</svg>
