<svg width="128" height="128" viewBox="0 0 128 128" fill="none" xmlns="http://www.w3.org/2000/svg">
<g filter="url(#filter0_d_1754_10994)">
<g clip-path="url(#clip0_1754_10994)">
<rect width="128" height="128" rx="16" fill="#1E1E20" shape-rendering="crispEdges"/>
<circle cx="63.9996" cy="120" r="56.5" transform="rotate(102.913 63.9996 120)" fill="url(#paint0_angular_1754_10994)" fill-opacity="0.4"/>
<circle cx="63.9996" cy="120" r="56.5" transform="rotate(102.913 63.9996 120)" stroke="url(#paint1_radial_1754_10994)"/>
<circle cx="63.9996" cy="120" r="56.5" transform="rotate(102.913 63.9996 120)" stroke="url(#paint2_radial_1754_10994)"/>
<circle cx="63.9996" cy="120" r="56.5" transform="rotate(102.913 63.9996 120)" stroke="url(#paint3_radial_1754_10994)"/>
<circle cx="63.9994" cy="120" r="24.5" transform="rotate(102.913 63.9994 120)" fill="url(#paint4_angular_1754_10994)"/>
<circle cx="63.9994" cy="120" r="24.5" transform="rotate(102.913 63.9994 120)" stroke="url(#paint5_radial_1754_10994)"/>
<circle cx="63.9994" cy="120" r="24.5" transform="rotate(102.913 63.9994 120)" stroke="url(#paint6_radial_1754_10994)"/>
<circle cx="63.9994" cy="120" r="24.5" transform="rotate(102.913 63.9994 120)" stroke="url(#paint7_radial_1754_10994)"/>
<path d="M19.8438 39V20.2188H19.5781L13.9219 24.2188V20.6406L19.8594 16.4531H23.3438V39H19.8438ZM37.875 39.5469C35.2396 39.5469 33.1875 38.5104 31.7188 36.4375C30.2604 34.3646 29.5312 31.4531 29.5312 27.7031C29.5312 23.9844 30.2656 21.0885 31.7344 19.0156C33.2031 16.9427 35.25 15.9062 37.875 15.9062C40.4792 15.9062 42.5156 16.9479 43.9844 19.0312C45.4531 21.1042 46.1875 24.0052 46.1875 27.7344C46.1875 31.474 45.4583 34.3802 44 36.4531C42.5417 38.5156 40.5 39.5469 37.875 39.5469ZM34.3125 34.2188C35.1458 35.7292 36.3333 36.4844 37.875 36.4844C39.4167 36.4844 40.599 35.7344 41.4219 34.2344C42.2448 32.724 42.6562 30.5469 42.6562 27.7031C42.6562 24.8906 42.2396 22.7344 41.4062 21.2344C40.5729 19.724 39.3958 18.9688 37.875 18.9688C36.3542 18.9688 35.1719 19.724 34.3281 21.2344C33.4844 22.7448 33.0625 24.901 33.0625 27.7031C33.0625 30.5365 33.4792 32.7083 34.3125 34.2188ZM58.6562 39.5469C56.0208 39.5469 53.9688 38.5104 52.5 36.4375C51.0417 34.3646 50.3125 31.4531 50.3125 27.7031C50.3125 23.9844 51.0469 21.0885 52.5156 19.0156C53.9844 16.9427 56.0312 15.9062 58.6562 15.9062C61.2604 15.9062 63.2969 16.9479 64.7656 19.0312C66.2344 21.1042 66.9688 24.0052 66.9688 27.7344C66.9688 31.474 66.2396 34.3802 64.7812 36.4531C63.3229 38.5156 61.2812 39.5469 58.6562 39.5469ZM55.0938 34.2188C55.9271 35.7292 57.1146 36.4844 58.6562 36.4844C60.1979 36.4844 61.3802 35.7344 62.2031 34.2344C63.026 32.724 63.4375 30.5469 63.4375 27.7031C63.4375 24.8906 63.0208 22.7344 62.1875 21.2344C61.3542 19.724 60.1771 18.9688 58.6562 18.9688C57.1354 18.9688 55.9531 19.724 55.1094 21.2344C54.2656 22.7448 53.8438 24.901 53.8438 27.7031C53.8438 30.5365 54.2604 32.7083 55.0938 34.2188ZM78.75 17.5469C79.6771 18.5781 80.1406 19.9167 80.1406 21.5625C80.1406 23.2083 79.6771 24.5469 78.75 25.5781C77.8333 26.6094 76.6406 27.125 75.1719 27.125C73.7135 27.125 72.5208 26.6094 71.5938 25.5781C70.6667 24.5365 70.2031 23.1979 70.2031 21.5625C70.2031 19.9167 70.6615 18.5781 71.5781 17.5469C72.5052 16.5156 73.7031 16 75.1719 16C76.6406 16 77.8333 16.5156 78.75 17.5469ZM73.625 23.8281C74.0104 24.401 74.526 24.6875 75.1719 24.6875C75.8177 24.6875 76.3333 24.401 76.7188 23.8281C77.1042 23.2552 77.2969 22.4948 77.2969 21.5469C77.2969 20.5781 77.1042 19.8177 76.7188 19.2656C76.3438 18.7135 75.8281 18.4375 75.1719 18.4375C74.526 18.4375 74.0104 18.7188 73.625 19.2812C73.2396 19.8438 73.0469 20.599 73.0469 21.5469C73.0469 22.4948 73.2396 23.2552 73.625 23.8281ZM75.5938 39H72.1719L80.75 27.2188L88.25 16.4531H91.6562L82.9375 28.3906L75.5938 39ZM93.5312 33.875C93.5312 35.5208 93.0677 36.8646 92.1406 37.9062C91.224 38.9375 90.0312 39.4531 88.5625 39.4531C87.0938 39.4531 85.8958 38.9375 84.9688 37.9062C84.0417 36.8646 83.5781 35.5208 83.5781 33.875C83.5781 32.2396 84.0417 30.9062 84.9688 29.875C85.8958 28.8438 87.0938 28.3281 88.5625 28.3281C90.0312 28.3281 91.224 28.8438 92.1406 29.875C93.0677 30.9062 93.5312 32.2396 93.5312 33.875ZM88.5625 37.0156C89.1979 37.0156 89.7083 36.7344 90.0938 36.1719C90.4792 35.599 90.6719 34.8333 90.6719 33.875C90.6719 32.9062 90.4792 32.1458 90.0938 31.5938C89.7188 31.0417 89.2083 30.7656 88.5625 30.7656C87.9167 30.7656 87.401 31.0469 87.0156 31.6094C86.6302 32.1719 86.4375 32.9271 86.4375 33.875C86.4375 34.8229 86.6302 35.5833 87.0156 36.1562C87.401 36.7292 87.9167 37.0156 88.5625 37.0156Z" fill="white"/>
<path d="M15.6641 59.79C16.1745 59.79 16.6006 59.6442 16.9424 59.3525C17.2842 59.0563 17.4551 58.6917 17.4551 58.2588V57.6641L15.7666 57.7734C14.8369 57.8327 14.3721 58.1699 14.3721 58.7852C14.3721 59.0951 14.4906 59.3411 14.7275 59.5234C14.9691 59.7012 15.2812 59.79 15.6641 59.79ZM15.165 61.123C14.4359 61.123 13.8411 60.918 13.3809 60.5078C12.9206 60.0977 12.6904 59.5553 12.6904 58.8809C12.6904 58.2064 12.9342 57.6777 13.4219 57.2949C13.9141 56.9121 14.6159 56.6934 15.5273 56.6387L17.4551 56.5225V55.8936C17.4551 55.5244 17.3343 55.2419 17.0928 55.0459C16.8512 54.8499 16.5026 54.752 16.0469 54.752C15.6549 54.752 15.3314 54.8203 15.0762 54.957C14.821 55.0892 14.6546 55.2806 14.5771 55.5312H12.9775C13.0459 54.8704 13.3649 54.3464 13.9346 53.959C14.5088 53.5671 15.2402 53.3711 16.1289 53.3711C17.0859 53.3711 17.8242 53.5921 18.3438 54.0342C18.8678 54.4762 19.1299 55.096 19.1299 55.8936V61H17.4961V59.9746H17.3799C17.1702 60.3346 16.8695 60.6172 16.4775 60.8223C16.0902 61.0228 15.6527 61.123 15.165 61.123ZM24.1682 54.7109H22.6985V56.5771H24.0315C24.8655 56.5771 25.2825 56.2627 25.2825 55.6338C25.2825 55.3467 25.1891 55.1211 25.0022 54.957C24.8154 54.793 24.5374 54.7109 24.1682 54.7109ZM24.1341 57.6914H22.6985V59.8105H24.2845C24.7037 59.8105 25.025 59.7194 25.2483 59.5371C25.4716 59.3548 25.5833 59.0928 25.5833 58.751C25.5833 58.0446 25.1002 57.6914 24.1341 57.6914ZM21.0237 61V53.5215H24.5579C25.3053 53.5215 25.8886 53.6924 26.3079 54.0342C26.7317 54.3714 26.9436 54.8317 26.9436 55.415C26.9436 55.7979 26.8183 56.1419 26.5677 56.4473C26.3216 56.748 26.0139 56.9303 25.6448 56.9941V57.1172C26.1324 57.1673 26.5266 57.3542 26.8274 57.6777C27.1282 57.9967 27.2786 58.3841 27.2786 58.8398C27.2786 59.4961 27.0393 60.0202 26.5608 60.4121C26.0823 60.804 25.4306 61 24.6057 61H21.0237ZM34.1627 53.5215V54.875H31.8589V61H30.1636V54.875H27.8599V53.5215H34.1627ZM38.4901 61.1504C37.369 61.1504 36.4894 60.8063 35.8514 60.1182C35.2134 59.4255 34.8944 58.473 34.8944 57.2607C34.8944 56.0576 35.2157 55.1097 35.8582 54.417C36.5008 53.7197 37.3781 53.3711 38.4901 53.3711C39.6066 53.3711 40.4839 53.7174 41.1219 54.4102C41.7645 55.1029 42.0858 56.0531 42.0858 57.2607C42.0858 58.473 41.7645 59.4255 41.1219 60.1182C40.4839 60.8063 39.6066 61.1504 38.4901 61.1504ZM37.1161 59.0859C37.4396 59.5143 37.8976 59.7285 38.4901 59.7285C39.0825 59.7285 39.5383 59.5143 39.8573 59.0859C40.1808 58.653 40.3426 58.0446 40.3426 57.2607C40.3426 56.4814 40.1808 55.8753 39.8573 55.4424C39.5337 55.0094 39.078 54.793 38.4901 54.793C37.8976 54.793 37.4396 55.0094 37.1161 55.4424C36.7925 55.8753 36.6307 56.4814 36.6307 57.2607C36.6307 58.0446 36.7925 58.653 37.1161 59.0859ZM45.2648 61H43.6446V53.5215H45.8048L48.0196 58.6689H48.1427L50.3644 53.5215H52.4835V61H50.8566V55.9141H50.7335L48.6691 60.6514H47.4523L45.3946 55.9141H45.2648V61ZM56.975 59.79C57.4854 59.79 57.9115 59.6442 58.2533 59.3525C58.5951 59.0563 58.766 58.6917 58.766 58.2588V57.6641L57.0775 57.7734C56.1479 57.8327 55.683 58.1699 55.683 58.7852C55.683 59.0951 55.8015 59.3411 56.0385 59.5234C56.28 59.7012 56.5922 59.79 56.975 59.79ZM56.476 61.123C55.7468 61.123 55.1521 60.918 54.6918 60.5078C54.2315 60.0977 54.0014 59.5553 54.0014 58.8809C54.0014 58.2064 54.2452 57.6777 54.7328 57.2949C55.225 56.9121 55.9268 56.6934 56.8383 56.6387L58.766 56.5225V55.8936C58.766 55.5244 58.6452 55.2419 58.4037 55.0459C58.1622 54.8499 57.8135 54.752 57.3578 54.752C56.9659 54.752 56.6423 54.8203 56.3871 54.957C56.1319 55.0892 55.9656 55.2806 55.8881 55.5312H54.2885C54.3568 54.8704 54.6758 54.3464 55.2455 53.959C55.8197 53.5671 56.5512 53.3711 57.4398 53.3711C58.3969 53.3711 59.1352 53.5921 59.6547 54.0342C60.1788 54.4762 60.4408 55.096 60.4408 55.8936V61H58.807V59.9746H58.6908C58.4812 60.3346 58.1804 60.6172 57.7885 60.8223C57.4011 61.0228 56.9636 61.123 56.476 61.123ZM68.0427 53.5215V54.875H65.7389V61H64.0436V54.875H61.7399V53.5215H68.0427ZM71.0439 61H69.3691V53.5215H71.0439V58.4707H71.1601L74.414 53.5215H76.082V61H74.414V56.0166H74.291L71.0439 61ZM80.7922 61.1504C80.373 61.1504 79.981 61.1025 79.6164 61.0068C79.2519 60.9111 78.9237 60.7699 78.6321 60.583C78.3404 60.3916 78.1011 60.1432 77.9143 59.8379C77.732 59.5326 77.6226 59.1816 77.5862 58.7852H79.2473C79.3202 59.1087 79.4911 59.3548 79.76 59.5234C80.0334 59.6875 80.3775 59.7695 80.7922 59.7695C81.2434 59.7695 81.6011 59.6784 81.8655 59.4961C82.1298 59.3092 82.262 59.0586 82.262 58.7441C82.262 58.0833 81.7743 57.7529 80.7991 57.7529H79.7053V56.543H80.7649C81.5989 56.543 82.0159 56.2422 82.0159 55.6406C82.0159 55.3672 81.9088 55.1462 81.6946 54.9775C81.4804 54.8089 81.1705 54.7246 80.7649 54.7246C80.373 54.7246 80.0471 54.8066 79.7873 54.9707C79.5321 55.1348 79.3817 55.3604 79.3362 55.6475H77.7161C77.7935 54.9502 78.0989 54.3965 78.6321 53.9863C79.1698 53.5762 79.8785 53.3711 80.758 53.3711C81.6832 53.3711 82.401 53.5579 82.9114 53.9316C83.4218 54.3008 83.677 54.8112 83.677 55.4629C83.677 55.832 83.5699 56.1533 83.3557 56.4268C83.1415 56.7002 82.8612 56.8825 82.5149 56.9736V57.0967C82.9843 57.2106 83.3398 57.4134 83.5813 57.7051C83.8274 57.9967 83.9504 58.3522 83.9504 58.7715C83.9504 59.4915 83.6633 60.068 83.0891 60.501C82.5194 60.9339 81.7538 61.1504 80.7922 61.1504ZM88.0796 59.79C88.59 59.79 89.0161 59.6442 89.3579 59.3525C89.6997 59.0563 89.8706 58.6917 89.8706 58.2588V57.6641L88.1822 57.7734C87.2525 57.8327 86.7876 58.1699 86.7876 58.7852C86.7876 59.0951 86.9061 59.3411 87.1431 59.5234C87.3846 59.7012 87.6968 59.79 88.0796 59.79ZM87.5806 61.123C86.8514 61.123 86.2567 60.918 85.7964 60.5078C85.3361 60.0977 85.106 59.5553 85.106 58.8809C85.106 58.2064 85.3498 57.6777 85.8374 57.2949C86.3296 56.9121 87.0314 56.6934 87.9429 56.6387L89.8706 56.5225V55.8936C89.8706 55.5244 89.7499 55.2419 89.5083 55.0459C89.2668 54.8499 88.9182 54.752 88.4624 54.752C88.0705 54.752 87.7469 54.8203 87.4917 54.957C87.2365 55.0892 87.0702 55.2806 86.9927 55.5312H85.3931C85.4614 54.8704 85.7805 54.3464 86.3501 53.959C86.9243 53.5671 87.6558 53.3711 88.5445 53.3711C89.5015 53.3711 90.2398 53.5921 90.7593 54.0342C91.2834 54.4762 91.5454 55.096 91.5454 55.8936V61H89.9116V59.9746H89.7954C89.5858 60.3346 89.285 60.6172 88.8931 60.8223C88.5057 61.0228 88.0682 61.123 87.5806 61.123ZM101.096 62.9482H99.5369V61H93.4393V53.5215H95.1346V59.6465H98.2518V53.5215H99.9471V59.6465H101.096V62.9482ZM103.94 61H102.265V53.5215H103.94V58.4707H104.056L107.31 53.5215H108.978V61H107.31V56.0166H107.187L103.94 61ZM113.708 57.2129H114.994V54.8682H113.708C113.298 54.8682 112.97 54.9775 112.724 55.1963C112.482 55.4105 112.362 55.7044 112.362 56.0781C112.362 56.4108 112.485 56.6842 112.731 56.8984C112.977 57.1081 113.303 57.2129 113.708 57.2129ZM114.994 61V58.498H114.016L112.266 61H110.325L112.327 58.2041C111.817 58.0583 111.416 57.7962 111.124 57.418C110.833 57.0352 110.687 56.5863 110.687 56.0713C110.687 55.2874 110.949 54.6676 111.473 54.2119C112.002 53.7516 112.703 53.5215 113.578 53.5215H116.661V61H114.994ZM17.9609 77V70.875H14.7959V77H13.1006V69.5215H19.6562V77H17.9609ZM25.6585 69.3984C26.6064 69.3984 27.3561 69.7425 27.9075 70.4307C28.4635 71.1188 28.7415 72.0622 28.7415 73.2607C28.7415 74.4548 28.4658 75.3981 27.9143 76.0908C27.3675 76.779 26.6223 77.123 25.679 77.123C25.1458 77.123 24.6787 77.0137 24.2776 76.7949C23.8811 76.5716 23.5872 76.2617 23.3958 75.8652H23.2796V79.4883H21.5843V69.5215H23.218V70.7588H23.3343C23.5485 70.335 23.8606 70.0023 24.2708 69.7607C24.6855 69.5192 25.1481 69.3984 25.6585 69.3984ZM25.1253 75.6807C25.7132 75.6807 26.1712 75.4665 26.4993 75.0381C26.832 74.6097 26.9983 74.0173 26.9983 73.2607C26.9983 72.5042 26.832 71.9118 26.4993 71.4834C26.1712 71.055 25.7154 70.8408 25.1321 70.8408C24.5533 70.8408 24.0953 71.0573 23.7581 71.4902C23.4208 71.9232 23.2499 72.5133 23.2454 73.2607C23.2499 74.0081 23.4186 74.5983 23.7513 75.0312C24.0885 75.4642 24.5465 75.6807 25.1253 75.6807ZM33.5474 77.1504C32.4263 77.1504 31.5468 76.8063 30.9088 76.1182C30.2707 75.4255 29.9517 74.473 29.9517 73.2607C29.9517 72.0576 30.273 71.1097 30.9156 70.417C31.5582 69.7197 32.4354 69.3711 33.5474 69.3711C34.664 69.3711 35.5412 69.7174 36.1793 70.4102C36.8218 71.1029 37.1431 72.0531 37.1431 73.2607C37.1431 74.473 36.8218 75.4255 36.1793 76.1182C35.5412 76.8063 34.664 77.1504 33.5474 77.1504ZM32.1734 75.0859C32.497 75.5143 32.955 75.7285 33.5474 75.7285C34.1399 75.7285 34.5956 75.5143 34.9146 75.0859C35.2382 74.653 35.4 74.0446 35.4 73.2607C35.4 72.4814 35.2382 71.8753 34.9146 71.4424C34.591 71.0094 34.1353 70.793 33.5474 70.793C32.955 70.793 32.497 71.0094 32.1734 71.4424C31.8498 71.8753 31.688 72.4814 31.688 73.2607C31.688 74.0446 31.8498 74.653 32.1734 75.0859ZM46.3582 78.9482H44.7996V77H38.702V69.5215H40.3973V75.6465H43.5145V69.5215H45.2098V75.6465H46.3582V78.9482ZM50.672 70.7178C50.1661 70.7178 49.7491 70.8841 49.421 71.2168C49.0929 71.5495 48.9106 71.9893 48.8741 72.5361H52.3946C52.3764 71.9801 52.2124 71.5381 51.9025 71.21C51.5926 70.8818 51.1824 70.7178 50.672 70.7178ZM52.4083 74.9424H54.0148C53.8553 75.626 53.4793 76.166 52.8868 76.5625C52.2989 76.9544 51.5675 77.1504 50.6925 77.1504C49.5942 77.1504 48.7306 76.8086 48.1017 76.125C47.4773 75.4368 47.1652 74.4912 47.1652 73.2881C47.1652 72.085 47.4796 71.1325 48.1085 70.4307C48.7374 69.7243 49.5942 69.3711 50.6788 69.3711C51.7452 69.3711 52.5792 69.7061 53.1808 70.376C53.7869 71.0413 54.09 71.9642 54.09 73.1445V73.6914H48.8673V73.7803C48.8901 74.4046 49.0678 74.8991 49.4005 75.2637C49.7377 75.6237 50.1844 75.8037 50.7404 75.8037C51.5971 75.8037 52.1531 75.5166 52.4083 74.9424ZM62.1088 72.0371H60.4955C60.4135 71.6589 60.2312 71.3581 59.9486 71.1348C59.6661 70.9069 59.2992 70.793 58.848 70.793C58.2647 70.793 57.809 71.0072 57.4809 71.4355C57.1573 71.8639 56.9955 72.4655 56.9955 73.2402C56.9955 74.0241 57.1596 74.6348 57.4877 75.0723C57.8158 75.5098 58.2693 75.7285 58.848 75.7285C59.2901 75.7285 59.6524 75.626 59.935 75.4209C60.2221 75.2158 60.4089 74.9196 60.4955 74.5322H62.1088C62.0131 75.3298 61.6781 75.9655 61.1039 76.4395C60.5342 76.9134 59.7846 77.1504 58.8549 77.1504C57.7292 77.1504 56.852 76.8063 56.223 76.1182C55.5941 75.43 55.2797 74.4707 55.2797 73.2402C55.2797 72.0234 55.5941 71.0755 56.223 70.3965C56.852 69.7129 57.727 69.3711 58.848 69.3711C59.7868 69.3711 60.5411 69.6149 61.1107 70.1025C61.685 70.5856 62.0176 71.2305 62.1088 72.0371ZM70.0182 72.0371H68.405C68.3229 71.6589 68.1406 71.3581 67.8581 71.1348C67.5755 70.9069 67.2087 70.793 66.7575 70.793C66.1742 70.793 65.7184 71.0072 65.3903 71.4355C65.0667 71.8639 64.905 72.4655 64.905 73.2402C64.905 74.0241 65.069 74.6348 65.3971 75.0723C65.7253 75.5098 66.1787 75.7285 66.7575 75.7285C67.1996 75.7285 67.5619 75.626 67.8444 75.4209C68.1315 75.2158 68.3184 74.9196 68.405 74.5322H70.0182C69.9225 75.3298 69.5876 75.9655 69.0134 76.4395C68.4437 76.9134 67.694 77.1504 66.7643 77.1504C65.6387 77.1504 64.7614 76.8063 64.1325 76.1182C63.5036 75.43 63.1891 74.4707 63.1891 73.2402C63.1891 72.0234 63.5036 71.0755 64.1325 70.3965C64.7614 69.7129 65.6364 69.3711 66.7575 69.3711C67.6963 69.3711 68.4505 69.6149 69.0202 70.1025C69.5944 70.5856 69.9271 71.2305 70.0182 72.0371ZM74.0517 75.79C74.5621 75.79 74.9882 75.6442 75.33 75.3525C75.6718 75.0563 75.8427 74.6917 75.8427 74.2588V73.6641L74.1543 73.7734C73.2246 73.8327 72.7597 74.1699 72.7597 74.7852C72.7597 75.0951 72.8782 75.3411 73.1152 75.5234C73.3567 75.7012 73.6689 75.79 74.0517 75.79ZM73.5527 77.123C72.8235 77.123 72.2288 76.918 71.7685 76.5078C71.3082 76.0977 71.0781 75.5553 71.0781 74.8809C71.0781 74.2064 71.3219 73.6777 71.8095 73.2949C72.3017 72.9121 73.0035 72.6934 73.915 72.6387L75.8427 72.5225V71.8936C75.8427 71.5244 75.722 71.2419 75.4804 71.0459C75.2389 70.8499 74.8903 70.752 74.4345 70.752C74.0426 70.752 73.719 70.8203 73.4638 70.957C73.2086 71.0892 73.0423 71.2806 72.9648 71.5312H71.3652C71.4336 70.8704 71.7526 70.3464 72.3222 69.959C72.8964 69.5671 73.6279 69.3711 74.5166 69.3711C75.4736 69.3711 76.2119 69.5921 76.7314 70.0342C77.2555 70.4762 77.5175 71.096 77.5175 71.8936V77H75.8838V75.9746H75.7675C75.5579 76.3346 75.2571 76.6172 74.8652 76.8223C74.4778 77.0228 74.0403 77.123 73.5527 77.123Z" fill="#C1C1C1"/>
</g>
<rect x="-0.5" y="-0.5" width="129" height="129" rx="16.5" stroke="url(#paint8_linear_1754_10994)" stroke-opacity="0.04" shape-rendering="crispEdges"/>
</g>
<defs>
<filter id="filter0_d_1754_10994" x="-17" y="-17" width="162" height="162" filterUnits="userSpaceOnUse" color-interpolation-filters="sRGB">
<feFlood flood-opacity="0" result="BackgroundImageFix"/>
<feColorMatrix in="SourceAlpha" type="matrix" values="0 0 0 0 0 0 0 0 0 0 0 0 0 0 0 0 0 0 127 0" result="hardAlpha"/>
<feOffset/>
<feGaussianBlur stdDeviation="8"/>
<feComposite in2="hardAlpha" operator="out"/>
<feColorMatrix type="matrix" values="0 0 0 0 0 0 0 0 0 0 0 0 0 0 0 0 0 0 0.1 0"/>
<feBlend mode="normal" in2="BackgroundImageFix" result="effect1_dropShadow_1754_10994"/>
<feBlend mode="normal" in="SourceGraphic" in2="effect1_dropShadow_1754_10994" result="shape"/>
</filter>
<radialGradient id="paint0_angular_1754_10994" cx="0" cy="0" r="1" gradientUnits="userSpaceOnUse" gradientTransform="translate(63.9996 120) rotate(90) scale(51)">
<stop stop-color="#8A3EDF" stop-opacity="0.8"/>
<stop offset="0.399" stop-color="#482174" stop-opacity="0.2"/>
</radialGradient>
<radialGradient id="paint1_radial_1754_10994" cx="0" cy="0" r="1" gradientUnits="userSpaceOnUse" gradientTransform="translate(63.9996 120) rotate(-132.581) scale(105.606 81.9245)">
<stop stop-color="white"/>
<stop offset="1" stop-color="white" stop-opacity="0"/>
</radialGradient>
<radialGradient id="paint2_radial_1754_10994" cx="0" cy="0" r="1" gradientUnits="userSpaceOnUse" gradientTransform="translate(63.9996 120) rotate(40.6798) scale(88.6118 63.6508)">
<stop stop-color="#6356FE"/>
<stop offset="1" stop-color="#A330CB" stop-opacity="0.12"/>
</radialGradient>
<radialGradient id="paint3_radial_1754_10994" cx="0" cy="0" r="1" gradientUnits="userSpaceOnUse" gradientTransform="translate(63.9996 120) rotate(135.957) scale(85.3851 63.7764)">
<stop stop-color="#151515"/>
<stop offset="1" stop-color="#151515" stop-opacity="0"/>
</radialGradient>
<radialGradient id="paint4_angular_1754_10994" cx="0" cy="0" r="1" gradientUnits="userSpaceOnUse" gradientTransform="translate(63.9994 120) rotate(-135) scale(21.2132)">
<stop offset="0.512662" stop-color="#280F44" stop-opacity="0.2"/>
<stop offset="1" stop-color="#8A3EDF"/>
</radialGradient>
<radialGradient id="paint5_radial_1754_10994" cx="0" cy="0" r="1" gradientUnits="userSpaceOnUse" gradientTransform="translate(63.9994 120) rotate(-132.581) scale(45.2596 35.1105)">
<stop stop-color="white"/>
<stop offset="1" stop-color="white" stop-opacity="0"/>
</radialGradient>
<radialGradient id="paint6_radial_1754_10994" cx="0" cy="0" r="1" gradientUnits="userSpaceOnUse" gradientTransform="translate(63.9994 120) rotate(40.6798) scale(37.9765 27.2789)">
<stop stop-color="#6356FE"/>
<stop offset="1" stop-color="#A330CB" stop-opacity="0.12"/>
</radialGradient>
<radialGradient id="paint7_radial_1754_10994" cx="0" cy="0" r="1" gradientUnits="userSpaceOnUse" gradientTransform="translate(63.9994 120) rotate(135.957) scale(36.5936 27.3327)">
<stop stop-color="#151515"/>
<stop offset="1" stop-color="#151515" stop-opacity="0"/>
</radialGradient>
<linearGradient id="paint8_linear_1754_10994" x1="0" y1="0" x2="151.901" y2="42.4275" gradientUnits="userSpaceOnUse">
<stop stop-color="white"/>
<stop offset="1" stop-color="white" stop-opacity="0"/>
</linearGradient>
<clipPath id="clip0_1754_10994">
<rect width="128" height="128" rx="16" fill="white"/>
</clipPath>
</defs>
</svg>
