<svg width="88" height="88" viewBox="0 0 88 88" fill="none" xmlns="http://www.w3.org/2000/svg">
<g filter="url(#filter0_d_1754_10912)">
<g clip-path="url(#clip0_1754_10912)">
<rect width="88" height="88" rx="14.08" fill="#1E1E20" shape-rendering="crispEdges"/>
<rect opacity="0.1" width="44.5717" height="44.5717" transform="matrix(0.868712 0.495318 -0.868712 0.495318 44 84.6033)" fill="url(#paint0_linear_1754_10912)"/>
<rect opacity="0.1" width="44.5717" height="44.5717" transform="matrix(0.868712 0.495318 -0.868712 0.495318 44 75.8032)" fill="url(#paint1_linear_1754_10912)"/>
<g opacity="0.1">
<rect x="-2.6226e-08" y="0.43588" width="43.6917" height="43.6917" rx="1.32" transform="matrix(0.868712 0.495318 -0.868712 0.495318 44.3787 67.2234)" fill="url(#paint2_linear_1754_10912)"/>
<rect x="-2.6226e-08" y="0.43588" width="43.6917" height="43.6917" rx="1.32" transform="matrix(0.868712 0.495318 -0.868712 0.495318 44.3787 67.2234)" stroke="url(#paint3_radial_1754_10912)" stroke-width="0.88"/>
<rect x="-2.6226e-08" y="0.43588" width="43.6917" height="43.6917" rx="1.32" transform="matrix(0.868712 0.495318 -0.868712 0.495318 44.3787 67.2234)" stroke="url(#paint4_radial_1754_10912)" stroke-width="0.88"/>
<rect x="-2.6226e-08" y="0.43588" width="43.6917" height="43.6917" rx="1.32" transform="matrix(0.868712 0.495318 -0.868712 0.495318 44.3787 67.2234)" stroke="url(#paint5_radial_1754_10912)" stroke-width="0.88"/>
</g>
<g filter="url(#filter1_b_1754_10912)">
<g opacity="0.2">
<rect x="2.6226e-08" y="-0.43588" width="45.4517" height="45.4517" rx="2.2" transform="matrix(0.868712 0.495318 -0.868712 0.495318 43.6213 57.9524)" fill="url(#paint6_linear_1754_10912)"/>
<rect x="2.6226e-08" y="-0.43588" width="45.4517" height="45.4517" rx="2.2" transform="matrix(0.868712 0.495318 -0.868712 0.495318 43.6213 57.9524)" stroke="url(#paint7_radial_1754_10912)" stroke-width="0.88"/>
<rect x="2.6226e-08" y="-0.43588" width="45.4517" height="45.4517" rx="2.2" transform="matrix(0.868712 0.495318 -0.868712 0.495318 43.6213 57.9524)" stroke="url(#paint8_radial_1754_10912)" stroke-width="0.88"/>
<rect x="2.6226e-08" y="-0.43588" width="45.4517" height="45.4517" rx="2.2" transform="matrix(0.868712 0.495318 -0.868712 0.495318 43.6213 57.9524)" stroke="url(#paint9_radial_1754_10912)" stroke-width="0.88"/>
</g>
</g>
<g filter="url(#filter2_b_1754_10912)">
<g opacity="0.4">
<rect x="2.6226e-08" y="-0.43588" width="45.4517" height="45.4517" rx="2.2" transform="matrix(0.868712 0.495318 -0.868712 0.495318 43.6213 49.1218)" fill="url(#paint10_linear_1754_10912)"/>
<rect x="2.6226e-08" y="-0.43588" width="45.4517" height="45.4517" rx="2.2" transform="matrix(0.868712 0.495318 -0.868712 0.495318 43.6213 49.1218)" stroke="url(#paint11_radial_1754_10912)" stroke-width="0.88"/>
<rect x="2.6226e-08" y="-0.43588" width="45.4517" height="45.4517" rx="2.2" transform="matrix(0.868712 0.495318 -0.868712 0.495318 43.6213 49.1218)" stroke="url(#paint12_radial_1754_10912)" stroke-width="0.88"/>
<rect x="2.6226e-08" y="-0.43588" width="45.4517" height="45.4517" rx="2.2" transform="matrix(0.868712 0.495318 -0.868712 0.495318 43.6213 49.1218)" stroke="url(#paint13_radial_1754_10912)" stroke-width="0.88"/>
</g>
</g>
<g filter="url(#filter3_b_1754_10912)">
<g opacity="0.6">
<rect x="2.6226e-08" y="-0.43588" width="45.4517" height="45.4517" rx="2.2" transform="matrix(0.868712 0.495318 -0.868712 0.495318 43.6213 40.2908)" fill="url(#paint14_linear_1754_10912)"/>
<rect x="2.6226e-08" y="-0.43588" width="45.4517" height="45.4517" rx="2.2" transform="matrix(0.868712 0.495318 -0.868712 0.495318 43.6213 40.2908)" stroke="url(#paint15_radial_1754_10912)" stroke-width="0.88"/>
<rect x="2.6226e-08" y="-0.43588" width="45.4517" height="45.4517" rx="2.2" transform="matrix(0.868712 0.495318 -0.868712 0.495318 43.6213 40.2908)" stroke="url(#paint16_radial_1754_10912)" stroke-width="0.88"/>
<rect x="2.6226e-08" y="-0.43588" width="45.4517" height="45.4517" rx="2.2" transform="matrix(0.868712 0.495318 -0.868712 0.495318 43.6213 40.2908)" stroke="url(#paint17_radial_1754_10912)" stroke-width="0.88"/>
</g>
</g>
<g filter="url(#filter4_b_1754_10912)">
<g opacity="0.72">
<rect x="2.6226e-08" y="-0.43588" width="45.4517" height="45.4517" rx="2.2" transform="matrix(0.868712 0.495318 -0.868712 0.495318 43.6213 31.46)" fill="url(#paint18_linear_1754_10912)"/>
<rect x="2.6226e-08" y="-0.43588" width="45.4517" height="45.4517" rx="2.2" transform="matrix(0.868712 0.495318 -0.868712 0.495318 43.6213 31.46)" stroke="url(#paint19_radial_1754_10912)" stroke-width="0.88"/>
<rect x="2.6226e-08" y="-0.43588" width="45.4517" height="45.4517" rx="2.2" transform="matrix(0.868712 0.495318 -0.868712 0.495318 43.6213 31.46)" stroke="url(#paint20_radial_1754_10912)" stroke-width="0.88"/>
<rect x="2.6226e-08" y="-0.43588" width="45.4517" height="45.4517" rx="2.2" transform="matrix(0.868712 0.495318 -0.868712 0.495318 43.6213 31.46)" stroke="url(#paint21_radial_1754_10912)" stroke-width="0.88"/>
</g>
</g>
<path d="M16.6925 28.7011C14.9681 28.7011 13.5484 28.2199 12.4335 27.2574C11.3186 26.2949 10.721 25.0516 10.6408 23.5277H13.2035C13.3078 24.3699 13.6807 25.0476 14.3224 25.561C14.9641 26.0743 15.7621 26.331 16.7166 26.331C17.7994 26.331 18.6737 26.0021 19.3394 25.3444C20.0052 24.6867 20.338 23.8164 20.338 22.7336C20.338 21.6508 20.0052 20.7725 19.3394 20.0988C18.6737 19.417 17.8115 19.0761 16.7527 19.0761C16.0148 19.0761 15.3531 19.2325 14.7675 19.5453C14.182 19.8582 13.7208 20.2953 13.384 20.8567H10.9175L11.8319 10.9189H21.9622V13.3252H13.9374L13.4802 18.4144H13.6847C14.5029 17.3637 15.726 16.8383 17.3543 16.8383C19.0066 16.8383 20.3541 17.3837 21.3968 18.4746C22.4475 19.5574 22.9729 20.953 22.9729 22.6614C22.9729 24.4581 22.3914 25.9139 21.2283 27.0288C20.0733 28.1437 18.5614 28.7011 16.6925 28.7011ZM32.4535 28.7011C30.4242 28.7011 28.8441 27.9031 27.7132 26.3069C26.5903 24.7108 26.0288 22.4689 26.0288 19.5814C26.0288 16.718 26.5943 14.4882 27.7252 12.8921C28.8561 11.2959 30.4322 10.4978 32.4535 10.4978C34.4587 10.4978 36.0268 11.2999 37.1577 12.9041C38.2886 14.5002 38.8541 16.734 38.8541 19.6055C38.8541 22.485 38.2927 24.7228 37.1697 26.3189C36.0468 27.9071 34.4747 28.7011 32.4535 28.7011ZM29.7104 24.5985C30.352 25.7615 31.2664 26.343 32.4535 26.343C33.6406 26.343 34.5509 25.7655 35.1846 24.6105C35.8182 23.4475 36.135 21.7711 36.135 19.5814C36.135 17.4158 35.8142 15.7555 35.1725 14.6005C34.5309 13.4375 33.6245 12.856 32.4535 12.856C31.2824 12.856 30.3721 13.4375 29.7224 14.6005C29.0727 15.7635 28.7479 17.4238 28.7479 19.5814C28.7479 21.7631 29.0687 23.4354 29.7104 24.5985ZM49.7424 22.4569V27.5582H47.4925V22.4569H42.3672V20.0988H47.4925V15.0096H49.7424V20.0988H54.8797V22.4569H49.7424Z" fill="white"/>
<path d="M9.76856 47.04V40.4589H11.2604V45.8489H13.3599V40.4589H14.8518V45.8489H16.9512V40.4589H18.4431V47.04H9.76856ZM22.3896 45.9753C22.8388 45.9753 23.2137 45.8469 23.5145 45.5903C23.8153 45.3296 23.9657 45.0088 23.9657 44.6278V44.1044L22.4798 44.2007C21.6617 44.2528 21.2526 44.5496 21.2526 45.091C21.2526 45.3637 21.3569 45.5802 21.5654 45.7407C21.778 45.8971 22.0527 45.9753 22.3896 45.9753ZM21.9504 47.1483C21.3088 47.1483 20.7854 46.9679 20.3804 46.6069C19.9753 46.246 19.7728 45.7687 19.7728 45.1752C19.7728 44.5817 19.9873 44.1164 20.4165 43.7796C20.8496 43.4427 21.4672 43.2502 22.2693 43.2021L23.9657 43.0998V42.5464C23.9657 42.2215 23.8594 41.9729 23.6469 41.8004C23.4343 41.628 23.1275 41.5418 22.7265 41.5418C22.3816 41.5418 22.0968 41.6019 21.8722 41.7222C21.6477 41.8385 21.5013 42.007 21.4331 42.2275H20.0254C20.0856 41.646 20.3663 41.1848 20.8676 40.8439C21.3729 40.499 22.0166 40.3266 22.7986 40.3266C23.6408 40.3266 24.2905 40.5211 24.7477 40.9101C25.2089 41.2991 25.4395 41.8445 25.4395 42.5464V47.04H24.0018V46.1377H23.8995C23.715 46.4545 23.4503 46.7032 23.1054 46.8836C22.7646 47.0601 22.3796 47.1483 21.9504 47.1483ZM29.9996 45.9211C30.525 45.9211 30.932 45.7407 31.2208 45.3797C31.5135 45.0188 31.6599 44.5095 31.6599 43.8518C31.6599 43.2221 31.5135 42.7329 31.2208 42.3839C30.932 42.035 30.525 41.8606 29.9996 41.8606C29.4742 41.8606 29.0652 42.035 28.7724 42.3839C28.4837 42.7329 28.3393 43.2221 28.3393 43.8518C28.3393 44.5095 28.4837 45.0188 28.7724 45.3797C29.0612 45.7407 29.4702 45.9211 29.9996 45.9211ZM27.9904 41.8967H28.0926C28.5378 41.0705 29.2737 40.6575 30.3004 40.6575C31.1706 40.6575 31.8705 40.9422 32.3998 41.5117C32.9292 42.0771 33.1939 42.8471 33.1939 43.8217C33.1939 44.8604 32.9091 45.6785 32.3397 46.2761C31.7742 46.8736 31.0002 47.1724 30.0176 47.1724C28.987 47.1724 28.1929 46.8415 27.6355 46.1798C27.082 45.5181 26.8053 44.5355 26.8053 43.2321C26.8053 41.5718 27.074 40.3366 27.6114 39.5265C28.1528 38.7124 29.0371 38.2813 30.2643 38.2332L31.0403 38.2031C31.3451 38.1911 31.6399 38.161 31.9246 38.1129C32.2133 38.0607 32.4219 38.0146 32.5502 37.9745C32.6826 37.9344 32.7527 37.9103 32.7608 37.9023V39.1415C32.7287 39.1616 32.6765 39.1876 32.6044 39.2197C32.5362 39.2518 32.3617 39.2979 32.081 39.3581C31.8043 39.4142 31.4875 39.4483 31.1305 39.4604L30.3726 39.4904C29.9595 39.5065 29.6086 39.5686 29.3198 39.6769C29.0351 39.7852 28.8025 39.9456 28.622 40.1582C28.4415 40.3707 28.3032 40.6154 28.2069 40.8921C28.1107 41.1688 28.0385 41.5037 27.9904 41.8967ZM36.4726 43.9781C36.4446 44.3751 36.4025 44.728 36.3463 45.0368C36.2902 45.3456 36.208 45.6324 36.0997 45.8971C35.9954 46.1618 35.8651 46.3823 35.7087 46.5588C35.5523 46.7312 35.3598 46.8656 35.1312 46.9618C34.9026 47.0581 34.6379 47.1062 34.3371 47.1062C34.1406 47.1062 33.9742 47.0821 33.8378 47.034V45.7106C33.9421 45.7387 34.0624 45.7527 34.1987 45.7527C34.4995 45.7527 34.7181 45.5923 34.8544 45.2714C34.9948 44.9506 35.083 44.4914 35.1191 43.8939L35.3357 40.4589H40.0519V47.04H38.5661V41.65H36.6351L36.4726 43.9781ZM44.594 47.1724C43.6074 47.1724 42.8334 46.8696 42.2719 46.264C41.7105 45.6544 41.4298 44.8163 41.4298 43.7495C41.4298 42.6907 41.7125 41.8566 42.278 41.247C42.8434 40.6334 43.6154 40.3266 44.594 40.3266C45.5765 40.3266 46.3485 40.6314 46.91 41.241C47.4755 41.8506 47.7582 42.6867 47.7582 43.7495C47.7582 44.8163 47.4755 45.6544 46.91 46.264C46.3485 46.8696 45.5765 47.1724 44.594 47.1724ZM43.3848 45.3557C43.6696 45.7326 44.0726 45.9211 44.594 45.9211C45.1153 45.9211 45.5164 45.7326 45.7971 45.3557C46.0818 44.9747 46.2242 44.4393 46.2242 43.7495C46.2242 43.0637 46.0818 42.5303 45.7971 42.1493C45.5124 41.7683 45.1113 41.5779 44.594 41.5779C44.0726 41.5779 43.6696 41.7683 43.3848 42.1493C43.1001 42.5303 42.9577 43.0637 42.9577 43.7495C42.9577 44.4393 43.1001 44.9747 43.3848 45.3557ZM53.4673 47.04V44.2488H50.6219V47.04H49.13V40.4589H50.6219V43.0577H53.4673V40.4589H54.9591V47.04H53.4673ZM59.5012 47.1724C58.5146 47.1724 57.7406 46.8696 57.1791 46.264C56.6177 45.6544 56.337 44.8163 56.337 43.7495C56.337 42.6907 56.6197 41.8566 57.1852 41.247C57.7506 40.6334 58.5226 40.3266 59.5012 40.3266C60.4837 40.3266 61.2557 40.6314 61.8172 41.241C62.3827 41.8506 62.6654 42.6867 62.6654 43.7495C62.6654 44.8163 62.3827 45.6544 61.8172 46.264C61.2557 46.8696 60.4837 47.1724 59.5012 47.1724ZM58.292 45.3557C58.5768 45.7326 58.9798 45.9211 59.5012 45.9211C60.0225 45.9211 60.4236 45.7326 60.7043 45.3557C60.989 44.9747 61.1314 44.4393 61.1314 43.7495C61.1314 43.0637 60.989 42.5303 60.7043 42.1493C60.4196 41.7683 60.0185 41.5779 59.5012 41.5779C58.9798 41.5779 58.5768 41.7683 58.292 42.1493C58.0073 42.5303 57.8649 43.0637 57.8649 43.7495C57.8649 44.4393 58.0073 44.9747 58.292 45.3557ZM66.8044 41.5057H65.511V43.1479H66.6841C67.418 43.1479 67.7849 42.8712 67.7849 42.3178C67.7849 42.0651 67.7027 41.8666 67.5383 41.7222C67.3739 41.5779 67.1292 41.5057 66.8044 41.5057ZM66.7743 44.1285H65.511V45.9933H66.9067C67.2756 45.9933 67.5583 45.9131 67.7549 45.7527C67.9514 45.5923 68.0496 45.3617 68.0496 45.0609C68.0496 44.4393 67.6245 44.1285 66.7743 44.1285ZM64.0372 47.04V40.4589H67.1473C67.805 40.4589 68.3183 40.6093 68.6873 40.9101C69.0602 41.2069 69.2467 41.6119 69.2467 42.1253C69.2467 42.4621 69.1364 42.7649 68.9159 43.0336C68.6993 43.2983 68.4286 43.4587 68.1038 43.5149V43.6232C68.5329 43.6673 68.8798 43.8317 69.1445 44.1164C69.4092 44.3972 69.5415 44.7381 69.5415 45.1391C69.5415 45.7166 69.3309 46.1778 68.9099 46.5227C68.4888 46.8676 67.9153 47.04 67.1894 47.04H64.0372Z" fill="#C1C1C1"/>
</g>
<rect x="-0.44" y="-0.44" width="88.88" height="88.88" rx="14.52" stroke="url(#paint22_linear_1754_10912)" stroke-opacity="0.04" stroke-width="0.88" shape-rendering="crispEdges"/>
</g>
<defs>
<filter id="filter0_d_1754_10912" x="-14.96" y="-14.9599" width="117.92" height="117.92" filterUnits="userSpaceOnUse" color-interpolation-filters="sRGB">
<feFlood flood-opacity="0" result="BackgroundImageFix"/>
<feColorMatrix in="SourceAlpha" type="matrix" values="0 0 0 0 0 0 0 0 0 0 0 0 0 0 0 0 0 0 127 0" result="hardAlpha"/>
<feOffset/>
<feGaussianBlur stdDeviation="7.04"/>
<feComposite in2="hardAlpha" operator="out"/>
<feColorMatrix type="matrix" values="0 0 0 0 0 0 0 0 0 0 0 0 0 0 0 0 0 0 0.1 0"/>
<feBlend mode="normal" in2="BackgroundImageFix" result="effect1_dropShadow_1754_10912"/>
<feBlend mode="normal" in="SourceGraphic" in2="effect1_dropShadow_1754_10912" result="shape"/>
</filter>
<filter id="filter1_b_1754_10912" x="1.57448" y="54.5467" width="84.851" height="51.406" filterUnits="userSpaceOnUse" color-interpolation-filters="sRGB">
<feFlood flood-opacity="0" result="BackgroundImageFix"/>
<feGaussianBlur in="BackgroundImageFix" stdDeviation="1.76"/>
<feComposite in2="SourceAlpha" operator="in" result="effect1_backgroundBlur_1754_10912"/>
<feBlend mode="normal" in="SourceGraphic" in2="effect1_backgroundBlur_1754_10912" result="shape"/>
</filter>
<filter id="filter2_b_1754_10912" x="1.57448" y="45.7161" width="84.851" height="51.406" filterUnits="userSpaceOnUse" color-interpolation-filters="sRGB">
<feFlood flood-opacity="0" result="BackgroundImageFix"/>
<feGaussianBlur in="BackgroundImageFix" stdDeviation="1.76"/>
<feComposite in2="SourceAlpha" operator="in" result="effect1_backgroundBlur_1754_10912"/>
<feBlend mode="normal" in="SourceGraphic" in2="effect1_backgroundBlur_1754_10912" result="shape"/>
</filter>
<filter id="filter3_b_1754_10912" x="1.57448" y="36.885" width="84.851" height="51.406" filterUnits="userSpaceOnUse" color-interpolation-filters="sRGB">
<feFlood flood-opacity="0" result="BackgroundImageFix"/>
<feGaussianBlur in="BackgroundImageFix" stdDeviation="1.76"/>
<feComposite in2="SourceAlpha" operator="in" result="effect1_backgroundBlur_1754_10912"/>
<feBlend mode="normal" in="SourceGraphic" in2="effect1_backgroundBlur_1754_10912" result="shape"/>
</filter>
<filter id="filter4_b_1754_10912" x="1.57448" y="28.0542" width="84.851" height="51.406" filterUnits="userSpaceOnUse" color-interpolation-filters="sRGB">
<feFlood flood-opacity="0" result="BackgroundImageFix"/>
<feGaussianBlur in="BackgroundImageFix" stdDeviation="1.76"/>
<feComposite in2="SourceAlpha" operator="in" result="effect1_backgroundBlur_1754_10912"/>
<feBlend mode="normal" in="SourceGraphic" in2="effect1_backgroundBlur_1754_10912" result="shape"/>
</filter>
<linearGradient id="paint0_linear_1754_10912" x1="49.817" y1="49.3551" x2="9.70246" y2="49.3551" gradientUnits="userSpaceOnUse">
<stop stop-color="#280F44"/>
<stop offset="1" stop-color="#8A3EDF"/>
</linearGradient>
<linearGradient id="paint1_linear_1754_10912" x1="49.817" y1="49.3551" x2="9.70246" y2="49.3551" gradientUnits="userSpaceOnUse">
<stop stop-color="#280F44"/>
<stop offset="1" stop-color="#8A3EDF"/>
</linearGradient>
<linearGradient id="paint2_linear_1754_10912" x1="49.817" y1="49.3551" x2="9.70246" y2="49.3551" gradientUnits="userSpaceOnUse">
<stop stop-color="#280F44"/>
<stop offset="1" stop-color="#8A3EDF"/>
</linearGradient>
<radialGradient id="paint3_radial_1754_10912" cx="0" cy="0" r="1" gradientUnits="userSpaceOnUse" gradientTransform="translate(22.2859 22.2859) rotate(-132.581) scale(42.0271 32.6028)">
<stop stop-color="white"/>
<stop offset="1" stop-color="white" stop-opacity="0"/>
</radialGradient>
<radialGradient id="paint4_radial_1754_10912" cx="0" cy="0" r="1" gradientUnits="userSpaceOnUse" gradientTransform="translate(22.2859 22.2859) rotate(40.6798) scale(35.2641 25.3306)">
<stop stop-color="#6356FE"/>
<stop offset="1" stop-color="#A330CB" stop-opacity="0.12"/>
</radialGradient>
<radialGradient id="paint5_radial_1754_10912" cx="0" cy="0" r="1" gradientUnits="userSpaceOnUse" gradientTransform="translate(22.2859 22.2859) rotate(135.957) scale(33.98 25.3806)">
<stop stop-color="#151515"/>
<stop offset="1" stop-color="#151515" stop-opacity="0"/>
</radialGradient>
<linearGradient id="paint6_linear_1754_10912" x1="49.2599" y1="48.798" x2="2.86433" y2="50.651" gradientUnits="userSpaceOnUse">
<stop stop-color="#280F44"/>
<stop offset="1" stop-color="#8A3EDF"/>
</linearGradient>
<radialGradient id="paint7_radial_1754_10912" cx="0" cy="0" r="1" gradientUnits="userSpaceOnUse" gradientTransform="translate(22.2859 22.2859) rotate(-132.581) scale(42.0271 32.6028)">
<stop stop-color="white"/>
<stop offset="1" stop-color="white" stop-opacity="0"/>
</radialGradient>
<radialGradient id="paint8_radial_1754_10912" cx="0" cy="0" r="1" gradientUnits="userSpaceOnUse" gradientTransform="translate(22.2859 22.2859) rotate(40.6798) scale(35.2641 25.3306)">
<stop stop-color="#6356FE"/>
<stop offset="1" stop-color="#A330CB" stop-opacity="0.12"/>
</radialGradient>
<radialGradient id="paint9_radial_1754_10912" cx="0" cy="0" r="1" gradientUnits="userSpaceOnUse" gradientTransform="translate(22.2859 22.2859) rotate(135.957) scale(33.98 25.3806)">
<stop stop-color="#151515"/>
<stop offset="1" stop-color="#151515" stop-opacity="0"/>
</radialGradient>
<linearGradient id="paint10_linear_1754_10912" x1="48.1456" y1="47.6837" x2="2.86419" y2="49.5349" gradientUnits="userSpaceOnUse">
<stop stop-color="#280F44"/>
<stop offset="1" stop-color="#8A3EDF"/>
</linearGradient>
<radialGradient id="paint11_radial_1754_10912" cx="0" cy="0" r="1" gradientUnits="userSpaceOnUse" gradientTransform="translate(22.2859 22.2859) rotate(-132.581) scale(42.0271 32.6028)">
<stop stop-color="white"/>
<stop offset="1" stop-color="white" stop-opacity="0"/>
</radialGradient>
<radialGradient id="paint12_radial_1754_10912" cx="0" cy="0" r="1" gradientUnits="userSpaceOnUse" gradientTransform="translate(22.2859 22.2859) rotate(40.6798) scale(35.2641 25.3306)">
<stop stop-color="#6356FE"/>
<stop offset="1" stop-color="#A330CB" stop-opacity="0.12"/>
</radialGradient>
<radialGradient id="paint13_radial_1754_10912" cx="0" cy="0" r="1" gradientUnits="userSpaceOnUse" gradientTransform="translate(22.2859 22.2859) rotate(135.957) scale(33.98 25.3806)">
<stop stop-color="#151515"/>
<stop offset="1" stop-color="#151515" stop-opacity="0"/>
</radialGradient>
<linearGradient id="paint14_linear_1754_10912" x1="49.1737" y1="49.9984" x2="1.58062" y2="50.6332" gradientUnits="userSpaceOnUse">
<stop stop-color="#280F44"/>
<stop offset="1" stop-color="#8A3EDF"/>
</linearGradient>
<radialGradient id="paint15_radial_1754_10912" cx="0" cy="0" r="1" gradientUnits="userSpaceOnUse" gradientTransform="translate(22.2859 22.2859) rotate(-132.581) scale(42.0271 32.6028)">
<stop stop-color="white"/>
<stop offset="1" stop-color="white" stop-opacity="0"/>
</radialGradient>
<radialGradient id="paint16_radial_1754_10912" cx="0" cy="0" r="1" gradientUnits="userSpaceOnUse" gradientTransform="translate(22.2859 22.2859) rotate(40.6798) scale(35.2641 25.3306)">
<stop stop-color="#6356FE"/>
<stop offset="1" stop-color="#A330CB" stop-opacity="0.12"/>
</radialGradient>
<radialGradient id="paint17_radial_1754_10912" cx="0" cy="0" r="1" gradientUnits="userSpaceOnUse" gradientTransform="translate(22.2859 22.2859) rotate(135.957) scale(33.98 25.3806)">
<stop stop-color="#151515"/>
<stop offset="1" stop-color="#151515" stop-opacity="0"/>
</radialGradient>
<linearGradient id="paint18_linear_1754_10912" x1="44.8027" y1="44.3408" x2="-0.00464337" y2="44.975" gradientUnits="userSpaceOnUse">
<stop stop-color="#280F44"/>
<stop offset="1" stop-color="#8A3EDF"/>
</linearGradient>
<radialGradient id="paint19_radial_1754_10912" cx="0" cy="0" r="1" gradientUnits="userSpaceOnUse" gradientTransform="translate(22.2859 22.2859) rotate(-132.581) scale(42.0271 32.6028)">
<stop stop-color="white"/>
<stop offset="1" stop-color="white" stop-opacity="0"/>
</radialGradient>
<radialGradient id="paint20_radial_1754_10912" cx="0" cy="0" r="1" gradientUnits="userSpaceOnUse" gradientTransform="translate(22.2859 22.2859) rotate(40.6798) scale(35.2641 25.3306)">
<stop stop-color="#6356FE"/>
<stop offset="1" stop-color="#A330CB" stop-opacity="0.12"/>
</radialGradient>
<radialGradient id="paint21_radial_1754_10912" cx="0" cy="0" r="1" gradientUnits="userSpaceOnUse" gradientTransform="translate(22.2859 22.2859) rotate(135.957) scale(33.98 25.3806)">
<stop stop-color="#151515"/>
<stop offset="1" stop-color="#151515" stop-opacity="0"/>
</radialGradient>
<linearGradient id="paint22_linear_1754_10912" x1="0" y1="0" x2="104.432" y2="29.1689" gradientUnits="userSpaceOnUse">
<stop stop-color="white"/>
<stop offset="1" stop-color="white" stop-opacity="0"/>
</linearGradient>
<clipPath id="clip0_1754_10912">
<rect width="88" height="88" rx="14.08" fill="white"/>
</clipPath>
</defs>
</svg>
