<svg width="92" height="92" viewBox="0 0 92 92" fill="none" xmlns="http://www.w3.org/2000/svg">
<g filter="url(#filter0_d_1754_10928)">
<g clip-path="url(#clip0_1754_10928)">
<rect width="92" height="92" rx="14.72" fill="#1E1E20" shape-rendering="crispEdges"/>
<g filter="url(#filter1_b_1754_10928)">
<g filter="url(#filter2_b_1754_10928)">
<g opacity="0.32">
<mask id="path-3-outside-1_1754_10928" maskUnits="userSpaceOnUse" x="-2.96905" y="5.90869" width="32.909" height="57" fill="black">
<rect fill="white" x="-2.96905" y="5.90869" width="32.909" height="57"/>
<path d="M-2.10303 9.92659C-2.10303 8.53599 -1.12676 7.97234 0.0775334 8.66764L27.698 24.6143C28.9023 25.3096 29.8785 27.0006 29.8785 28.3911L29.8785 60.2845C29.8785 61.6751 28.9023 62.2387 27.698 61.5434L0.0775343 45.5968C-1.12676 44.9015 -2.10303 43.2105 -2.10303 41.8199L-2.10303 9.92659Z"/>
</mask>
<path d="M-2.10303 9.92659C-2.10303 8.53599 -1.12676 7.97234 0.0775334 8.66764L27.698 24.6143C28.9023 25.3096 29.8785 27.0006 29.8785 28.3911L29.8785 60.2845C29.8785 61.6751 28.9023 62.2387 27.698 61.5434L0.0775343 45.5968C-1.12676 44.9015 -2.10303 43.2105 -2.10303 41.8199L-2.10303 9.92659Z" fill="url(#paint0_linear_1754_10928)"/>
<path d="M-2.63605 9.61884C-2.63605 7.88833 -1.42114 7.18689 0.0775334 8.05215L27.1649 23.6911C28.6636 24.5563 29.8785 26.6606 29.8785 28.3911C29.8785 27.3405 28.9023 25.9251 27.698 25.2298L0.0775334 9.28312C-0.832375 8.75779 -1.57 9.18366 -1.57 10.2343L-2.63605 9.61884ZM29.8785 62.8024L-2.10303 44.3378L29.8785 62.8024ZM0.0775326 45.5968C-1.42114 44.7315 -2.63605 42.6272 -2.63605 40.8967L-2.63605 9.61884C-2.63605 7.88833 -1.42114 7.18689 0.0775334 8.05215L0.0775334 9.28312C-0.832375 8.75779 -1.57 9.18366 -1.57 10.2343L-1.57 42.1277C-1.57 43.5183 -0.832376 45.0714 0.0775326 45.5968ZM29.8785 25.8733L29.8785 62.8024L29.8785 25.8733Z" fill="url(#paint1_radial_1754_10928)" mask="url(#path-3-outside-1_1754_10928)"/>
<path d="M-2.63605 9.61884C-2.63605 7.88833 -1.42114 7.18689 0.0775334 8.05215L27.1649 23.6911C28.6636 24.5563 29.8785 26.6606 29.8785 28.3911C29.8785 27.3405 28.9023 25.9251 27.698 25.2298L0.0775334 9.28312C-0.832375 8.75779 -1.57 9.18366 -1.57 10.2343L-2.63605 9.61884ZM29.8785 62.8024L-2.10303 44.3378L29.8785 62.8024ZM0.0775326 45.5968C-1.42114 44.7315 -2.63605 42.6272 -2.63605 40.8967L-2.63605 9.61884C-2.63605 7.88833 -1.42114 7.18689 0.0775334 8.05215L0.0775334 9.28312C-0.832375 8.75779 -1.57 9.18366 -1.57 10.2343L-1.57 42.1277C-1.57 43.5183 -0.832376 45.0714 0.0775326 45.5968ZM29.8785 25.8733L29.8785 62.8024L29.8785 25.8733Z" fill="url(#paint2_radial_1754_10928)" mask="url(#path-3-outside-1_1754_10928)"/>
<path d="M-2.63605 9.61884C-2.63605 7.88833 -1.42114 7.18689 0.0775334 8.05215L27.1649 23.6911C28.6636 24.5563 29.8785 26.6606 29.8785 28.3911C29.8785 27.3405 28.9023 25.9251 27.698 25.2298L0.0775334 9.28312C-0.832375 8.75779 -1.57 9.18366 -1.57 10.2343L-2.63605 9.61884ZM29.8785 62.8024L-2.10303 44.3378L29.8785 62.8024ZM0.0775326 45.5968C-1.42114 44.7315 -2.63605 42.6272 -2.63605 40.8967L-2.63605 9.61884C-2.63605 7.88833 -1.42114 7.18689 0.0775334 8.05215L0.0775334 9.28312C-0.832375 8.75779 -1.57 9.18366 -1.57 10.2343L-1.57 42.1277C-1.57 43.5183 -0.832376 45.0714 0.0775326 45.5968ZM29.8785 25.8733L29.8785 62.8024L29.8785 25.8733Z" fill="url(#paint3_radial_1754_10928)" mask="url(#path-3-outside-1_1754_10928)"/>
</g>
</g>
<g filter="url(#filter3_b_1754_10928)">
<g opacity="0.32">
<mask id="path-5-outside-2_1754_10928" maskUnits="userSpaceOnUse" x="29.8182" y="6.40845" width="32.0429" height="56.5" fill="black">
<rect fill="white" x="29.8182" y="6.40845" width="32.0429" height="56.5"/>
<path d="M61.8611 9.92634C61.8611 8.53575 60.8849 7.9721 59.6806 8.66739L32.0602 24.6141C30.8559 25.3094 29.8796 27.0003 29.8796 28.3909L29.8796 60.2842C29.8796 61.6748 30.8559 62.2385 32.0601 61.5432L59.6806 45.5965C60.8849 44.9012 61.8611 43.2103 61.8611 41.8197L61.8611 9.92634Z"/>
</mask>
<path d="M61.8611 9.92634C61.8611 8.53575 60.8849 7.9721 59.6806 8.66739L32.0602 24.6141C30.8559 25.3094 29.8796 27.0003 29.8796 28.3909L29.8796 60.2842C29.8796 61.6748 30.8559 62.2385 32.0601 61.5432L59.6806 45.5965C60.8849 44.9012 61.8611 43.2103 61.8611 41.8197L61.8611 9.92634Z" fill="url(#paint4_linear_1754_10928)"/>
<path d="M61.8611 9.92634C61.8611 8.19582 60.6462 7.49439 59.1476 8.35965L32.5932 23.6908C31.0945 24.5561 29.8796 26.6604 29.8796 28.3909C29.8796 27.3402 30.8559 25.9248 32.0601 25.2295L59.6806 9.28288C60.8849 8.58758 61.8611 8.87567 61.8611 9.92634ZM29.8796 62.8021L61.8611 44.3376L29.8796 62.8021ZM61.8611 44.3376L61.8611 7.40845L61.8611 44.3376ZM29.8796 25.873L29.8796 62.8021L29.8796 25.873Z" fill="url(#paint5_radial_1754_10928)" mask="url(#path-5-outside-2_1754_10928)"/>
<path d="M61.8611 9.92634C61.8611 8.19582 60.6462 7.49439 59.1476 8.35965L32.5932 23.6908C31.0945 24.5561 29.8796 26.6604 29.8796 28.3909C29.8796 27.3402 30.8559 25.9248 32.0601 25.2295L59.6806 9.28288C60.8849 8.58758 61.8611 8.87567 61.8611 9.92634ZM29.8796 62.8021L61.8611 44.3376L29.8796 62.8021ZM61.8611 44.3376L61.8611 7.40845L61.8611 44.3376ZM29.8796 25.873L29.8796 62.8021L29.8796 25.873Z" fill="url(#paint6_radial_1754_10928)" mask="url(#path-5-outside-2_1754_10928)"/>
<path d="M61.8611 9.92634C61.8611 8.19582 60.6462 7.49439 59.1476 8.35965L32.5932 23.6908C31.0945 24.5561 29.8796 26.6604 29.8796 28.3909C29.8796 27.3402 30.8559 25.9248 32.0601 25.2295L59.6806 9.28288C60.8849 8.58758 61.8611 8.87567 61.8611 9.92634ZM29.8796 62.8021L61.8611 44.3376L29.8796 62.8021ZM61.8611 44.3376L61.8611 7.40845L61.8611 44.3376ZM29.8796 25.873L29.8796 62.8021L29.8796 25.873Z" fill="url(#paint7_radial_1754_10928)" mask="url(#path-5-outside-2_1754_10928)"/>
</g>
</g>
<g filter="url(#filter4_b_1754_10928)">
<g opacity="0.32">
<mask id="path-7-outside-3_1754_10928" maskUnits="userSpaceOnUse" x="61.8611" y="6.40845" width="32.909" height="57" fill="black">
<rect fill="white" x="61.8611" y="6.40845" width="32.909" height="57"/>
<path d="M61.8611 9.92634C61.8611 8.53575 62.8374 7.9721 64.0417 8.66739L91.6621 24.6141C92.8664 25.3094 93.8427 27.0003 93.8427 28.3909L93.8427 60.2842C93.8427 61.6748 92.8664 62.2385 91.6621 61.5432L64.0417 45.5965C62.8374 44.9012 61.8611 43.2103 61.8611 41.8197L61.8611 9.92634Z"/>
</mask>
<path d="M61.8611 9.92634C61.8611 8.53575 62.8374 7.9721 64.0417 8.66739L91.6621 24.6141C92.8664 25.3094 93.8427 27.0003 93.8427 28.3909L93.8427 60.2842C93.8427 61.6748 92.8664 62.2385 91.6621 61.5432L64.0417 45.5965C62.8374 44.9012 61.8611 43.2103 61.8611 41.8197L61.8611 9.92634Z" fill="url(#paint8_linear_1754_10928)"/>
<path d="M61.8611 9.92634C61.8611 8.19582 63.0761 7.49439 64.5747 8.35965L91.6621 23.9986C93.1608 24.8638 94.3757 26.9681 94.3757 28.6986L93.3097 28.0832C93.3097 27.0325 92.572 25.7549 91.6621 25.2295L64.0417 9.28288C62.8374 8.58758 61.8611 8.87567 61.8611 9.92634ZM93.8427 62.8021L61.8611 44.3376L93.8427 62.8021ZM61.8611 44.3376L61.8611 7.40845L61.8611 44.3376ZM91.6621 23.9986C93.1608 24.8638 94.3757 26.9681 94.3757 28.6986L94.3757 59.9765C94.3757 61.707 93.1608 62.4084 91.6621 61.5432C92.572 62.0685 93.3097 61.3671 93.3097 59.9765L93.3097 28.0832C93.3097 27.0325 92.572 25.7549 91.6621 25.2295L91.6621 23.9986Z" fill="url(#paint9_radial_1754_10928)" mask="url(#path-7-outside-3_1754_10928)"/>
<path d="M61.8611 9.92634C61.8611 8.19582 63.0761 7.49439 64.5747 8.35965L91.6621 23.9986C93.1608 24.8638 94.3757 26.9681 94.3757 28.6986L93.3097 28.0832C93.3097 27.0325 92.572 25.7549 91.6621 25.2295L64.0417 9.28288C62.8374 8.58758 61.8611 8.87567 61.8611 9.92634ZM93.8427 62.8021L61.8611 44.3376L93.8427 62.8021ZM61.8611 44.3376L61.8611 7.40845L61.8611 44.3376ZM91.6621 23.9986C93.1608 24.8638 94.3757 26.9681 94.3757 28.6986L94.3757 59.9765C94.3757 61.707 93.1608 62.4084 91.6621 61.5432C92.572 62.0685 93.3097 61.3671 93.3097 59.9765L93.3097 28.0832C93.3097 27.0325 92.572 25.7549 91.6621 25.2295L91.6621 23.9986Z" fill="url(#paint10_radial_1754_10928)" mask="url(#path-7-outside-3_1754_10928)"/>
<path d="M61.8611 9.92634C61.8611 8.19582 63.0761 7.49439 64.5747 8.35965L91.6621 23.9986C93.1608 24.8638 94.3757 26.9681 94.3757 28.6986L93.3097 28.0832C93.3097 27.0325 92.572 25.7549 91.6621 25.2295L64.0417 9.28288C62.8374 8.58758 61.8611 8.87567 61.8611 9.92634ZM93.8427 62.8021L61.8611 44.3376L93.8427 62.8021ZM61.8611 44.3376L61.8611 7.40845L61.8611 44.3376ZM91.6621 23.9986C93.1608 24.8638 94.3757 26.9681 94.3757 28.6986L94.3757 59.9765C94.3757 61.707 93.1608 62.4084 91.6621 61.5432C92.572 62.0685 93.3097 61.3671 93.3097 59.9765L93.3097 28.0832C93.3097 27.0325 92.572 25.7549 91.6621 25.2295L91.6621 23.9986Z" fill="url(#paint11_radial_1754_10928)" mask="url(#path-7-outside-3_1754_10928)"/>
</g>
</g>
</g>
<g filter="url(#filter5_b_1754_10928)">
<g filter="url(#filter6_b_1754_10928)">
<g opacity="0.6">
<mask id="path-9-outside-4_1754_10928" maskUnits="userSpaceOnUse" x="-2.96915" y="33.6052" width="32.909" height="57" fill="black">
<rect fill="white" x="-2.96915" y="33.6052" width="32.909" height="57"/>
<path d="M-2.10312 37.6231C-2.10312 36.2325 -1.12685 35.6689 0.0774419 36.3642L27.6979 52.3108C28.9022 53.0061 29.8784 54.6971 29.8784 56.0877L29.8784 87.981C29.8784 89.3716 28.9022 89.9353 27.6979 89.24L0.0774427 73.2933C-1.12685 72.598 -2.10312 70.907 -2.10312 69.5165L-2.10312 37.6231Z"/>
</mask>
<path d="M-2.10312 37.6231C-2.10312 36.2325 -1.12685 35.6689 0.0774419 36.3642L27.6979 52.3108C28.9022 53.0061 29.8784 54.6971 29.8784 56.0877L29.8784 87.981C29.8784 89.3716 28.9022 89.9353 27.6979 89.24L0.0774427 73.2933C-1.12685 72.598 -2.10312 70.907 -2.10312 69.5165L-2.10312 37.6231Z" fill="url(#paint12_linear_1754_10928)"/>
<path d="M-2.63614 37.3154C-2.63614 35.5849 -1.42123 34.8834 0.0774419 35.7487L27.1649 51.3876C28.6635 52.2529 29.8784 54.3572 29.8784 56.0877C29.8784 55.037 28.9022 53.6216 27.6979 52.9263L0.0774419 36.9797C-0.832467 36.4543 -1.57009 36.8802 -1.57009 37.9309L-2.63614 37.3154ZM29.8784 90.4989L-2.10312 72.0343L29.8784 90.4989ZM0.0774411 73.2933C-1.42123 72.428 -2.63615 70.3237 -2.63615 68.5932L-2.63614 37.3154C-2.63614 35.5849 -1.42123 34.8834 0.0774419 35.7487L0.0774419 36.9797C-0.832467 36.4543 -1.57009 36.8802 -1.57009 37.9309L-1.57009 69.8242C-1.57009 71.2148 -0.832467 72.768 0.0774411 73.2933ZM29.8784 53.5698L29.8784 90.4989L29.8784 53.5698Z" fill="url(#paint13_radial_1754_10928)" mask="url(#path-9-outside-4_1754_10928)"/>
<path d="M-2.63614 37.3154C-2.63614 35.5849 -1.42123 34.8834 0.0774419 35.7487L27.1649 51.3876C28.6635 52.2529 29.8784 54.3572 29.8784 56.0877C29.8784 55.037 28.9022 53.6216 27.6979 52.9263L0.0774419 36.9797C-0.832467 36.4543 -1.57009 36.8802 -1.57009 37.9309L-2.63614 37.3154ZM29.8784 90.4989L-2.10312 72.0343L29.8784 90.4989ZM0.0774411 73.2933C-1.42123 72.428 -2.63615 70.3237 -2.63615 68.5932L-2.63614 37.3154C-2.63614 35.5849 -1.42123 34.8834 0.0774419 35.7487L0.0774419 36.9797C-0.832467 36.4543 -1.57009 36.8802 -1.57009 37.9309L-1.57009 69.8242C-1.57009 71.2148 -0.832467 72.768 0.0774411 73.2933ZM29.8784 53.5698L29.8784 90.4989L29.8784 53.5698Z" fill="url(#paint14_radial_1754_10928)" mask="url(#path-9-outside-4_1754_10928)"/>
<path d="M-2.63614 37.3154C-2.63614 35.5849 -1.42123 34.8834 0.0774419 35.7487L27.1649 51.3876C28.6635 52.2529 29.8784 54.3572 29.8784 56.0877C29.8784 55.037 28.9022 53.6216 27.6979 52.9263L0.0774419 36.9797C-0.832467 36.4543 -1.57009 36.8802 -1.57009 37.9309L-2.63614 37.3154ZM29.8784 90.4989L-2.10312 72.0343L29.8784 90.4989ZM0.0774411 73.2933C-1.42123 72.428 -2.63615 70.3237 -2.63615 68.5932L-2.63614 37.3154C-2.63614 35.5849 -1.42123 34.8834 0.0774419 35.7487L0.0774419 36.9797C-0.832467 36.4543 -1.57009 36.8802 -1.57009 37.9309L-1.57009 69.8242C-1.57009 71.2148 -0.832467 72.768 0.0774411 73.2933ZM29.8784 53.5698L29.8784 90.4989L29.8784 53.5698Z" fill="url(#paint15_radial_1754_10928)" mask="url(#path-9-outside-4_1754_10928)"/>
</g>
</g>
<g filter="url(#filter7_b_1754_10928)">
<g opacity="0.6">
<mask id="path-11-outside-5_1754_10928" maskUnits="userSpaceOnUse" x="29.8181" y="34.1052" width="32.0429" height="56.5" fill="black">
<rect fill="white" x="29.8181" y="34.1052" width="32.0429" height="56.5"/>
<path d="M61.8611 37.6231C61.8611 36.2325 60.8848 35.6689 59.6805 36.3642L32.0601 52.3108C30.8558 53.0061 29.8795 54.6971 29.8795 56.0877L29.8795 87.981C29.8795 89.3716 30.8558 89.9353 32.0601 89.24L59.6805 73.2933C60.8848 72.598 61.8611 70.907 61.8611 69.5165L61.8611 37.6231Z"/>
</mask>
<path d="M61.8611 37.6231C61.8611 36.2325 60.8848 35.6689 59.6805 36.3642L32.0601 52.3108C30.8558 53.0061 29.8795 54.6971 29.8795 56.0877L29.8795 87.981C29.8795 89.3716 30.8558 89.9353 32.0601 89.24L59.6805 73.2933C60.8848 72.598 61.8611 70.907 61.8611 69.5165L61.8611 37.6231Z" fill="url(#paint16_linear_1754_10928)"/>
<path d="M61.8611 37.6231C61.8611 35.8926 60.6461 35.1912 59.1475 36.0564L32.5931 51.3876C31.0944 52.2529 29.8795 54.3572 29.8795 56.0877C29.8795 55.037 30.8558 53.6216 32.0601 52.9263L59.6805 36.9797C60.8848 36.2844 61.8611 36.5724 61.8611 37.6231ZM29.8795 90.4989L61.8611 72.0343L29.8795 90.4989ZM61.8611 72.0343L61.8611 35.1052L61.8611 72.0343ZM29.8795 53.5698L29.8795 90.4989L29.8795 53.5698Z" fill="url(#paint17_radial_1754_10928)" mask="url(#path-11-outside-5_1754_10928)"/>
<path d="M61.8611 37.6231C61.8611 35.8926 60.6461 35.1912 59.1475 36.0564L32.5931 51.3876C31.0944 52.2529 29.8795 54.3572 29.8795 56.0877C29.8795 55.037 30.8558 53.6216 32.0601 52.9263L59.6805 36.9797C60.8848 36.2844 61.8611 36.5724 61.8611 37.6231ZM29.8795 90.4989L61.8611 72.0343L29.8795 90.4989ZM61.8611 72.0343L61.8611 35.1052L61.8611 72.0343ZM29.8795 53.5698L29.8795 90.4989L29.8795 53.5698Z" fill="url(#paint18_radial_1754_10928)" mask="url(#path-11-outside-5_1754_10928)"/>
<path d="M61.8611 37.6231C61.8611 35.8926 60.6461 35.1912 59.1475 36.0564L32.5931 51.3876C31.0944 52.2529 29.8795 54.3572 29.8795 56.0877C29.8795 55.037 30.8558 53.6216 32.0601 52.9263L59.6805 36.9797C60.8848 36.2844 61.8611 36.5724 61.8611 37.6231ZM29.8795 90.4989L61.8611 72.0343L29.8795 90.4989ZM61.8611 72.0343L61.8611 35.1052L61.8611 72.0343ZM29.8795 53.5698L29.8795 90.4989L29.8795 53.5698Z" fill="url(#paint19_radial_1754_10928)" mask="url(#path-11-outside-5_1754_10928)"/>
</g>
</g>
<g filter="url(#filter8_b_1754_10928)">
<g opacity="0.6">
<mask id="path-13-outside-6_1754_10928" maskUnits="userSpaceOnUse" x="61.8608" y="34.1052" width="32.909" height="57" fill="black">
<rect fill="white" x="61.8608" y="34.1052" width="32.909" height="57"/>
<path d="M61.8608 37.6231C61.8608 36.2325 62.8371 35.6689 64.0414 36.3642L91.6618 52.3108C92.8661 53.0061 93.8424 54.6971 93.8424 56.0877L93.8424 87.981C93.8424 89.3716 92.8661 89.9353 91.6618 89.24L64.0414 73.2933C62.8371 72.598 61.8608 70.907 61.8608 69.5165L61.8608 37.6231Z"/>
</mask>
<path d="M61.8608 37.6231C61.8608 36.2325 62.8371 35.6689 64.0414 36.3642L91.6618 52.3108C92.8661 53.0061 93.8424 54.6971 93.8424 56.0877L93.8424 87.981C93.8424 89.3716 92.8661 89.9353 91.6618 89.24L64.0414 73.2933C62.8371 72.598 61.8608 70.907 61.8608 69.5165L61.8608 37.6231Z" fill="url(#paint20_linear_1754_10928)"/>
<path d="M61.8608 37.6231C61.8608 35.8926 63.0758 35.1912 64.5744 36.0564L91.6618 51.6954C93.1605 52.5606 94.3754 54.6649 94.3754 56.3954L93.3094 55.7799C93.3094 54.7293 92.5717 53.4517 91.6618 52.9263L64.0414 36.9797C62.8371 36.2844 61.8608 36.5724 61.8608 37.6231ZM93.8424 90.4989L61.8608 72.0343L93.8424 90.4989ZM61.8608 72.0343L61.8608 35.1052L61.8608 72.0343ZM91.6618 51.6954C93.1605 52.5606 94.3754 54.6649 94.3754 56.3954L94.3754 87.6733C94.3754 89.4038 93.1605 90.1052 91.6618 89.24C92.5717 89.7653 93.3094 89.0639 93.3094 87.6733L93.3094 55.7799C93.3094 54.7293 92.5717 53.4517 91.6618 52.9263L91.6618 51.6954Z" fill="url(#paint21_radial_1754_10928)" mask="url(#path-13-outside-6_1754_10928)"/>
<path d="M61.8608 37.6231C61.8608 35.8926 63.0758 35.1912 64.5744 36.0564L91.6618 51.6954C93.1605 52.5606 94.3754 54.6649 94.3754 56.3954L93.3094 55.7799C93.3094 54.7293 92.5717 53.4517 91.6618 52.9263L64.0414 36.9797C62.8371 36.2844 61.8608 36.5724 61.8608 37.6231ZM93.8424 90.4989L61.8608 72.0343L93.8424 90.4989ZM61.8608 72.0343L61.8608 35.1052L61.8608 72.0343ZM91.6618 51.6954C93.1605 52.5606 94.3754 54.6649 94.3754 56.3954L94.3754 87.6733C94.3754 89.4038 93.1605 90.1052 91.6618 89.24C92.5717 89.7653 93.3094 89.0639 93.3094 87.6733L93.3094 55.7799C93.3094 54.7293 92.5717 53.4517 91.6618 52.9263L91.6618 51.6954Z" fill="url(#paint22_radial_1754_10928)" mask="url(#path-13-outside-6_1754_10928)"/>
<path d="M61.8608 37.6231C61.8608 35.8926 63.0758 35.1912 64.5744 36.0564L91.6618 51.6954C93.1605 52.5606 94.3754 54.6649 94.3754 56.3954L93.3094 55.7799C93.3094 54.7293 92.5717 53.4517 91.6618 52.9263L64.0414 36.9797C62.8371 36.2844 61.8608 36.5724 61.8608 37.6231ZM93.8424 90.4989L61.8608 72.0343L93.8424 90.4989ZM61.8608 72.0343L61.8608 35.1052L61.8608 72.0343ZM91.6618 51.6954C93.1605 52.5606 94.3754 54.6649 94.3754 56.3954L94.3754 87.6733C94.3754 89.4038 93.1605 90.1052 91.6618 89.24C92.5717 89.7653 93.3094 89.0639 93.3094 87.6733L93.3094 55.7799C93.3094 54.7293 92.5717 53.4517 91.6618 52.9263L91.6618 51.6954Z" fill="url(#paint23_radial_1754_10928)" mask="url(#path-13-outside-6_1754_10928)"/>
</g>
</g>
</g>
<g filter="url(#filter9_b_1754_10928)">
<g filter="url(#filter10_b_1754_10928)">
<mask id="path-15-outside-7_1754_10928" maskUnits="userSpaceOnUse" x="-2.96915" y="61.3022" width="32.909" height="58" fill="black">
<rect fill="white" x="-2.96915" y="61.3022" width="32.909" height="58"/>
<path d="M-2.10312 65.3201C-2.10312 63.9295 -1.12685 63.3659 0.0774419 64.0612L27.6979 80.0079C28.9022 80.7032 29.8784 82.3941 29.8784 83.7847L29.8784 115.678C29.8784 117.069 28.9022 117.632 27.6979 116.937L0.0774427 100.99C-1.12685 100.295 -2.10312 98.6041 -2.10312 97.2135L-2.10312 65.3201Z"/>
</mask>
<path d="M-2.10312 65.3201C-2.10312 63.9295 -1.12685 63.3659 0.0774419 64.0612L27.6979 80.0079C28.9022 80.7032 29.8784 82.3941 29.8784 83.7847L29.8784 115.678C29.8784 117.069 28.9022 117.632 27.6979 116.937L0.0774427 100.99C-1.12685 100.295 -2.10312 98.6041 -2.10312 97.2135L-2.10312 65.3201Z" fill="url(#paint24_linear_1754_10928)"/>
<path d="M-2.63614 65.0124C-2.63614 63.2819 -1.42123 62.5804 0.0774419 63.4457L27.1649 79.0846C28.6635 79.9499 29.8784 82.0542 29.8784 83.7847C29.8784 82.734 28.9022 81.3186 27.6979 80.6233L0.0774419 64.6767C-0.832467 64.1513 -1.57009 64.5772 -1.57009 65.6279L-2.63614 65.0124ZM29.8784 115.678C29.8784 117.409 28.6635 118.11 27.1649 117.245L0.0774411 101.606C-1.42123 100.741 -2.63615 98.6362 -2.63615 96.9057L-1.57009 97.5212C-1.57009 98.5719 -0.832467 99.8495 0.0774411 100.375L27.6979 116.321C28.9022 117.017 29.8784 116.729 29.8784 115.678ZM0.0774411 101.606C-1.42123 100.741 -2.63615 98.6362 -2.63615 96.9057L-2.63614 65.0124C-2.63614 63.2819 -1.42123 62.5804 0.0774419 63.4457L0.0774419 64.6767C-0.832467 64.1513 -1.57009 64.5772 -1.57009 65.6279L-1.57009 97.5212C-1.57009 98.5719 -0.832467 99.8495 0.0774411 100.375L0.0774411 101.606ZM29.8784 81.2668L29.8784 118.196L29.8784 81.2668Z" fill="url(#paint25_radial_1754_10928)" mask="url(#path-15-outside-7_1754_10928)"/>
<path d="M-2.63614 65.0124C-2.63614 63.2819 -1.42123 62.5804 0.0774419 63.4457L27.1649 79.0846C28.6635 79.9499 29.8784 82.0542 29.8784 83.7847C29.8784 82.734 28.9022 81.3186 27.6979 80.6233L0.0774419 64.6767C-0.832467 64.1513 -1.57009 64.5772 -1.57009 65.6279L-2.63614 65.0124ZM29.8784 115.678C29.8784 117.409 28.6635 118.11 27.1649 117.245L0.0774411 101.606C-1.42123 100.741 -2.63615 98.6362 -2.63615 96.9057L-1.57009 97.5212C-1.57009 98.5719 -0.832467 99.8495 0.0774411 100.375L27.6979 116.321C28.9022 117.017 29.8784 116.729 29.8784 115.678ZM0.0774411 101.606C-1.42123 100.741 -2.63615 98.6362 -2.63615 96.9057L-2.63614 65.0124C-2.63614 63.2819 -1.42123 62.5804 0.0774419 63.4457L0.0774419 64.6767C-0.832467 64.1513 -1.57009 64.5772 -1.57009 65.6279L-1.57009 97.5212C-1.57009 98.5719 -0.832467 99.8495 0.0774411 100.375L0.0774411 101.606ZM29.8784 81.2668L29.8784 118.196L29.8784 81.2668Z" fill="url(#paint26_radial_1754_10928)" mask="url(#path-15-outside-7_1754_10928)"/>
<path d="M-2.63614 65.0124C-2.63614 63.2819 -1.42123 62.5804 0.0774419 63.4457L27.1649 79.0846C28.6635 79.9499 29.8784 82.0542 29.8784 83.7847C29.8784 82.734 28.9022 81.3186 27.6979 80.6233L0.0774419 64.6767C-0.832467 64.1513 -1.57009 64.5772 -1.57009 65.6279L-2.63614 65.0124ZM29.8784 115.678C29.8784 117.409 28.6635 118.11 27.1649 117.245L0.0774411 101.606C-1.42123 100.741 -2.63615 98.6362 -2.63615 96.9057L-1.57009 97.5212C-1.57009 98.5719 -0.832467 99.8495 0.0774411 100.375L27.6979 116.321C28.9022 117.017 29.8784 116.729 29.8784 115.678ZM0.0774411 101.606C-1.42123 100.741 -2.63615 98.6362 -2.63615 96.9057L-2.63614 65.0124C-2.63614 63.2819 -1.42123 62.5804 0.0774419 63.4457L0.0774419 64.6767C-0.832467 64.1513 -1.57009 64.5772 -1.57009 65.6279L-1.57009 97.5212C-1.57009 98.5719 -0.832467 99.8495 0.0774411 100.375L0.0774411 101.606ZM29.8784 81.2668L29.8784 118.196L29.8784 81.2668Z" fill="url(#paint27_radial_1754_10928)" mask="url(#path-15-outside-7_1754_10928)"/>
</g>
<g filter="url(#filter11_b_1754_10928)">
<mask id="path-17-outside-8_1754_10928" maskUnits="userSpaceOnUse" x="29.8181" y="61.8022" width="32.0429" height="57.5" fill="black">
<rect fill="white" x="29.8181" y="61.8022" width="32.0429" height="57.5"/>
<path d="M61.8611 65.3201C61.8611 63.9295 60.8848 63.3659 59.6805 64.0612L32.0601 80.0079C30.8558 80.7032 29.8795 82.3941 29.8795 83.7847L29.8795 115.678C29.8795 117.069 30.8558 117.632 32.0601 116.937L59.6805 100.99C60.8848 100.295 61.8611 98.6041 61.8611 97.2135L61.8611 65.3201Z"/>
</mask>
<path d="M61.8611 65.3201C61.8611 63.9295 60.8848 63.3659 59.6805 64.0612L32.0601 80.0079C30.8558 80.7032 29.8795 82.3941 29.8795 83.7847L29.8795 115.678C29.8795 117.069 30.8558 117.632 32.0601 116.937L59.6805 100.99C60.8848 100.295 61.8611 98.6041 61.8611 97.2135L61.8611 65.3201Z" fill="url(#paint28_linear_1754_10928)"/>
<path d="M61.8611 65.3201C61.8611 63.5896 60.6461 62.8882 59.1475 63.7535L32.5931 79.0846C31.0944 79.9499 29.8795 82.0542 29.8795 83.7847C29.8795 82.734 30.8558 81.3186 32.0601 80.6233L59.6805 64.6767C60.8848 63.9814 61.8611 64.2695 61.8611 65.3201ZM29.8795 115.678C29.8795 117.409 31.0944 118.11 32.5931 117.245L59.1475 101.914C60.6461 101.048 61.8611 98.944 61.8611 97.2135C61.8611 98.2641 60.8848 99.6795 59.6805 100.375L32.0601 116.321C30.8558 117.017 29.8795 116.729 29.8795 115.678ZM61.8611 99.7314L61.8611 62.8022L61.8611 99.7314ZM29.8795 81.2668L29.8795 118.196L29.8795 81.2668Z" fill="url(#paint29_radial_1754_10928)" mask="url(#path-17-outside-8_1754_10928)"/>
<path d="M61.8611 65.3201C61.8611 63.5896 60.6461 62.8882 59.1475 63.7535L32.5931 79.0846C31.0944 79.9499 29.8795 82.0542 29.8795 83.7847C29.8795 82.734 30.8558 81.3186 32.0601 80.6233L59.6805 64.6767C60.8848 63.9814 61.8611 64.2695 61.8611 65.3201ZM29.8795 115.678C29.8795 117.409 31.0944 118.11 32.5931 117.245L59.1475 101.914C60.6461 101.048 61.8611 98.944 61.8611 97.2135C61.8611 98.2641 60.8848 99.6795 59.6805 100.375L32.0601 116.321C30.8558 117.017 29.8795 116.729 29.8795 115.678ZM61.8611 99.7314L61.8611 62.8022L61.8611 99.7314ZM29.8795 81.2668L29.8795 118.196L29.8795 81.2668Z" fill="url(#paint30_radial_1754_10928)" mask="url(#path-17-outside-8_1754_10928)"/>
<path d="M61.8611 65.3201C61.8611 63.5896 60.6461 62.8882 59.1475 63.7535L32.5931 79.0846C31.0944 79.9499 29.8795 82.0542 29.8795 83.7847C29.8795 82.734 30.8558 81.3186 32.0601 80.6233L59.6805 64.6767C60.8848 63.9814 61.8611 64.2695 61.8611 65.3201ZM29.8795 115.678C29.8795 117.409 31.0944 118.11 32.5931 117.245L59.1475 101.914C60.6461 101.048 61.8611 98.944 61.8611 97.2135C61.8611 98.2641 60.8848 99.6795 59.6805 100.375L32.0601 116.321C30.8558 117.017 29.8795 116.729 29.8795 115.678ZM61.8611 99.7314L61.8611 62.8022L61.8611 99.7314ZM29.8795 81.2668L29.8795 118.196L29.8795 81.2668Z" fill="url(#paint31_radial_1754_10928)" mask="url(#path-17-outside-8_1754_10928)"/>
</g>
<g filter="url(#filter12_b_1754_10928)">
<mask id="path-19-outside-9_1754_10928" maskUnits="userSpaceOnUse" x="61.8608" y="61.8022" width="32.909" height="58" fill="black">
<rect fill="white" x="61.8608" y="61.8022" width="32.909" height="58"/>
<path d="M61.8608 65.3201C61.8608 63.9295 62.8371 63.3659 64.0414 64.0612L91.6618 80.0079C92.8661 80.7032 93.8424 82.3941 93.8424 83.7847L93.8424 115.678C93.8424 117.069 92.8661 117.632 91.6618 116.937L64.0414 100.99C62.8371 100.295 61.8608 98.6041 61.8608 97.2135L61.8608 65.3201Z"/>
</mask>
<path d="M61.8608 65.3201C61.8608 63.9295 62.8371 63.3659 64.0414 64.0612L91.6618 80.0079C92.8661 80.7032 93.8424 82.3941 93.8424 83.7847L93.8424 115.678C93.8424 117.069 92.8661 117.632 91.6618 116.937L64.0414 100.99C62.8371 100.295 61.8608 98.6041 61.8608 97.2135L61.8608 65.3201Z" fill="url(#paint32_linear_1754_10928)"/>
<path d="M61.8608 65.3201C61.8608 63.5896 63.0758 62.8882 64.5744 63.7535L91.6618 79.3924C93.1605 80.2576 94.3754 82.3619 94.3754 84.0924L93.3094 83.477C93.3094 82.4263 92.5717 81.1487 91.6618 80.6233L64.0414 64.6767C62.8371 63.9814 61.8608 64.2695 61.8608 65.3201ZM94.3754 115.986C94.3754 117.716 93.1605 118.418 91.6618 117.552L64.5744 101.914C63.0758 101.048 61.8608 98.944 61.8608 97.2135C61.8608 98.2641 62.8371 99.6795 64.0414 100.375L91.6618 116.321C92.5717 116.847 93.3094 116.421 93.3094 115.37L94.3754 115.986ZM61.8608 99.7314L61.8608 62.8022L61.8608 99.7314ZM91.6618 79.3924C93.1605 80.2576 94.3754 82.3619 94.3754 84.0924L94.3754 115.986C94.3754 117.716 93.1605 118.418 91.6618 117.552L91.6618 116.321C92.5717 116.847 93.3094 116.421 93.3094 115.37L93.3094 83.477C93.3094 82.4263 92.5717 81.1487 91.6618 80.6233L91.6618 79.3924Z" fill="url(#paint33_radial_1754_10928)" mask="url(#path-19-outside-9_1754_10928)"/>
<path d="M61.8608 65.3201C61.8608 63.5896 63.0758 62.8882 64.5744 63.7535L91.6618 79.3924C93.1605 80.2576 94.3754 82.3619 94.3754 84.0924L93.3094 83.477C93.3094 82.4263 92.5717 81.1487 91.6618 80.6233L64.0414 64.6767C62.8371 63.9814 61.8608 64.2695 61.8608 65.3201ZM94.3754 115.986C94.3754 117.716 93.1605 118.418 91.6618 117.552L64.5744 101.914C63.0758 101.048 61.8608 98.944 61.8608 97.2135C61.8608 98.2641 62.8371 99.6795 64.0414 100.375L91.6618 116.321C92.5717 116.847 93.3094 116.421 93.3094 115.37L94.3754 115.986ZM61.8608 99.7314L61.8608 62.8022L61.8608 99.7314ZM91.6618 79.3924C93.1605 80.2576 94.3754 82.3619 94.3754 84.0924L94.3754 115.986C94.3754 117.716 93.1605 118.418 91.6618 117.552L91.6618 116.321C92.5717 116.847 93.3094 116.421 93.3094 115.37L93.3094 83.477C93.3094 82.4263 92.5717 81.1487 91.6618 80.6233L91.6618 79.3924Z" fill="url(#paint34_radial_1754_10928)" mask="url(#path-19-outside-9_1754_10928)"/>
<path d="M61.8608 65.3201C61.8608 63.5896 63.0758 62.8882 64.5744 63.7535L91.6618 79.3924C93.1605 80.2576 94.3754 82.3619 94.3754 84.0924L93.3094 83.477C93.3094 82.4263 92.5717 81.1487 91.6618 80.6233L64.0414 64.6767C62.8371 63.9814 61.8608 64.2695 61.8608 65.3201ZM94.3754 115.986C94.3754 117.716 93.1605 118.418 91.6618 117.552L64.5744 101.914C63.0758 101.048 61.8608 98.944 61.8608 97.2135C61.8608 98.2641 62.8371 99.6795 64.0414 100.375L91.6618 116.321C92.5717 116.847 93.3094 116.421 93.3094 115.37L94.3754 115.986ZM61.8608 99.7314L61.8608 62.8022L61.8608 99.7314ZM91.6618 79.3924C93.1605 80.2576 94.3754 82.3619 94.3754 84.0924L94.3754 115.986C94.3754 117.716 93.1605 118.418 91.6618 117.552L91.6618 116.321C92.5717 116.847 93.3094 116.421 93.3094 115.37L93.3094 83.477C93.3094 82.4263 92.5717 81.1487 91.6618 80.6233L91.6618 79.3924Z" fill="url(#paint35_radial_1754_10928)" mask="url(#path-19-outside-9_1754_10928)"/>
</g>
</g>
<path d="M19.5141 29.52V26.0107H10.6591V23.3945C12.0678 20.8201 14.5876 16.8119 18.2185 11.3698H22.2309V23.4951H24.734V26.0107H22.2309V29.52H19.5141ZM13.3634 23.3819V23.558H19.5518V13.8477H19.3883C17.2584 16.9335 15.2501 20.1116 13.3634 23.3819Z" fill="white"/>
<path d="M39.6775 23.593H37.9875C37.8797 23.1456 37.6452 22.7844 37.2841 22.5095C36.9283 22.2346 36.4701 22.0971 35.9095 22.0971C35.1817 22.0971 34.6076 22.3613 34.1872 22.8896C33.7721 23.4178 33.5645 24.151 33.5645 25.0889C33.5645 26.0377 33.7721 26.7843 34.1872 27.3287C34.6076 27.8678 35.1817 28.1373 35.9095 28.1373C36.4647 28.1373 36.9202 28.0133 37.276 27.7654C37.6372 27.5174 37.8743 27.1589 37.9875 26.6899H39.6775C39.5643 27.5956 39.1762 28.3233 38.5131 28.8731C37.8501 29.4176 36.9849 29.6898 35.9175 29.6898C34.6346 29.6898 33.6238 29.2828 32.8853 28.4688C32.1522 27.6495 31.7856 26.5228 31.7856 25.0889C31.7856 23.6766 32.1522 22.5661 32.8853 21.7575C33.6184 20.9489 34.6265 20.5446 35.9095 20.5446C36.9822 20.5446 37.8474 20.8249 38.505 21.3856C39.1681 21.9462 39.5589 22.682 39.6775 23.593ZM46.9872 22.647C46.5991 22.2319 46.0843 22.0244 45.4428 22.0244C44.8013 22.0244 44.273 22.2319 43.8579 22.647C43.4429 23.0621 43.2111 23.6146 43.1625 24.3046H47.6098C47.5882 23.6092 47.3807 23.0567 46.9872 22.647ZM47.6017 27.1428H49.2755C49.0761 27.9352 48.6394 28.5578 47.9656 29.0106C47.2972 29.4634 46.4616 29.6898 45.4589 29.6898C44.1975 29.6898 43.203 29.2855 42.4752 28.4769C41.7529 27.6629 41.3917 26.5525 41.3917 25.1455C41.3917 23.7386 41.7583 22.62 42.4914 21.7899C43.2245 20.9597 44.211 20.5446 45.4509 20.5446C46.6745 20.5446 47.6341 20.9381 48.3295 21.7252C49.0302 22.5122 49.3806 23.5984 49.3806 24.9838V25.5903H43.1625V25.6873C43.1895 26.4635 43.4132 27.0781 43.8337 27.5309C44.2541 27.9837 44.8121 28.2101 45.5075 28.2101C46.5694 28.2101 47.2675 27.8543 47.6017 27.1428ZM53.7551 25.6711H53.3589V29.52H51.6204V20.7144H53.3589V24.2884H53.747L56.9248 20.7144H58.9706L55.1782 24.8059L59.1323 29.52H56.9652L53.7551 25.6711Z" fill="white"/>
<path d="M13.1873 49.4985C12.1559 49.4985 11.3467 49.1819 10.7597 48.5488C10.1727 47.9115 9.87923 47.0353 9.87923 45.92C9.87923 44.8131 10.1748 43.941 10.766 43.3037C11.3572 42.6623 12.1643 42.3415 13.1873 42.3415C14.2145 42.3415 15.0216 42.6602 15.6086 43.2975C16.1997 43.9347 16.4953 44.8089 16.4953 45.92C16.4953 47.0353 16.1997 47.9115 15.6086 48.5488C15.0216 49.1819 14.2145 49.4985 13.1873 49.4985ZM11.9232 47.5992C12.2209 47.9933 12.6422 48.1903 13.1873 48.1903C13.7323 48.1903 14.1516 47.9933 14.4451 47.5992C14.7428 47.2009 14.8916 46.6411 14.8916 45.92C14.8916 45.203 14.7428 44.6454 14.4451 44.2471C14.1474 43.8488 13.7281 43.6496 13.1873 43.6496C12.6422 43.6496 12.2209 43.8488 11.9232 44.2471C11.6255 44.6454 11.4767 45.203 11.4767 45.92C11.4767 46.6411 11.6255 47.2009 11.9232 47.5992ZM20.9545 48.1903C21.5038 48.1903 21.9293 48.0017 22.2312 47.6243C22.5373 47.247 22.6903 46.7145 22.6903 46.0269C22.6903 45.3686 22.5373 44.8571 22.2312 44.4924C21.9293 44.1276 21.5038 43.9452 20.9545 43.9452C20.4053 43.9452 19.9776 44.1276 19.6716 44.4924C19.3697 44.8571 19.2187 45.3686 19.2187 46.0269C19.2187 46.7145 19.3697 47.247 19.6716 47.6243C19.9734 48.0017 20.4011 48.1903 20.9545 48.1903ZM18.854 43.983H18.9609C19.4263 43.1193 20.1956 42.6874 21.269 42.6874C22.1788 42.6874 22.9104 42.9851 23.4639 43.5805C24.0173 44.1716 24.294 44.9766 24.294 45.9955C24.294 47.0814 23.9963 47.9367 23.401 48.5614C22.8098 49.1861 22.0006 49.4985 20.9734 49.4985C19.8959 49.4985 19.0657 49.1526 18.4829 48.4608C17.9043 47.769 17.615 46.7418 17.615 45.3791C17.615 43.6433 17.8959 42.352 18.4578 41.5051C19.0238 40.6539 19.9483 40.2032 21.2312 40.1529L22.0425 40.1215C22.3612 40.1089 22.6693 40.0775 22.967 40.0271C23.2689 39.9726 23.4869 39.9244 23.6211 39.8825C23.7594 39.8406 23.8328 39.8154 23.8412 39.807V41.1026C23.8077 41.1235 23.7532 41.1508 23.6777 41.1843C23.6064 41.2179 23.424 41.2661 23.1305 41.329C22.8412 41.3877 22.51 41.4233 22.1369 41.4359L21.3444 41.4673C20.9126 41.4841 20.5457 41.5491 20.2439 41.6623C19.9462 41.7755 19.703 41.9432 19.5143 42.1654C19.3257 42.3876 19.181 42.6434 19.0804 42.9327C18.9798 43.222 18.9043 43.5721 18.854 43.983ZM29.4953 42.3667C30.3674 42.3667 31.0571 42.6832 31.5644 43.3163C32.0759 43.9494 32.3317 44.8173 32.3317 45.92C32.3317 47.0185 32.078 47.8864 31.5707 48.5237C31.0676 49.1568 30.3821 49.4733 29.5142 49.4733C29.0236 49.4733 28.5939 49.3727 28.2249 49.1714C27.8602 48.966 27.5897 48.6809 27.4136 48.3161H27.3067V51.6493H25.747V42.4799H27.2501V43.6182H27.357C27.5541 43.2283 27.8413 42.9222 28.2186 42.7C28.6002 42.4778 29.0257 42.3667 29.4953 42.3667ZM29.0048 48.1463C29.5456 48.1463 29.967 47.9493 30.2689 47.5551C30.5749 47.161 30.728 46.616 30.728 45.92C30.728 45.224 30.5749 44.6789 30.2689 44.2848C29.967 43.8907 29.5477 43.6937 29.0111 43.6937C28.4786 43.6937 28.0572 43.8928 27.747 44.2911C27.4367 44.6894 27.2795 45.2324 27.2753 45.92C27.2795 46.6076 27.4346 47.1506 27.7407 47.5489C28.0509 47.9472 28.4723 48.1463 29.0048 48.1463ZM36.1368 48.2469C36.6064 48.2469 36.9984 48.1128 37.3129 47.8444C37.6273 47.5719 37.7846 47.2365 37.7846 46.8382V46.291L36.2312 46.3917C35.3758 46.4462 34.9482 46.7564 34.9482 47.3225C34.9482 47.6076 35.0572 47.834 35.2752 48.0017C35.4974 48.1652 35.7846 48.2469 36.1368 48.2469ZM35.6777 49.4733C35.0069 49.4733 34.4597 49.2846 34.0363 48.9073C33.6128 48.53 33.4011 48.031 33.4011 47.4105C33.4011 46.79 33.6254 46.3036 34.074 45.9514C34.5268 45.5992 35.1725 45.398 36.011 45.3477L37.7846 45.2408V44.6622C37.7846 44.3226 37.6734 44.0626 37.4512 43.8823C37.229 43.702 36.9083 43.6119 36.489 43.6119C36.1284 43.6119 35.8308 43.6748 35.596 43.8006C35.3612 43.9222 35.2081 44.0983 35.1369 44.3289H33.6652C33.7281 43.7209 34.0216 43.2388 34.5457 42.8824C35.074 42.5218 35.7469 42.3415 36.5645 42.3415C37.4449 42.3415 38.1242 42.5449 38.6021 42.9516C39.0843 43.3582 39.3254 43.9285 39.3254 44.6622V49.3601H37.8223V48.4167H37.7154C37.5225 48.748 37.2458 49.0079 36.8852 49.1966C36.5288 49.3811 36.1263 49.4733 35.6777 49.4733ZM44.0927 48.1903C44.642 48.1903 45.0675 48.0017 45.3694 47.6243C45.6755 47.247 45.8285 46.7145 45.8285 46.0269C45.8285 45.3686 45.6755 44.8571 45.3694 44.4924C45.0675 44.1276 44.642 43.9452 44.0927 43.9452C43.5435 43.9452 43.1158 44.1276 42.8098 44.4924C42.5079 44.8571 42.357 45.3686 42.357 46.0269C42.357 46.7145 42.5079 47.247 42.8098 47.6243C43.1116 48.0017 43.5393 48.1903 44.0927 48.1903ZM41.9922 43.983H42.0991C42.5645 43.1193 43.3339 42.6874 44.4072 42.6874C45.317 42.6874 46.0486 42.9851 46.6021 43.5805C47.1555 44.1716 47.4322 44.9766 47.4322 45.9955C47.4322 47.0814 47.1345 47.9367 46.5392 48.5614C45.948 49.1861 45.1388 49.4985 44.1116 49.4985C43.0341 49.4985 42.2039 49.1526 41.6211 48.4608C41.0425 47.769 40.7532 46.7418 40.7532 45.3791C40.7532 43.6433 41.0342 42.352 41.596 41.5051C42.162 40.6539 43.0865 40.2032 44.3695 40.1529L45.1807 40.1215C45.4994 40.1089 45.8076 40.0775 46.1052 40.0271C46.4071 39.9726 46.6251 39.9244 46.7593 39.8825C46.8977 39.8406 46.971 39.8154 46.9794 39.807V41.1026C46.9459 41.1235 46.8914 41.1508 46.8159 41.1843C46.7446 41.2179 46.5622 41.2661 46.2688 41.329C45.9795 41.3877 45.6482 41.4233 45.2751 41.4359L44.4827 41.4673C44.0508 41.4841 43.6839 41.5491 43.3821 41.6623C43.0844 41.7755 42.8412 41.9432 42.6525 42.1654C42.4639 42.3876 42.3192 42.6434 42.2186 42.9327C42.118 43.222 42.0425 43.5721 41.9922 43.983ZM51.86 49.4985C50.8286 49.4985 50.0194 49.1819 49.4324 48.5488C48.8454 47.9115 48.5519 47.0353 48.5519 45.92C48.5519 44.8131 48.8475 43.941 49.4387 43.3037C50.0299 42.6623 50.837 42.3415 51.86 42.3415C52.8872 42.3415 53.6943 42.6602 54.2813 43.2975C54.8724 43.9347 55.168 44.8089 55.168 45.92C55.168 47.0353 54.8724 47.9115 54.2813 48.5488C53.6943 49.1819 52.8872 49.4985 51.86 49.4985ZM50.5959 47.5992C50.8936 47.9933 51.3149 48.1903 51.86 48.1903C52.405 48.1903 52.8243 47.9933 53.1178 47.5992C53.4155 47.2009 53.5643 46.6411 53.5643 45.92C53.5643 45.203 53.4155 44.6454 53.1178 44.2471C52.8201 43.8488 52.4008 43.6496 51.86 43.6496C51.3149 43.6496 50.8936 43.8488 50.5959 44.2471C50.2982 44.6454 50.1494 45.203 50.1494 45.92C50.1494 46.6411 50.2982 47.2009 50.5959 47.5992ZM61.4511 42.4799V43.7251H59.3316V49.3601H57.7719V43.7251H55.6525V42.4799H61.4511ZM64.5455 46.4042H64.2311V49.3601H62.6714V42.4799H64.2311V45.2345H64.5329L66.841 42.4799H68.6397L65.8159 45.6558L68.7718 49.3601H66.8788L64.5455 46.4042ZM72.0423 48.2469C72.5119 48.2469 72.9039 48.1128 73.2184 47.8444C73.5328 47.5719 73.6901 47.2365 73.6901 46.8382V46.291L72.1367 46.3917C71.2814 46.4462 70.8537 46.7564 70.8537 47.3225C70.8537 47.6076 70.9627 47.834 71.1807 48.0017C71.403 48.1652 71.6902 48.2469 72.0423 48.2469ZM71.5832 49.4733C70.9124 49.4733 70.3653 49.2846 69.9418 48.9073C69.5183 48.53 69.3066 48.031 69.3066 47.4105C69.3066 46.79 69.5309 46.3036 69.9795 45.9514C70.4323 45.5992 71.078 45.398 71.9166 45.3477L73.6901 45.2408V44.6622C73.6901 44.3226 73.579 44.0626 73.3568 43.8823C73.1345 43.702 72.8138 43.6119 72.3945 43.6119C72.034 43.6119 71.7363 43.6748 71.5015 43.8006C71.2667 43.9222 71.1137 44.0983 71.0424 44.3289H69.5707C69.6336 43.7209 69.9271 43.2388 70.4512 42.8824C70.9795 42.5218 71.6524 42.3415 72.47 42.3415C73.3505 42.3415 74.0297 42.5449 74.5077 42.9516C74.9898 43.3582 75.2309 43.9285 75.2309 44.6622V49.3601H73.7278V48.4167H73.6209C73.428 48.748 73.1513 49.0079 72.7907 49.1966C72.4344 49.3811 72.0319 49.4733 71.5832 49.4733ZM12.7785 64.4985C12.3928 64.4985 12.0322 64.4544 11.6968 64.3664C11.3614 64.2783 11.0595 64.1484 10.7911 63.9765C10.5228 63.8004 10.3027 63.5719 10.1308 63.291C9.96309 63.0101 9.86246 62.6872 9.82892 62.3225H11.3572C11.4242 62.6201 11.5815 62.8465 11.8288 63.0017C12.0804 63.1526 12.397 63.2281 12.7785 63.2281C13.1936 63.2281 13.5227 63.1442 13.7659 62.9765C14.009 62.8046 14.1306 62.574 14.1306 62.2847C14.1306 61.6768 13.682 61.3728 12.7848 61.3728H11.7785V60.2596H12.7533C13.5206 60.2596 13.9042 59.9829 13.9042 59.4295C13.9042 59.1779 13.8057 58.9746 13.6086 58.8194C13.4116 58.6643 13.1265 58.5867 12.7533 58.5867C12.3928 58.5867 12.093 58.6622 11.854 58.8132C11.6192 58.9641 11.4808 59.1716 11.4389 59.4358H9.94841C10.0197 58.7943 10.3006 58.2849 10.7911 57.9075C11.2859 57.5302 11.9379 57.3415 12.747 57.3415C13.5982 57.3415 14.2585 57.5134 14.7281 57.8572C15.1977 58.1968 15.4325 58.6664 15.4325 59.266C15.4325 59.6056 15.3339 59.9012 15.1369 60.1527C14.9398 60.4043 14.682 60.572 14.3633 60.6558V60.7691C14.7952 60.8739 15.1222 61.0604 15.3444 61.3288C15.5708 61.5971 15.684 61.9241 15.684 62.3099C15.684 62.9723 15.4199 63.5027 14.8916 63.901C14.3675 64.2993 13.6632 64.4985 12.7785 64.4985ZM19.4829 63.2469C19.9525 63.2469 20.3445 63.1128 20.6589 62.8444C20.9734 62.5719 21.1306 62.2365 21.1306 61.8382V61.291L19.5772 61.3917C18.7219 61.4462 18.2942 61.7564 18.2942 62.3225C18.2942 62.6076 18.4033 62.834 18.6213 63.0017C18.8435 63.1652 19.1307 63.2469 19.4829 63.2469ZM19.0238 64.4733C18.3529 64.4733 17.8058 64.2846 17.3823 63.9073C16.9589 63.53 16.7471 63.031 16.7471 62.4105C16.7471 61.79 16.9714 61.3036 17.4201 60.9514C17.8729 60.5992 18.5186 60.398 19.3571 60.3477L21.1306 60.2408V59.6622C21.1306 59.3226 21.0195 59.0626 20.7973 58.8823C20.5751 58.702 20.2543 58.6119 19.8351 58.6119C19.4745 58.6119 19.1768 58.6748 18.942 58.8006C18.7072 58.9222 18.5542 59.0983 18.4829 59.3289H17.0113C17.0742 58.7209 17.3677 58.2388 17.8917 57.8824C18.42 57.5218 19.093 57.3415 19.9105 57.3415C20.791 57.3415 21.4702 57.5449 21.9482 57.9516C22.4304 58.3582 22.6714 58.9285 22.6714 59.6622V64.3601H21.1684V63.4167H21.0614C20.8686 63.748 20.5919 64.0079 20.2313 64.1966C19.8749 64.3811 19.4724 64.4733 19.0238 64.4733ZM28.8853 64.3601V58.7251H25.9734V64.3601H24.4138V57.4799H30.445V64.3601H28.8853ZM35.967 57.3667C36.8391 57.3667 37.5288 57.6832 38.0361 58.3163C38.5476 58.9494 38.8034 59.8173 38.8034 60.92C38.8034 62.0185 38.5497 62.8864 38.0424 63.5237C37.5393 64.1568 36.8538 64.4733 35.9859 64.4733C35.4953 64.4733 35.0656 64.3727 34.6966 64.1714C34.3319 63.966 34.0614 63.6809 33.8853 63.3161H33.7784V66.6493H32.2187V57.4799H33.7218V58.6182H33.8287C34.0258 58.2283 34.313 57.9222 34.6903 57.7C35.0719 57.4778 35.4974 57.3667 35.967 57.3667ZM35.4765 63.1463C36.0173 63.1463 36.4387 62.9493 36.7406 62.5551C37.0466 62.161 37.1997 61.616 37.1997 60.92C37.1997 60.224 37.0466 59.6789 36.7406 59.2848C36.4387 58.8907 36.0194 58.6937 35.4828 58.6937C34.9503 58.6937 34.5289 58.8928 34.2187 59.2911C33.9084 59.6894 33.7512 60.2324 33.747 60.92C33.7512 61.6076 33.9063 62.1506 34.2124 62.5489C34.5226 62.9472 34.944 63.1463 35.4765 63.1463ZM43.2248 64.4985C42.1934 64.4985 41.3842 64.1819 40.7973 63.5488C40.2103 62.9115 39.9168 62.0353 39.9168 60.92C39.9168 59.8131 40.2124 58.941 40.8036 58.3037C41.3947 57.6623 42.2018 57.3415 43.2248 57.3415C44.2521 57.3415 45.0592 57.6602 45.6461 58.2975C46.2373 58.9347 46.5329 59.8089 46.5329 60.92C46.5329 62.0353 46.2373 62.9115 45.6461 63.5488C45.0592 64.1819 44.2521 64.4985 43.2248 64.4985ZM41.9607 62.5992C42.2584 62.9933 42.6798 63.1903 43.2248 63.1903C43.7699 63.1903 44.1892 62.9933 44.4827 62.5992C44.7803 62.2009 44.9292 61.6411 44.9292 60.92C44.9292 60.203 44.7803 59.6454 44.4827 59.2471C44.185 58.8488 43.7657 58.6496 43.2248 58.6496C42.6798 58.6496 42.2584 58.8488 41.9607 59.2471C41.6631 59.6454 41.5142 60.203 41.5142 60.92C41.5142 61.6411 41.6631 62.2009 41.9607 62.5992ZM53.9165 59.7942H52.4323C52.3568 59.4463 52.1891 59.1695 51.9292 58.9641C51.6692 58.7545 51.3317 58.6496 50.9166 58.6496C50.38 58.6496 49.9607 58.8467 49.6588 59.2408C49.3611 59.6349 49.2123 60.1884 49.2123 60.9011C49.2123 61.6223 49.3632 62.1841 49.6651 62.5866C49.967 62.9891 50.3841 63.1903 50.9166 63.1903C51.3233 63.1903 51.6566 63.096 51.9166 62.9073C52.1807 62.7187 52.3526 62.4461 52.4323 62.0898H53.9165C53.8285 62.8235 53.5203 63.4084 52.992 63.8444C52.4679 64.2804 51.7782 64.4985 50.9229 64.4985C49.8873 64.4985 49.0802 64.1819 48.5016 63.5488C47.923 62.9157 47.6337 62.0332 47.6337 60.9011C47.6337 59.7817 47.923 58.9096 48.5016 58.2849C49.0802 57.656 49.8852 57.3415 50.9166 57.3415C51.7803 57.3415 52.4742 57.5658 52.9983 58.0144C53.5266 58.4589 53.8327 59.0521 53.9165 59.7942ZM57.6273 63.2469C58.0969 63.2469 58.4889 63.1128 58.8034 62.8444C59.1178 62.5719 59.275 62.2365 59.275 61.8382V61.291L57.7216 61.3917C56.8663 61.4462 56.4387 61.7564 56.4387 62.3225C56.4387 62.6076 56.5477 62.834 56.7657 63.0017C56.9879 63.1652 57.2751 63.2469 57.6273 63.2469ZM57.1682 64.4733C56.4974 64.4733 55.9502 64.2846 55.5268 63.9073C55.1033 63.53 54.8916 63.031 54.8916 62.4105C54.8916 61.79 55.1159 61.3036 55.5645 60.9514C56.0173 60.5992 56.663 60.398 57.5015 60.3477L59.275 60.2408V59.6622C59.275 59.3226 59.1639 59.0626 58.9417 58.8823C58.7195 58.702 58.3988 58.6119 57.9795 58.6119C57.6189 58.6119 57.3212 58.6748 57.0864 58.8006C56.8517 58.9222 56.6986 59.0983 56.6273 59.3289H55.1557C55.2186 58.7209 55.5121 58.2388 56.0362 57.8824C56.5645 57.5218 57.2374 57.3415 58.055 57.3415C58.9354 57.3415 59.6146 57.5449 60.0926 57.9516C60.5748 58.3582 60.8159 58.9285 60.8159 59.6622V64.3601H59.3128V63.4167H59.2059C59.013 63.748 58.7363 64.0079 58.3757 64.1966C58.0193 64.3811 57.6168 64.4733 57.1682 64.4733Z" fill="#C1C1C1"/>
</g>
<rect x="-0.46" y="-0.46" width="92.92" height="92.92" rx="15.18" stroke="url(#paint36_linear_1754_10928)" stroke-opacity="0.04" stroke-width="0.92" shape-rendering="crispEdges"/>
</g>
<defs>
<filter id="filter0_d_1754_10928" x="-15.64" y="-15.6399" width="123.28" height="123.28" filterUnits="userSpaceOnUse" color-interpolation-filters="sRGB">
<feFlood flood-opacity="0" result="BackgroundImageFix"/>
<feColorMatrix in="SourceAlpha" type="matrix" values="0 0 0 0 0 0 0 0 0 0 0 0 0 0 0 0 0 0 127 0" result="hardAlpha"/>
<feOffset/>
<feGaussianBlur stdDeviation="7.36"/>
<feComposite in2="hardAlpha" operator="out"/>
<feColorMatrix type="matrix" values="0 0 0 0 0 0 0 0 0 0 0 0 0 0 0 0 0 0 0.1 0"/>
<feBlend mode="normal" in2="BackgroundImageFix" result="effect1_dropShadow_1754_10928"/>
<feBlend mode="normal" in="SourceGraphic" in2="effect1_dropShadow_1754_10928" result="shape"/>
</filter>
<filter id="filter1_b_1754_10928" x="-8.7909" y="1.25359" width="109.321" height="67.7038" filterUnits="userSpaceOnUse" color-interpolation-filters="sRGB">
<feFlood flood-opacity="0" result="BackgroundImageFix"/>
<feGaussianBlur in="BackgroundImageFix" stdDeviation="3.07743"/>
<feComposite in2="SourceAlpha" operator="in" result="effect1_backgroundBlur_1754_10928"/>
<feBlend mode="normal" in="SourceGraphic" in2="effect1_backgroundBlur_1754_10928" result="shape"/>
</filter>
<filter id="filter2_b_1754_10928" x="-8.7909" y="1.25359" width="44.8243" height="67.7038" filterUnits="userSpaceOnUse" color-interpolation-filters="sRGB">
<feFlood flood-opacity="0" result="BackgroundImageFix"/>
<feGaussianBlur in="BackgroundImageFix" stdDeviation="3.07743"/>
<feComposite in2="SourceAlpha" operator="in" result="effect1_backgroundBlur_1754_10928"/>
<feBlend mode="normal" in="SourceGraphic" in2="effect1_backgroundBlur_1754_10928" result="shape"/>
</filter>
<filter id="filter3_b_1754_10928" x="23.7247" y="1.25359" width="44.2913" height="67.7035" filterUnits="userSpaceOnUse" color-interpolation-filters="sRGB">
<feFlood flood-opacity="0" result="BackgroundImageFix"/>
<feGaussianBlur in="BackgroundImageFix" stdDeviation="3.07743"/>
<feComposite in2="SourceAlpha" operator="in" result="effect1_backgroundBlur_1754_10928"/>
<feBlend mode="normal" in="SourceGraphic" in2="effect1_backgroundBlur_1754_10928" result="shape"/>
</filter>
<filter id="filter4_b_1754_10928" x="55.7046" y="1.25359" width="44.826" height="67.7035" filterUnits="userSpaceOnUse" color-interpolation-filters="sRGB">
<feFlood flood-opacity="0" result="BackgroundImageFix"/>
<feGaussianBlur in="BackgroundImageFix" stdDeviation="3.07743"/>
<feComposite in2="SourceAlpha" operator="in" result="effect1_backgroundBlur_1754_10928"/>
<feBlend mode="normal" in="SourceGraphic" in2="effect1_backgroundBlur_1754_10928" result="shape"/>
</filter>
<filter id="filter5_b_1754_10928" x="-8.79099" y="28.9504" width="109.321" height="67.7035" filterUnits="userSpaceOnUse" color-interpolation-filters="sRGB">
<feFlood flood-opacity="0" result="BackgroundImageFix"/>
<feGaussianBlur in="BackgroundImageFix" stdDeviation="3.07743"/>
<feComposite in2="SourceAlpha" operator="in" result="effect1_backgroundBlur_1754_10928"/>
<feBlend mode="normal" in="SourceGraphic" in2="effect1_backgroundBlur_1754_10928" result="shape"/>
</filter>
<filter id="filter6_b_1754_10928" x="-8.79099" y="28.9504" width="44.8243" height="67.7035" filterUnits="userSpaceOnUse" color-interpolation-filters="sRGB">
<feFlood flood-opacity="0" result="BackgroundImageFix"/>
<feGaussianBlur in="BackgroundImageFix" stdDeviation="3.07743"/>
<feComposite in2="SourceAlpha" operator="in" result="effect1_backgroundBlur_1754_10928"/>
<feBlend mode="normal" in="SourceGraphic" in2="effect1_backgroundBlur_1754_10928" result="shape"/>
</filter>
<filter id="filter7_b_1754_10928" x="23.7246" y="28.9504" width="44.2913" height="67.7035" filterUnits="userSpaceOnUse" color-interpolation-filters="sRGB">
<feFlood flood-opacity="0" result="BackgroundImageFix"/>
<feGaussianBlur in="BackgroundImageFix" stdDeviation="3.07743"/>
<feComposite in2="SourceAlpha" operator="in" result="effect1_backgroundBlur_1754_10928"/>
<feBlend mode="normal" in="SourceGraphic" in2="effect1_backgroundBlur_1754_10928" result="shape"/>
</filter>
<filter id="filter8_b_1754_10928" x="55.7045" y="28.9504" width="44.8258" height="67.7035" filterUnits="userSpaceOnUse" color-interpolation-filters="sRGB">
<feFlood flood-opacity="0" result="BackgroundImageFix"/>
<feGaussianBlur in="BackgroundImageFix" stdDeviation="3.07743"/>
<feComposite in2="SourceAlpha" operator="in" result="effect1_backgroundBlur_1754_10928"/>
<feBlend mode="normal" in="SourceGraphic" in2="effect1_backgroundBlur_1754_10928" result="shape"/>
</filter>
<filter id="filter9_b_1754_10928" x="-8.79099" y="56.6474" width="109.321" height="67.7035" filterUnits="userSpaceOnUse" color-interpolation-filters="sRGB">
<feFlood flood-opacity="0" result="BackgroundImageFix"/>
<feGaussianBlur in="BackgroundImageFix" stdDeviation="3.07743"/>
<feComposite in2="SourceAlpha" operator="in" result="effect1_backgroundBlur_1754_10928"/>
<feBlend mode="normal" in="SourceGraphic" in2="effect1_backgroundBlur_1754_10928" result="shape"/>
</filter>
<filter id="filter10_b_1754_10928" x="-8.79099" y="56.6474" width="44.8243" height="67.7035" filterUnits="userSpaceOnUse" color-interpolation-filters="sRGB">
<feFlood flood-opacity="0" result="BackgroundImageFix"/>
<feGaussianBlur in="BackgroundImageFix" stdDeviation="3.07743"/>
<feComposite in2="SourceAlpha" operator="in" result="effect1_backgroundBlur_1754_10928"/>
<feBlend mode="normal" in="SourceGraphic" in2="effect1_backgroundBlur_1754_10928" result="shape"/>
</filter>
<filter id="filter11_b_1754_10928" x="23.7246" y="56.6474" width="44.2913" height="67.7035" filterUnits="userSpaceOnUse" color-interpolation-filters="sRGB">
<feFlood flood-opacity="0" result="BackgroundImageFix"/>
<feGaussianBlur in="BackgroundImageFix" stdDeviation="3.07743"/>
<feComposite in2="SourceAlpha" operator="in" result="effect1_backgroundBlur_1754_10928"/>
<feBlend mode="normal" in="SourceGraphic" in2="effect1_backgroundBlur_1754_10928" result="shape"/>
</filter>
<filter id="filter12_b_1754_10928" x="55.7045" y="56.6474" width="44.8258" height="67.7035" filterUnits="userSpaceOnUse" color-interpolation-filters="sRGB">
<feFlood flood-opacity="0" result="BackgroundImageFix"/>
<feGaussianBlur in="BackgroundImageFix" stdDeviation="3.07743"/>
<feComposite in2="SourceAlpha" operator="in" result="effect1_backgroundBlur_1754_10928"/>
<feBlend mode="normal" in="SourceGraphic" in2="effect1_backgroundBlur_1754_10928" result="shape"/>
</filter>
<linearGradient id="paint0_linear_1754_10928" x1="13.8878" y1="16.641" x2="-2.10303" y2="44.3378" gradientUnits="userSpaceOnUse">
<stop stop-color="#8A3EDF"/>
<stop offset="1" stop-color="#280F44" stop-opacity="0"/>
</linearGradient>
<radialGradient id="paint1_radial_1754_10928" cx="0" cy="0" r="1" gradientUnits="userSpaceOnUse" gradientTransform="translate(13.8878 35.1055) rotate(-118.603) scale(42.6212 19.1121)">
<stop stop-color="white"/>
<stop offset="1" stop-color="white" stop-opacity="0"/>
</radialGradient>
<radialGradient id="paint2_radial_1754_10928" cx="0" cy="0" r="1" gradientUnits="userSpaceOnUse" gradientTransform="translate(13.8878 35.1055) rotate(57.5026) scale(35.7162 14.8684)">
<stop stop-color="#6356FE"/>
<stop offset="1" stop-color="#A330CB" stop-opacity="0.12"/>
</radialGradient>
<radialGradient id="paint3_radial_1754_10928" cx="0" cy="0" r="1" gradientUnits="userSpaceOnUse" gradientTransform="translate(13.8878 35.1055) rotate(151.657) scale(19.9131 25.7475)">
<stop stop-color="#151515"/>
<stop offset="1" stop-color="#151515" stop-opacity="0"/>
</radialGradient>
<linearGradient id="paint4_linear_1754_10928" x1="45.8704" y1="16.6407" x2="61.8611" y2="44.3376" gradientUnits="userSpaceOnUse">
<stop stop-color="#8A3EDF"/>
<stop offset="1" stop-color="#280F44" stop-opacity="0"/>
</linearGradient>
<radialGradient id="paint5_radial_1754_10928" cx="0" cy="0" r="1" gradientUnits="userSpaceOnUse" gradientTransform="translate(45.8704 35.1053) rotate(-61.3973) scale(42.6212 19.1121)">
<stop stop-color="white"/>
<stop offset="1" stop-color="white" stop-opacity="0"/>
</radialGradient>
<radialGradient id="paint6_radial_1754_10928" cx="0" cy="0" r="1" gradientUnits="userSpaceOnUse" gradientTransform="translate(45.8704 35.1053) rotate(122.497) scale(35.7162 14.8684)">
<stop stop-color="#6356FE"/>
<stop offset="1" stop-color="#A330CB" stop-opacity="0.12"/>
</radialGradient>
<radialGradient id="paint7_radial_1754_10928" cx="0" cy="0" r="1" gradientUnits="userSpaceOnUse" gradientTransform="translate(45.8704 35.1053) rotate(28.3434) scale(19.9131 25.7475)">
<stop stop-color="#151515"/>
<stop offset="1" stop-color="#151515" stop-opacity="0"/>
</radialGradient>
<linearGradient id="paint8_linear_1754_10928" x1="77.8519" y1="16.6407" x2="61.8611" y2="44.3376" gradientUnits="userSpaceOnUse">
<stop stop-color="#8A3EDF"/>
<stop offset="1" stop-color="#280F44" stop-opacity="0"/>
</linearGradient>
<radialGradient id="paint9_radial_1754_10928" cx="0" cy="0" r="1" gradientUnits="userSpaceOnUse" gradientTransform="translate(77.8519 35.1053) rotate(-118.603) scale(42.6212 19.1121)">
<stop stop-color="white"/>
<stop offset="1" stop-color="white" stop-opacity="0"/>
</radialGradient>
<radialGradient id="paint10_radial_1754_10928" cx="0" cy="0" r="1" gradientUnits="userSpaceOnUse" gradientTransform="translate(77.8519 35.1053) rotate(57.5026) scale(35.7162 14.8684)">
<stop stop-color="#6356FE"/>
<stop offset="1" stop-color="#A330CB" stop-opacity="0.12"/>
</radialGradient>
<radialGradient id="paint11_radial_1754_10928" cx="0" cy="0" r="1" gradientUnits="userSpaceOnUse" gradientTransform="translate(77.8519 35.1053) rotate(151.657) scale(19.9131 25.7475)">
<stop stop-color="#151515"/>
<stop offset="1" stop-color="#151515" stop-opacity="0"/>
</radialGradient>
<linearGradient id="paint12_linear_1754_10928" x1="13.8877" y1="44.3375" x2="-2.10312" y2="72.0343" gradientUnits="userSpaceOnUse">
<stop stop-color="#8A3EDF"/>
<stop offset="1" stop-color="#280F44" stop-opacity="0"/>
</linearGradient>
<radialGradient id="paint13_radial_1754_10928" cx="0" cy="0" r="1" gradientUnits="userSpaceOnUse" gradientTransform="translate(13.8877 62.8021) rotate(-118.603) scale(42.6212 19.1121)">
<stop stop-color="white"/>
<stop offset="1" stop-color="white" stop-opacity="0"/>
</radialGradient>
<radialGradient id="paint14_radial_1754_10928" cx="0" cy="0" r="1" gradientUnits="userSpaceOnUse" gradientTransform="translate(13.8877 62.8021) rotate(57.5026) scale(35.7162 14.8684)">
<stop stop-color="#6356FE"/>
<stop offset="1" stop-color="#A330CB" stop-opacity="0.12"/>
</radialGradient>
<radialGradient id="paint15_radial_1754_10928" cx="0" cy="0" r="1" gradientUnits="userSpaceOnUse" gradientTransform="translate(13.8877 62.8021) rotate(151.657) scale(19.9131 25.7475)">
<stop stop-color="#151515"/>
<stop offset="1" stop-color="#151515" stop-opacity="0"/>
</radialGradient>
<linearGradient id="paint16_linear_1754_10928" x1="45.8703" y1="44.3375" x2="61.8611" y2="72.0343" gradientUnits="userSpaceOnUse">
<stop stop-color="#8A3EDF"/>
<stop offset="1" stop-color="#280F44" stop-opacity="0"/>
</linearGradient>
<radialGradient id="paint17_radial_1754_10928" cx="0" cy="0" r="1" gradientUnits="userSpaceOnUse" gradientTransform="translate(45.8703 62.8021) rotate(-61.3973) scale(42.6212 19.1121)">
<stop stop-color="white"/>
<stop offset="1" stop-color="white" stop-opacity="0"/>
</radialGradient>
<radialGradient id="paint18_radial_1754_10928" cx="0" cy="0" r="1" gradientUnits="userSpaceOnUse" gradientTransform="translate(45.8703 62.8021) rotate(122.497) scale(35.7162 14.8684)">
<stop stop-color="#6356FE"/>
<stop offset="1" stop-color="#A330CB" stop-opacity="0.12"/>
</radialGradient>
<radialGradient id="paint19_radial_1754_10928" cx="0" cy="0" r="1" gradientUnits="userSpaceOnUse" gradientTransform="translate(45.8703 62.8021) rotate(28.3434) scale(19.9131 25.7475)">
<stop stop-color="#151515"/>
<stop offset="1" stop-color="#151515" stop-opacity="0"/>
</radialGradient>
<linearGradient id="paint20_linear_1754_10928" x1="77.8516" y1="44.3375" x2="61.8608" y2="72.0343" gradientUnits="userSpaceOnUse">
<stop stop-color="#8A3EDF"/>
<stop offset="1" stop-color="#280F44" stop-opacity="0"/>
</linearGradient>
<radialGradient id="paint21_radial_1754_10928" cx="0" cy="0" r="1" gradientUnits="userSpaceOnUse" gradientTransform="translate(77.8516 62.8021) rotate(-118.603) scale(42.6212 19.1121)">
<stop stop-color="white"/>
<stop offset="1" stop-color="white" stop-opacity="0"/>
</radialGradient>
<radialGradient id="paint22_radial_1754_10928" cx="0" cy="0" r="1" gradientUnits="userSpaceOnUse" gradientTransform="translate(77.8516 62.8021) rotate(57.5026) scale(35.7162 14.8684)">
<stop stop-color="#6356FE"/>
<stop offset="1" stop-color="#A330CB" stop-opacity="0.12"/>
</radialGradient>
<radialGradient id="paint23_radial_1754_10928" cx="0" cy="0" r="1" gradientUnits="userSpaceOnUse" gradientTransform="translate(77.8516 62.8021) rotate(151.657) scale(19.9131 25.7475)">
<stop stop-color="#151515"/>
<stop offset="1" stop-color="#151515" stop-opacity="0"/>
</radialGradient>
<linearGradient id="paint24_linear_1754_10928" x1="13.8877" y1="72.0345" x2="-2.10312" y2="99.7314" gradientUnits="userSpaceOnUse">
<stop stop-color="#8A3EDF"/>
<stop offset="1" stop-color="#280F44" stop-opacity="0"/>
</linearGradient>
<radialGradient id="paint25_radial_1754_10928" cx="0" cy="0" r="1" gradientUnits="userSpaceOnUse" gradientTransform="translate(13.8877 90.4991) rotate(-118.603) scale(42.6212 19.1121)">
<stop stop-color="white"/>
<stop offset="1" stop-color="white" stop-opacity="0"/>
</radialGradient>
<radialGradient id="paint26_radial_1754_10928" cx="0" cy="0" r="1" gradientUnits="userSpaceOnUse" gradientTransform="translate(13.8877 90.4991) rotate(57.5026) scale(35.7162 14.8684)">
<stop stop-color="#6356FE"/>
<stop offset="1" stop-color="#A330CB" stop-opacity="0.12"/>
</radialGradient>
<radialGradient id="paint27_radial_1754_10928" cx="0" cy="0" r="1" gradientUnits="userSpaceOnUse" gradientTransform="translate(13.8877 90.4991) rotate(151.657) scale(19.9131 25.7475)">
<stop stop-color="#151515"/>
<stop offset="1" stop-color="#151515" stop-opacity="0"/>
</radialGradient>
<linearGradient id="paint28_linear_1754_10928" x1="45.8703" y1="72.0345" x2="61.8611" y2="99.7314" gradientUnits="userSpaceOnUse">
<stop stop-color="#8A3EDF"/>
<stop offset="1" stop-color="#280F44" stop-opacity="0"/>
</linearGradient>
<radialGradient id="paint29_radial_1754_10928" cx="0" cy="0" r="1" gradientUnits="userSpaceOnUse" gradientTransform="translate(45.8703 90.4991) rotate(-61.3973) scale(42.6212 19.1121)">
<stop stop-color="white"/>
<stop offset="1" stop-color="white" stop-opacity="0"/>
</radialGradient>
<radialGradient id="paint30_radial_1754_10928" cx="0" cy="0" r="1" gradientUnits="userSpaceOnUse" gradientTransform="translate(45.8703 90.4991) rotate(122.497) scale(35.7162 14.8684)">
<stop stop-color="#6356FE"/>
<stop offset="1" stop-color="#A330CB" stop-opacity="0.12"/>
</radialGradient>
<radialGradient id="paint31_radial_1754_10928" cx="0" cy="0" r="1" gradientUnits="userSpaceOnUse" gradientTransform="translate(45.8703 90.4991) rotate(28.3434) scale(19.9131 25.7475)">
<stop stop-color="#151515"/>
<stop offset="1" stop-color="#151515" stop-opacity="0"/>
</radialGradient>
<linearGradient id="paint32_linear_1754_10928" x1="77.8516" y1="72.0345" x2="61.8608" y2="99.7314" gradientUnits="userSpaceOnUse">
<stop stop-color="#8A3EDF"/>
<stop offset="1" stop-color="#280F44" stop-opacity="0"/>
</linearGradient>
<radialGradient id="paint33_radial_1754_10928" cx="0" cy="0" r="1" gradientUnits="userSpaceOnUse" gradientTransform="translate(77.8516 90.4991) rotate(-118.603) scale(42.6212 19.1121)">
<stop stop-color="white"/>
<stop offset="1" stop-color="white" stop-opacity="0"/>
</radialGradient>
<radialGradient id="paint34_radial_1754_10928" cx="0" cy="0" r="1" gradientUnits="userSpaceOnUse" gradientTransform="translate(77.8516 90.4991) rotate(57.5026) scale(35.7162 14.8684)">
<stop stop-color="#6356FE"/>
<stop offset="1" stop-color="#A330CB" stop-opacity="0.12"/>
</radialGradient>
<radialGradient id="paint35_radial_1754_10928" cx="0" cy="0" r="1" gradientUnits="userSpaceOnUse" gradientTransform="translate(77.8516 90.4991) rotate(151.657) scale(19.9131 25.7475)">
<stop stop-color="#151515"/>
<stop offset="1" stop-color="#151515" stop-opacity="0"/>
</radialGradient>
<linearGradient id="paint36_linear_1754_10928" x1="0" y1="0" x2="109.179" y2="30.4947" gradientUnits="userSpaceOnUse">
<stop stop-color="white"/>
<stop offset="1" stop-color="white" stop-opacity="0"/>
</linearGradient>
<clipPath id="clip0_1754_10928">
<rect width="92" height="92" rx="14.72" fill="white"/>
</clipPath>
</defs>
</svg>
