<svg width="74" height="74" viewBox="0 0 74 74" fill="none" xmlns="http://www.w3.org/2000/svg">
<g filter="url(#filter0_d_1506_2518)">
<rect x="16.5" y="16.5" width="41" height="41" rx="20.5" stroke="url(#paint0_linear_1506_2518)" shape-rendering="crispEdges"/>
<path fill-rule="evenodd" clip-rule="evenodd" d="M28.4377 33.482C32.4284 33.5825 35.5821 36.8987 35.482 40.8893C35.5825 36.8986 38.8987 33.7449 42.8893 33.845C38.8985 33.7447 35.7449 30.4283 35.845 26.4377C35.7447 30.4285 32.4283 33.5821 28.4377 33.482ZM42.5727 46.5486C42.6111 43.8913 40.4877 41.7058 37.8304 41.6674C40.4877 41.7058 42.6732 39.5824 42.7116 36.9251C42.6734 39.5826 44.7965 41.7679 47.4539 41.8063C44.7964 41.7681 42.6111 43.8913 42.5727 46.5486ZM32.2466 47.257C32.28 45.597 30.9611 44.2241 29.3011 44.1907C30.9611 44.2241 32.334 42.9053 32.3674 41.2453C32.3341 42.9054 33.6528 44.2782 35.3128 44.3116C33.6527 44.2783 32.28 45.597 32.2466 47.257Z" fill="url(#paint1_linear_1506_2518)"/>
</g>
<defs>
<filter id="filter0_d_1506_2518" x="0" y="0" width="74" height="74" filterUnits="userSpaceOnUse" color-interpolation-filters="sRGB">
<feFlood flood-opacity="0" result="BackgroundImageFix"/>
<feColorMatrix in="SourceAlpha" type="matrix" values="0 0 0 0 0 0 0 0 0 0 0 0 0 0 0 0 0 0 127 0" result="hardAlpha"/>
<feOffset/>
<feGaussianBlur stdDeviation="8"/>
<feComposite in2="hardAlpha" operator="out"/>
<feColorMatrix type="matrix" values="0 0 0 0 0.388235 0 0 0 0 0.337255 0 0 0 0 0.996078 0 0 0 0.08 0"/>
<feBlend mode="normal" in2="BackgroundImageFix" result="effect1_dropShadow_1506_2518"/>
<feBlend mode="normal" in="SourceGraphic" in2="effect1_dropShadow_1506_2518" result="shape"/>
</filter>
<linearGradient id="paint0_linear_1506_2518" x1="17" y1="52.1468" x2="58.5002" y2="49.9292" gradientUnits="userSpaceOnUse">
<stop stop-color="#6356FE"/>
<stop offset="0.303754" stop-color="#764AEF"/>
<stop offset="0.618202" stop-color="#8A3EDF"/>
<stop offset="1" stop-color="#A330CB"/>
</linearGradient>
<linearGradient id="paint1_linear_1506_2518" x1="28.4377" y1="44.731" x2="48.1764" y2="43.7676" gradientUnits="userSpaceOnUse">
<stop stop-color="#6356FE"/>
<stop offset="0.303754" stop-color="#764AEF"/>
<stop offset="0.618202" stop-color="#8A3EDF"/>
<stop offset="1" stop-color="#A330CB"/>
</linearGradient>
</defs>
</svg>
