<svg width="24" height="24" viewBox="0 0 24 24" fill="none" xmlns="http://www.w3.org/2000/svg">
<path d="M12 0.166748C5.58331 0.166748 0.333313 5.41675 0.333313 11.8334C0.333313 18.2501 5.58331 23.5001 12 23.5001C18.4166 23.5001 23.6666 18.2501 23.6666 11.8334C23.6666 5.41675 18.4166 0.166748 12 0.166748ZM18.6666 15.0834L17.9166 17.8334C17.8333 18.1667 17.4166 18.4167 17.0833 18.3334C17 18.3334 16.8333 18.2501 16.75 18.1667L16.4166 17.8334C13.0833 20.3334 8.41665 19.6667 5.91665 16.3334C5.00243 15.0867 4.50269 13.5086 4.49998 11.8468C4.49925 11.3824 4.87326 10.9983 5.33769 11.0001C5.83524 11.002 6.16659 11.3349 6.16659 11.8334C6.16659 15.0834 8.74993 17.6667 11.9999 17.6667C13.1666 17.6667 14.3333 17.3334 15.2499 16.6667L14.7499 16.1667C14.5715 15.9883 14.5204 15.725 14.5967 15.498C14.6448 15.3548 14.7632 15.2461 14.9081 15.2031L17.8333 14.3334C18.066 14.2479 18.3265 14.3027 18.5 14.4735C18.7522 14.722 18.6705 15.0684 18.6666 15.0834ZM4.99998 8.75008L5.74998 6.00008C5.83331 5.66675 6.24998 5.41675 6.58331 5.50008C6.66665 5.50008 6.83331 5.58342 6.91665 5.66675L7.24998 6.00008C10.4166 3.33342 15.1666 3.75008 17.8333 7.00008C18.9166 8.33342 19.5833 10.0001 19.5833 11.7501C19.5 12.3334 19.1666 12.6667 18.6666 12.6667C18.1666 12.6667 17.8333 12.3334 17.8333 11.8334C17.8333 8.58342 15.25 6.00008 12 6.00008C10.6666 6.00008 9.41665 6.41675 8.41665 7.25008L8.91665 7.75008C9.13024 7.96368 9.16133 8.29899 9.00993 8.54805C8.96639 8.61972 8.89743 8.67248 8.81706 8.69638L5.83331 9.58342C5.58045 9.66034 5.30696 9.58555 5.1354 9.39279C4.89264 9.12003 4.99425 8.76873 4.99998 8.75008Z" fill="white"/>
</svg>
