<svg width="21" height="20" viewBox="0 0 21 20" fill="none" xmlns="http://www.w3.org/2000/svg">
<path d="M14.3462 6.92308C14.3462 3.09956 11.2466 0 7.42308 0C3.59956 0 0.5 3.09956 0.5 6.92308C0.5 8.37011 0.94422 9.71323 1.70334 10.8241L0.794022 13.5521L3.52207 12.6428C4.63292 13.4019 5.97604 13.8462 7.42308 13.8462C11.2466 13.8462 14.3462 10.7466 14.3462 6.92308Z" fill="url(#paint0_linear_1789_3029)"/>
<path d="M20.5 13.0768C20.5 9.97649 18.4618 7.35271 15.6524 6.47095C15.6604 6.62101 15.6648 6.77169 15.6648 6.92299C15.6648 8.03504 15.4467 9.11451 15.0166 10.1314C14.6014 11.113 14.0073 11.9943 13.2509 12.7508C12.4944 13.5073 11.6131 14.1013 10.6315 14.5165C9.61459 14.9467 8.53512 15.1647 7.42308 15.1647C7.27173 15.1647 7.12105 15.1597 6.97086 15.1516C7.85239 17.9614 10.4763 19.9999 13.5769 19.9999C15.024 19.9999 16.3671 19.5557 17.478 18.7966L20.206 19.7059L19.2967 16.9779C20.0558 15.867 20.5 14.5239 20.5 13.0768Z" fill="url(#paint1_linear_1789_3029)"/>
<defs>
<linearGradient id="paint0_linear_1789_3029" x1="0.5" y1="12.1662" x2="14.8655" y2="11.3986" gradientUnits="userSpaceOnUse">
<stop stop-color="#6356FE"/>
<stop offset="0.303754" stop-color="#764AEF"/>
<stop offset="0.618202" stop-color="#8A3EDF"/>
<stop offset="1" stop-color="#A330CB"/>
</linearGradient>
<linearGradient id="paint1_linear_1789_3029" x1="6.97086" y1="18.3584" x2="21.0074" y2="17.6084" gradientUnits="userSpaceOnUse">
<stop stop-color="#6356FE"/>
<stop offset="0.303754" stop-color="#764AEF"/>
<stop offset="0.618202" stop-color="#8A3EDF"/>
<stop offset="1" stop-color="#A330CB"/>
</linearGradient>
</defs>
</svg>
