<svg width="41" height="40" viewBox="0 0 41 40" fill="none" xmlns="http://www.w3.org/2000/svg">
<path d="M11.7933 14.2111V10.9722C11.7933 8.67495 13.6627 6.8055 15.9599 6.8055C18.2571 6.8055 20.1266 8.67495 20.1266 10.9722V13.75C20.2711 13.75 20.4074 13.7833 20.549 13.7973C21.5711 12.6847 22.2099 11.214 22.2099 9.58336C22.2099 6.13208 19.4115 3.33337 15.9599 3.33337C12.5087 3.33337 9.70996 6.13208 9.70996 9.58336C9.70996 11.4279 10.524 13.0667 11.7933 14.2111Z" fill="url(#paint0_linear_1789_2533)"/>
<path d="M30.5432 18.6113C29.3932 18.6113 28.4599 19.5446 28.4599 20.6946V21.0417C28.4599 21.2335 28.3045 21.3889 28.1128 21.3889C27.921 21.3889 27.7656 21.2335 27.7656 21.0417V19.3056C27.7656 18.1556 26.8323 17.2222 25.6823 17.2222C24.5323 17.2222 23.599 18.1556 23.599 19.3056V21.0417C23.599 21.2335 23.4434 21.3889 23.2516 21.3889C23.0601 21.3889 22.9045 21.2335 22.9045 21.0417V17.9168C22.9045 16.7668 21.9711 15.8334 20.8211 15.8334C19.6711 15.8334 18.7378 16.7668 18.7378 17.9168V21.0417C18.7378 21.2335 18.5822 21.3889 18.3907 21.3889C18.1989 21.3889 18.0433 21.2335 18.0433 21.0417V10.9722C18.0433 9.82224 17.11 8.88892 15.96 8.88892C14.81 8.88892 13.8766 9.82224 13.8766 10.9722V23.4722C13.4934 23.4722 13.1824 23.1612 13.1824 22.7779V20.0001H12.4962C10.2115 20.0001 8.3199 21.8446 8.32117 24.1294C8.32803 31.464 13.6671 36.6667 16.9502 36.6667H25.6823C29.5168 36.6667 32.6266 33.557 32.6266 29.7222V20.6946C32.6266 19.5446 31.6932 18.6113 30.5432 18.6113Z" fill="url(#paint1_linear_1789_2533)"/>
<defs>
<linearGradient id="paint0_linear_1789_2533" x1="9.70996" y1="12.8913" x2="22.6669" y2="12.0957" gradientUnits="userSpaceOnUse">
<stop stop-color="#6356FE"/>
<stop offset="0.303754" stop-color="#764AEF"/>
<stop offset="0.618202" stop-color="#8A3EDF"/>
<stop offset="1" stop-color="#A330CB"/>
</linearGradient>
<linearGradient id="paint1_linear_1789_2533" x1="8.32117" y1="33.2964" x2="33.555" y2="32.1166" gradientUnits="userSpaceOnUse">
<stop stop-color="#6356FE"/>
<stop offset="0.303754" stop-color="#764AEF"/>
<stop offset="0.618202" stop-color="#8A3EDF"/>
<stop offset="1" stop-color="#A330CB"/>
</linearGradient>
</defs>
</svg>
