<svg width="41" height="40" viewBox="0 0 41 40" fill="none" xmlns="http://www.w3.org/2000/svg">
<path fill-rule="evenodd" clip-rule="evenodd" d="M18.1921 5H6.65394C6.01656 5 5.5 5.51656 5.5 6.15394V17.6921C5.5 18.3295 6.01656 18.8461 6.65394 18.8461H18.1921C18.8295 18.8461 19.3461 18.3295 19.3461 17.6921V6.15394C19.3461 5.51656 18.8295 5 18.1921 5ZM34.3461 5H22.8079C22.1705 5 21.6539 5.51656 21.6539 6.15394V17.6921C21.6539 18.3295 22.1705 18.8461 22.8079 18.8461H34.3461C34.9834 18.8461 35.5 18.3295 35.5 17.6921V6.15394C35.5 5.51656 34.9834 5 34.3461 5ZM33.1921 16.5382H23.9618V7.30788H33.1921V16.5382ZM6.65394 21.1539H18.1921C18.8295 21.1539 19.3461 21.6693 19.3461 22.3079V33.8461C19.3461 34.4834 18.8295 35 18.1921 35H6.65394C6.01656 35 5.5 34.4834 5.5 33.8461V22.3079C5.5 21.6705 6.01656 21.1539 6.65394 21.1539ZM11.2697 31.5382C11.2697 31.961 11.1477 32.3519 10.9492 32.6921H13.8969C13.6984 32.3519 13.5764 31.961 13.5764 31.5382C13.5764 30.2634 14.6095 29.2303 15.8842 29.2303C16.3071 29.2303 16.6979 29.3523 17.0382 29.5508V26.6031C16.6979 26.8016 16.3071 26.9236 15.8842 26.9236C14.6095 26.9236 13.5764 25.8905 13.5764 24.6158C13.5764 24.1929 13.6984 23.8021 13.8969 23.4618H10.9492C11.1477 23.8021 11.2697 24.1929 11.2697 24.6158C11.2697 25.8905 10.2366 26.9236 8.96182 26.9236C8.53896 26.9236 8.14815 26.8016 7.80788 26.6031V29.5508C8.14815 29.3523 8.53896 29.2303 8.96182 29.2303C10.2366 29.2303 11.2697 30.2634 11.2697 31.5382ZM34.3461 21.1539H22.8079C22.1705 21.1539 21.6539 21.6705 21.6539 22.3079V28.0764V33.8448C21.6539 34.4822 22.1705 34.9988 22.8079 34.9988H28.5764H34.3448C34.9822 34.9988 35.4988 34.4822 35.4988 33.8448V22.3067C35.5 21.6693 34.9834 21.1539 34.3461 21.1539ZM23.9618 28.5547L29.0547 23.4618H31.5611L23.9618 31.0611V28.5547ZM23.9618 23.4618H25.7914L23.9618 25.2914V23.4618ZM33.1921 25.0929V27.598L28.0992 32.6921H25.5929L33.1921 25.0929ZM33.1921 32.6921H31.3613L33.1921 30.8613V32.6921ZM14.7315 28.0764C14.7315 29.351 13.6983 30.3842 12.4236 30.3842C11.149 30.3842 10.1158 29.351 10.1158 28.0764C10.1158 26.8017 11.149 25.7685 12.4236 25.7685C13.6983 25.7685 14.7315 26.8017 14.7315 28.0764Z" fill="url(#paint0_linear_1789_2255)"/>
<defs>
<linearGradient id="paint0_linear_1789_2255" x1="5.5" y1="31.3601" x2="36.6252" y2="29.6969" gradientUnits="userSpaceOnUse">
<stop stop-color="#6356FE"/>
<stop offset="0.303754" stop-color="#764AEF"/>
<stop offset="0.618202" stop-color="#8A3EDF"/>
<stop offset="1" stop-color="#A330CB"/>
</linearGradient>
</defs>
</svg>
