<svg width="40" height="40" viewBox="0 0 40 40" fill="none" xmlns="http://www.w3.org/2000/svg">
<path fill-rule="evenodd" clip-rule="evenodd" d="M15.7281 19.9967L6.49421 6.46509C6.20258 6.03762 6.31272 5.4546 6.74019 5.16298C6.89596 5.05671 7.08021 4.99988 7.26884 5H18.4499C18.7598 4.99988 19.0497 5.15296 19.2244 5.40891L28.8183 19.4682C29.0357 19.7869 29.0357 20.2062 28.8183 20.5249L19.2243 34.5848C19.0496 34.8407 18.7598 34.9938 18.4499 34.9937H7.26873C6.75103 34.9938 6.33135 34.5742 6.33123 34.0565C6.33117 33.8679 6.38805 33.6837 6.49438 33.5279L15.7281 19.9967ZM22.3627 33.528C22.0674 33.9532 22.1727 34.5372 22.5979 34.8325C23.0231 35.1278 23.6072 35.0224 23.9024 34.5972C23.9053 34.5931 23.9081 34.589 23.9109 34.5848L33.505 20.525C33.7229 20.2064 33.7229 19.7868 33.505 19.4682L23.9109 5.40838C23.6152 4.98348 23.031 4.87873 22.6061 5.17446C22.1867 5.46638 22.0784 6.04054 22.3627 6.46527L31.5964 19.9967L22.3627 33.528Z" fill="url(#paint0_linear_1851_2156)"/>
<defs>
<linearGradient id="paint0_linear_1851_2156" x1="33.6685" y1="31.3601" x2="5.29213" y2="29.9784" gradientUnits="userSpaceOnUse">
<stop stop-color="#6356FE"/>
<stop offset="0.303754" stop-color="#764AEF"/>
<stop offset="0.618202" stop-color="#8A3EDF"/>
<stop offset="1" stop-color="#A330CB"/>
</linearGradient>
</defs>
</svg>
