<svg width="40" height="40" viewBox="0 0 40 40" fill="none" xmlns="http://www.w3.org/2000/svg">
<path fill-rule="evenodd" clip-rule="evenodd" d="M12.9311 6.2699C12.9311 5.78589 13.3234 5.39351 13.8074 5.39347L15.8242 5.39331C16.3083 5.39327 16.7007 5.78567 16.7007 6.26973V6.80696H32.1709C33.7336 6.80696 34.998 8.07165 34.998 9.63439C34.998 11.1968 33.7336 12.4615 32.1709 12.4615H16.7007V12.9988C16.7007 13.4829 16.3083 13.8752 15.8243 13.8752H13.8075C13.3235 13.8752 12.9311 13.4829 12.9311 12.9988V6.2699ZM7.82756 6.80726C6.26482 6.80726 5.00012 8.07196 5.00012 9.63469C5.00012 11.1971 6.26482 12.4618 7.82756 12.4618H11.0464V6.80756H7.82756V6.80726ZM28.7951 23.3649C28.7951 23.8489 28.4027 24.2413 27.9187 24.2413H25.9019C25.4179 24.2413 25.0255 23.8489 25.0255 23.3649V16.636C25.0255 16.152 25.4179 15.7596 25.9019 15.7596H27.9187C28.4027 15.7596 28.7951 16.152 28.7951 16.636V17.173H32.1727C33.7354 17.173 35.0001 18.4377 35.0001 20.0004C35.0001 21.5632 33.7354 22.8276 32.1727 22.8276H28.7951V23.3649ZM7.82756 17.1733C6.26482 17.1733 5.00012 18.438 5.00012 20.0007C5.00012 21.5632 6.26482 22.8279 7.82756 22.8279H23.1412V17.1736L7.82756 17.1733ZM21.8837 33.7309C21.8837 34.2149 21.4913 34.6073 21.0073 34.6073H18.9908C18.5068 34.6073 18.1144 34.2149 18.1144 33.7309V27.0027C18.1144 26.5186 18.5068 26.1262 18.9908 26.1262H21.0073C21.4913 26.1262 21.8837 26.5186 21.8837 27.0027V27.5397H32.1706C33.7333 27.5397 34.9977 28.8041 34.9977 30.3668C34.9977 31.9292 33.7333 33.1939 32.1706 33.1939H21.8837V33.7309ZM5.00012 30.3665C5.00012 28.8037 6.26482 27.5394 7.82756 27.5394H16.2295V33.1936H7.82756C6.26482 33.1936 5.00012 31.9292 5.00012 30.3665Z" fill="url(#paint0_linear_1851_2120)"/>
<defs>
<linearGradient id="paint0_linear_1851_2120" x1="5.00012" y1="31.0628" x2="36.1205" y2="29.3551" gradientUnits="userSpaceOnUse">
<stop stop-color="#6356FE"/>
<stop offset="0.303754" stop-color="#764AEF"/>
<stop offset="0.618202" stop-color="#8A3EDF"/>
<stop offset="1" stop-color="#A330CB"/>
</linearGradient>
</defs>
</svg>
