<svg width="40" height="40" viewBox="0 0 40 40" fill="none" xmlns="http://www.w3.org/2000/svg">
<path d="M33.737 23.1902H20.9115C19.2963 23.1902 17.9818 24.5046 17.9818 26.1199V33.7371C17.9818 35.3523 19.2963 36.6668 20.9115 36.6668H33.737C35.3523 36.6668 36.6667 35.3523 36.6667 33.7371V26.1199C36.6667 24.5046 35.3523 23.1902 33.737 23.1902ZM26.1849 32.5001C26.1849 33.0394 25.7477 33.4766 25.2084 33.4766C24.6691 33.4766 24.2318 33.0394 24.2318 32.5001V30.8725H23.0599V32.5001C23.0599 33.0394 22.6227 33.4766 22.0834 33.4766C21.5441 33.4766 21.1068 33.0394 21.1068 32.5001V27.2917C21.1068 26.7524 21.5441 26.3152 22.0834 26.3152C22.6227 26.3152 23.0599 26.7524 23.0599 27.2917V28.9194H24.2318V27.2917C24.2318 26.7524 24.6691 26.3152 25.2084 26.3152C25.7477 26.3152 26.1849 26.7524 26.1849 27.2917V32.5001ZM29.8959 33.4766H28.8542C28.3149 33.4766 27.8776 33.0394 27.8776 32.5001V27.2917C27.8776 26.7524 28.3149 26.3152 28.8542 26.3152H29.8959C31.8703 26.3152 33.4766 27.9215 33.4766 29.8959C33.4766 31.8703 31.8703 33.4766 29.8959 33.4766Z" fill="url(#paint0_linear_1851_2133)"/>
<path d="M29.8959 28.2683H29.8308V31.5235H29.8959C30.7934 31.5235 31.5235 30.7934 31.5235 29.8959C31.5235 28.9985 30.7934 28.2683 29.8959 28.2683Z" fill="url(#paint1_linear_1851_2133)"/>
<path d="M13.7892 13.4709L18.3938 16.6941L26.1551 10.388C26.5436 10.0723 27.1076 10.1016 27.4614 10.4554L33.4766 16.4705V6.26306C33.4766 4.64783 32.1621 3.33337 30.5469 3.33337H6.26306C4.64783 3.33337 3.33337 4.64783 3.33337 6.26306V20.8849L12.6218 13.5062C12.9602 13.2373 13.4353 13.223 13.7892 13.4709ZM18.4375 5.48181C20.412 5.48181 22.0183 7.08813 22.0183 9.06254C22.0183 11.037 20.412 12.6433 18.4375 12.6433C16.4631 12.6433 14.8568 11.037 14.8568 9.06254C14.8568 7.08813 16.4631 5.48181 18.4375 5.48181Z" fill="url(#paint2_linear_1851_2133)"/>
<path d="M18.4375 10.6901C19.3364 10.6901 20.0651 9.96144 20.0651 9.06254C20.0651 8.16364 19.3364 7.43494 18.4375 7.43494C17.5386 7.43494 16.8099 8.16364 16.8099 9.06254C16.8099 9.96144 17.5386 10.6901 18.4375 10.6901Z" fill="url(#paint3_linear_1851_2133)"/>
<path d="M33.4766 21.237V19.2327L26.7031 12.4592L19.0534 18.6747C18.7148 18.9497 18.235 18.967 17.8775 18.7167L13.2661 15.4888L3.38741 23.3363C3.36977 23.3503 3.3516 23.363 3.33337 23.3756V26.3803C3.33337 27.9955 4.64783 29.3099 6.26306 29.3099H16.0287V26.1198C16.0287 23.4271 18.2188 21.237 20.9115 21.237H33.4766Z" fill="url(#paint4_linear_1851_2133)"/>
<defs>
<linearGradient id="paint0_linear_1851_2133" x1="17.9818" y1="35.0316" x2="37.3167" y2="33.5992" gradientUnits="userSpaceOnUse">
<stop stop-color="#6356FE"/>
<stop offset="0.303754" stop-color="#764AEF"/>
<stop offset="0.618202" stop-color="#8A3EDF"/>
<stop offset="1" stop-color="#A330CB"/>
</linearGradient>
<linearGradient id="paint1_linear_1851_2133" x1="29.8308" y1="31.1286" x2="31.5907" y2="31.0797" gradientUnits="userSpaceOnUse">
<stop stop-color="#6356FE"/>
<stop offset="0.303754" stop-color="#764AEF"/>
<stop offset="0.618202" stop-color="#8A3EDF"/>
<stop offset="1" stop-color="#A330CB"/>
</linearGradient>
<linearGradient id="paint2_linear_1851_2133" x1="3.33337" y1="18.7553" x2="34.4345" y2="15.9012" gradientUnits="userSpaceOnUse">
<stop stop-color="#6356FE"/>
<stop offset="0.303754" stop-color="#764AEF"/>
<stop offset="0.618202" stop-color="#8A3EDF"/>
<stop offset="1" stop-color="#A330CB"/>
</linearGradient>
<linearGradient id="paint3_linear_1851_2133" x1="16.8099" y1="10.2952" x2="20.1872" y2="10.1147" gradientUnits="userSpaceOnUse">
<stop stop-color="#6356FE"/>
<stop offset="0.303754" stop-color="#764AEF"/>
<stop offset="0.618202" stop-color="#8A3EDF"/>
<stop offset="1" stop-color="#A330CB"/>
</linearGradient>
<linearGradient id="paint4_linear_1851_2133" x1="3.33337" y1="27.2654" x2="34.4125" y2="24.2947" gradientUnits="userSpaceOnUse">
<stop stop-color="#6356FE"/>
<stop offset="0.303754" stop-color="#764AEF"/>
<stop offset="0.618202" stop-color="#8A3EDF"/>
<stop offset="1" stop-color="#A330CB"/>
</linearGradient>
</defs>
</svg>
