<svg width="40" height="40" viewBox="0 0 40 40" fill="none" xmlns="http://www.w3.org/2000/svg">
<path fill-rule="evenodd" clip-rule="evenodd" d="M32.9342 16.0862C34.0061 16.7962 35.0001 18.1691 35.0001 20.0098C35.0001 21.8505 34.0061 23.2235 32.9342 23.9335C33.9866 27.1428 31.8359 30.7506 28.6135 31.19C28.2643 33.2241 26.6422 34.8035 24.6411 34.9953V25.0365L25.3571 24.32C27.1548 25.2417 29.3692 23.8763 29.3497 21.8472C29.3497 20.3239 28.1104 19.0846 26.5871 19.0846C24.5584 19.065 23.1932 21.2788 24.1139 23.0764L23.14 24.0509C22.9753 24.2158 22.8827 24.4393 22.8827 24.6724V34.7313C21.7013 34.2111 20.8742 33.0298 20.8742 31.6583V20.6987C23.7977 19.6674 23.1339 15.3796 19.995 15.3177C16.8566 15.3793 16.1919 19.6668 19.1158 20.6987V31.6583C19.1158 33.0297 18.2886 34.211 17.1073 34.7313V24.6724C17.1073 24.4393 17.0147 24.2158 16.85 24.0509L15.876 23.0763C16.7969 21.2787 15.4315 19.0652 13.4028 19.0846C11.8795 19.0846 10.6403 20.3239 10.6403 21.8472C10.6206 23.8763 12.8352 25.2414 14.6328 24.3199L15.3489 25.0364V34.9952C13.3478 34.8035 11.7257 33.2241 11.3765 31.19C8.15446 30.7507 6.00323 27.1432 7.05575 23.9334C4.31662 22.1496 4.31304 17.8733 7.05575 16.0862C6.0034 12.8769 8.15405 9.26913 11.3765 8.82971C11.7492 6.65825 13.5726 5.00476 15.7591 5.00476C20.2109 5.1884 20.2119 11.5338 15.7591 11.7179C15.2735 11.7179 14.8799 12.1116 14.8799 12.5972C14.8799 13.0827 15.2735 13.4764 15.7591 13.4764C17.5192 13.4764 19.0742 12.583 19.9949 11.2258C20.9156 12.583 22.4708 13.4764 24.2308 13.4764C24.7163 13.4764 25.11 13.0827 25.11 12.5972C25.11 12.1116 24.7163 11.7179 24.2308 11.7179C19.7796 11.5344 19.7771 5.18957 24.2308 5.00476C26.4173 5.00476 28.2407 6.65825 28.6134 8.82971C31.8355 9.26896 33.9867 12.8765 32.9342 16.0862ZM18.9907 18.0803C18.9907 17.5266 19.4413 17.0761 19.995 17.0761C20.5488 17.0761 20.9993 17.5266 20.9993 18.0803C20.9443 19.4122 19.0459 19.4126 18.9907 18.0803ZM12.3987 21.8472C12.3987 22.4009 12.8492 22.8514 13.403 22.8514C14.7353 22.7963 14.7349 20.8979 13.403 20.8429C12.8492 20.8429 12.3987 21.2934 12.3987 21.8472ZM26.5871 20.843C27.1408 20.843 27.5913 21.2935 27.5913 21.8472C27.5913 22.4009 27.1408 22.8514 26.5871 22.8515C25.2552 22.7965 25.2548 20.8981 26.5871 20.843Z" fill="url(#paint0_linear_1871_10019)"/>
<defs>
<linearGradient id="paint0_linear_1871_10019" x1="5.00006" y1="31.3565" x2="36.1252" y2="29.6928" gradientUnits="userSpaceOnUse">
<stop stop-color="#6356FE"/>
<stop offset="0.303754" stop-color="#764AEF"/>
<stop offset="0.618202" stop-color="#8A3EDF"/>
<stop offset="1" stop-color="#A330CB"/>
</linearGradient>
</defs>
</svg>
