<svg width="24" height="24" viewBox="0 0 24 24" fill="none" xmlns="http://www.w3.org/2000/svg">
<path fill-rule="evenodd" clip-rule="evenodd" d="M9.59815 3.38867H14.406C14.6624 3.38867 14.8703 3.59652 14.8703 3.85293V6.18644C14.8703 6.44285 14.6624 6.6507 14.406 6.6507H9.59815C9.34174 6.6507 9.13389 6.44285 9.13389 6.18644V3.85293C9.13389 3.59652 9.34174 3.38867 9.59815 3.38867ZM21.5357 8.0424H16.7273C16.4709 8.0424 16.2631 8.25025 16.2631 8.50666V10.8396C16.2631 11.096 16.4709 11.3039 16.7273 11.3039H21.5357C21.7922 11.3039 22 11.096 22 10.8396V8.50666C22 8.25025 21.7922 8.0424 21.5357 8.0424ZM7.27219 8.04352H2.46426C2.20785 8.04352 2 8.25137 2 8.50778V10.8396C2 11.0961 2.20785 11.3039 2.46426 11.3039H7.27219C7.5286 11.3039 7.73645 11.0961 7.73645 10.8396V8.50778C7.73645 8.25137 7.5286 8.04352 7.27219 8.04352ZM14.406 8.04352H9.59866C9.34225 8.04352 9.1344 8.25137 9.1344 8.50778V15.4928C9.1344 15.7492 9.34225 15.9571 9.59866 15.9571H14.406C14.6624 15.9571 14.8703 15.7492 14.8703 15.4928V8.50778C14.8703 8.25137 14.6624 8.04352 14.406 8.04352ZM16.7273 12.6961H21.5357C21.7922 12.6961 22 12.904 22 13.1604V15.4928C22 15.7492 21.7922 15.9571 21.5357 15.9571H16.7273C16.4709 15.9571 16.2631 15.7492 16.2631 15.4928V13.1604C16.2631 12.904 16.4709 12.6961 16.7273 12.6961ZM7.27219 3.38869H2.46426C2.20785 3.38869 2 3.59654 2 3.85294V6.18646C2 6.44287 2.20785 6.65072 2.46426 6.65072H7.27219C7.52859 6.65072 7.73644 6.44287 7.73644 6.18646V3.85294C7.73644 3.59654 7.52859 3.38869 7.27219 3.38869ZM2.4695 12.6956H7.27743C7.53383 12.6956 7.74169 12.9035 7.74169 13.1599V15.4928C7.74169 15.7492 7.53383 15.9571 7.27743 15.9571H2.4695C2.21309 15.9571 2.00524 15.7492 2.00524 15.4928V13.1599C2.00524 12.9035 2.21309 12.6956 2.4695 12.6956ZM14.406 17.3499H9.59866C9.34229 17.3499 9.1344 17.5577 9.1344 17.8141V20.147C9.1344 20.4034 9.34225 20.6113 9.59866 20.6113H14.406C14.6624 20.6113 14.8703 20.4034 14.8703 20.147V17.8141C14.8703 17.5577 14.6624 17.3499 14.406 17.3499ZM16.7273 17.35H21.5357C21.7922 17.35 22 17.5578 22 17.8142V20.1471C22 20.4035 21.7922 20.6114 21.5357 20.6114H16.7273C16.4709 20.6114 16.2631 20.4035 16.2631 20.1471V17.8142C16.2631 17.5578 16.4709 17.35 16.7273 17.35Z" fill="url(#paint0_linear_1682_8071)"/>
<defs>
<linearGradient id="paint0_linear_1682_8071" x1="2" y1="18.5218" x2="22.7296" y2="17.2354" gradientUnits="userSpaceOnUse">
<stop stop-color="#6356FE"/>
<stop offset="0.303754" stop-color="#764AEF"/>
<stop offset="0.618202" stop-color="#8A3EDF"/>
<stop offset="1" stop-color="#A330CB"/>
</linearGradient>
</defs>
</svg>
