<svg width="24" height="24" viewBox="0 0 24 24" fill="none" xmlns="http://www.w3.org/2000/svg">
<path d="M19.5517 8.38983H15.6108V4.44833C15.6108 3.64968 14.9611 3 14.1623 3H4.4484C3.64979 3 3 3.64968 3 4.44833V14.1624C3 14.961 3.64979 15.6107 4.4484 15.6107H8.38997V19.5523C8.38997 20.3508 9.03962 21.0006 9.83823 21.0006H19.5516C20.3504 21.0006 21 20.3508 21 19.5523V9.83823C21 9.03958 20.3504 8.38983 19.5517 8.38983ZM4.83111 13.7798V4.83104H13.7798V8.38983H9.83823C9.03962 8.38983 8.38997 9.03958 8.38997 9.83823V13.7798H4.83111ZM19.169 19.1696H10.2209V15.6107H14.1623C14.9611 15.6107 15.6107 14.961 15.6107 14.1624V10.2209H19.1689V19.1696H19.169Z" fill="url(#paint0_linear_1682_8107)"/>
<defs>
<linearGradient id="paint0_linear_1682_8107" x1="3" y1="18.8166" x2="21.6751" y2="17.8187" gradientUnits="userSpaceOnUse">
<stop stop-color="#6356FE"/>
<stop offset="0.303754" stop-color="#764AEF"/>
<stop offset="0.618202" stop-color="#8A3EDF"/>
<stop offset="1" stop-color="#A330CB"/>
</linearGradient>
</defs>
</svg>
