<svg width="24" height="24" viewBox="0 0 24 24" fill="none" xmlns="http://www.w3.org/2000/svg">
<path fill-rule="evenodd" clip-rule="evenodd" d="M18.0698 4.67454V8.02338C18.0698 8.36998 18.3511 8.65128 18.6977 8.65128C19.0443 8.65128 19.3256 8.36998 19.3256 8.02338V4.67454C19.3256 4.32793 19.0443 4.04663 18.6977 4.04663C18.3511 4.04663 18.0698 4.32793 18.0698 4.67454Z" fill="url(#paint0_linear_1698_17958)"/>
<path fill-rule="evenodd" clip-rule="evenodd" d="M17.0233 6.97676H20.3721C20.7187 6.97676 21 6.69546 21 6.34885C21 6.00225 20.7187 5.72095 20.3721 5.72095H17.0233C16.6767 5.72095 16.3954 6.00225 16.3954 6.34885C16.3954 6.69546 16.6767 6.97676 17.0233 6.97676Z" fill="url(#paint1_linear_1698_17958)"/>
<path fill-rule="evenodd" clip-rule="evenodd" d="M20.4709 7.81058C20.4382 7.81309 20.4056 7.81393 20.3721 7.81393H20.1628V8.02323C20.1628 8.83197 19.5064 9.48834 18.6977 9.48834C17.8889 9.48834 17.2326 8.83197 17.2326 8.02323V7.81393H17.0233C16.2145 7.81393 15.5581 7.15755 15.5581 6.34881C15.5581 6.02983 15.6603 5.73513 15.8327 5.49486L15.7231 5.27467C15.4753 4.77904 14.9679 4.46509 14.4128 4.46509C13.3019 4.46509 10.6981 4.46509 9.58716 4.46509C9.03209 4.46509 8.52474 4.77904 8.27693 5.27467L7.48409 6.86118C7.44809 6.93151 7.37609 6.97672 7.29656 6.97672H5.30233C4.0306 6.97672 3 8.00732 3 9.27904V17.6511C3 18.2615 3.24279 18.8475 3.67395 19.2795C4.10595 19.7107 4.692 19.9535 5.30233 19.9535H18.6977C19.308 19.9535 19.894 19.7107 20.326 19.2795C20.7572 18.8475 21 18.2615 21 17.6511V9.27904C21 8.72062 20.8016 8.20909 20.4709 7.81058ZM12 9.06974C9.80484 9.06974 8.02326 10.8513 8.02326 13.0465C8.02326 15.2416 9.80484 17.0232 12 17.0232C14.1952 17.0232 15.9767 15.2416 15.9767 13.0465C15.9767 10.8513 14.1952 9.06974 12 9.06974ZM12 10.3256C13.502 10.3256 14.7209 11.5445 14.7209 13.0465C14.7209 14.5484 13.502 15.7674 12 15.7674C10.498 15.7674 9.27907 14.5484 9.27907 13.0465C9.27907 11.5445 10.498 10.3256 12 10.3256Z" fill="url(#paint2_linear_1698_17958)"/>
<defs>
<linearGradient id="paint0_linear_1698_17958" x1="18.0698" y1="8.0926" x2="19.3762" y2="8.07356" gradientUnits="userSpaceOnUse">
<stop stop-color="#6356FE"/>
<stop offset="0.303754" stop-color="#764AEF"/>
<stop offset="0.618202" stop-color="#8A3EDF"/>
<stop offset="1" stop-color="#A330CB"/>
</linearGradient>
<linearGradient id="paint1_linear_1698_17958" x1="16.3954" y1="6.82439" x2="21.0093" y2="5.9204" gradientUnits="userSpaceOnUse">
<stop stop-color="#6356FE"/>
<stop offset="0.303754" stop-color="#764AEF"/>
<stop offset="0.618202" stop-color="#8A3EDF"/>
<stop offset="1" stop-color="#A330CB"/>
</linearGradient>
<linearGradient id="paint2_linear_1698_17958" x1="3" y1="18.0742" x2="21.6565" y2="16.9157" gradientUnits="userSpaceOnUse">
<stop stop-color="#6356FE"/>
<stop offset="0.303754" stop-color="#764AEF"/>
<stop offset="0.618202" stop-color="#8A3EDF"/>
<stop offset="1" stop-color="#A330CB"/>
</linearGradient>
</defs>
</svg>
