<svg width="24" height="24" viewBox="0 0 24 24" fill="none" xmlns="http://www.w3.org/2000/svg">
<path d="M21.2857 17.7143H19.1428V15.5715C19.1428 15.382 19.0676 15.2003 18.9336 15.0664C18.7997 14.9324 18.618 14.8572 18.4285 14.8572C18.2391 14.8572 18.0574 14.9324 17.9235 15.0664C17.7895 15.2003 17.7143 15.382 17.7143 15.5715V17.7143H15.5714C15.382 17.7143 15.2003 17.7896 15.0663 17.9235C14.9324 18.0575 14.8571 18.2392 14.8571 18.4286C14.8571 18.618 14.9324 18.7997 15.0663 18.9337C15.2003 19.0676 15.382 19.1429 15.5714 19.1429H17.7143V21.2857C17.7143 21.4752 17.7895 21.6569 17.9235 21.7908C18.0574 21.9248 18.2391 22 18.4285 22C18.618 22 18.7997 21.9248 18.9336 21.7908C19.0676 21.6569 19.1428 21.4752 19.1428 21.2857V19.1429H21.2857C21.4751 19.1429 21.6568 19.0676 21.7908 18.9337C21.9247 18.7997 22 18.618 22 18.4286C22 18.2392 21.9247 18.0575 21.7908 17.9235C21.6568 17.7896 21.4751 17.7143 21.2857 17.7143Z" fill="url(#paint0_linear_1698_17968)"/>
<path d="M12.7143 17.7143H4.14286C3.95342 17.7143 3.77174 17.639 3.63778 17.5051C3.50383 17.3711 3.42857 17.1894 3.42857 17V4.14286C3.42857 3.95342 3.50383 3.77174 3.63778 3.63778C3.77174 3.50383 3.95342 3.42857 4.14286 3.42857H17C17.1894 3.42857 17.3711 3.50383 17.5051 3.63778C17.639 3.77174 17.7143 3.95342 17.7143 4.14286V12.7143C17.7143 12.9037 17.7895 13.0854 17.9235 13.2194C18.0574 13.3533 18.2391 13.4286 18.4286 13.4286C18.618 13.4286 18.7997 13.3533 18.9336 13.2194C19.0676 13.0854 19.1429 12.9037 19.1429 12.7143V4.14286C19.1429 3.57454 18.9171 3.02949 18.5152 2.62763C18.1134 2.22576 17.5683 2 17 2H4.14286C3.57454 2 3.02949 2.22576 2.62763 2.62763C2.22576 3.02949 2 3.57454 2 4.14286V17C2 17.5683 2.22576 18.1134 2.62763 18.5152C3.02949 18.9171 3.57454 19.1429 4.14286 19.1429H12.7143C12.9037 19.1429 13.0854 19.0676 13.2194 18.9336C13.3533 18.7997 13.4286 18.618 13.4286 18.4286C13.4286 18.2391 13.3533 18.0574 13.2194 17.9235C13.0854 17.7895 12.9037 17.7143 12.7143 17.7143Z" fill="url(#paint1_linear_1698_17968)"/>
<path d="M8.4286 8.42861C9.41482 8.42861 10.2143 7.62911 10.2143 6.64289C10.2143 5.65667 9.41482 4.85718 8.4286 4.85718C7.44237 4.85718 6.64288 5.65667 6.64288 6.64289C6.64288 7.62911 7.44237 8.42861 8.4286 8.42861Z" fill="url(#paint2_linear_1698_17968)"/>
<path d="M5.77855 10.7785L4.85712 11.707V16.2856H16.2857V11.707L13.2214 8.6356C13.155 8.56865 13.076 8.51551 12.989 8.47925C12.9019 8.44299 12.8086 8.42432 12.7143 8.42432C12.62 8.42432 12.5266 8.44299 12.4396 8.47925C12.3525 8.51551 12.2735 8.56865 12.2071 8.6356L8.42855 12.4213L6.79283 10.7785C6.72643 10.7115 6.64743 10.6584 6.56039 10.6221C6.47334 10.5858 6.37998 10.5672 6.28569 10.5672C6.19139 10.5672 6.09803 10.5858 6.01099 10.6221C5.92395 10.6584 5.84495 10.7115 5.77855 10.7785Z" fill="url(#paint3_linear_1698_17968)"/>
<defs>
<linearGradient id="paint0_linear_1698_17968" x1="14.8571" y1="21.1334" x2="22.2679" y2="20.7374" gradientUnits="userSpaceOnUse">
<stop stop-color="#6356FE"/>
<stop offset="0.303754" stop-color="#764AEF"/>
<stop offset="0.618202" stop-color="#8A3EDF"/>
<stop offset="1" stop-color="#A330CB"/>
</linearGradient>
<linearGradient id="paint1_linear_1698_17968" x1="2" y1="17.0629" x2="19.7858" y2="16.1125" gradientUnits="userSpaceOnUse">
<stop stop-color="#6356FE"/>
<stop offset="0.303754" stop-color="#764AEF"/>
<stop offset="0.618202" stop-color="#8A3EDF"/>
<stop offset="1" stop-color="#A330CB"/>
</linearGradient>
<linearGradient id="paint2_linear_1698_17968" x1="6.64288" y1="7.99528" x2="10.3483" y2="7.79729" gradientUnits="userSpaceOnUse">
<stop stop-color="#6356FE"/>
<stop offset="0.303754" stop-color="#764AEF"/>
<stop offset="0.618202" stop-color="#8A3EDF"/>
<stop offset="1" stop-color="#A330CB"/>
</linearGradient>
<linearGradient id="paint3_linear_1698_17968" x1="4.85712" y1="15.3318" x2="16.6769" y2="14.4136" gradientUnits="userSpaceOnUse">
<stop stop-color="#6356FE"/>
<stop offset="0.303754" stop-color="#764AEF"/>
<stop offset="0.618202" stop-color="#8A3EDF"/>
<stop offset="1" stop-color="#A330CB"/>
</linearGradient>
</defs>
</svg>
