<svg width="40" height="40" viewBox="0 0 40 40" fill="none" xmlns="http://www.w3.org/2000/svg">
<path d="M15.152 12.7002H11.9343C11.447 12.7002 11.0519 13.0953 11.0519 13.5825V24.2245L16.2469 19.0302C15.242 17.061 14.8773 14.8471 15.152 12.7002Z" fill="url(#paint0_linear_1963_6881)"/>
<path d="M19.4316 22.7987C18.5757 22.1593 17.8237 21.4012 17.2042 20.5695C15.973 21.8003 6.68781 31.0832 5.46111 32.3096C4.8463 32.9237 4.8463 33.9236 5.46111 34.5377C6.07511 35.1527 7.0724 35.1548 7.68969 34.5377C7.95692 34.2705 19.0997 23.1304 19.4316 22.7987Z" fill="url(#paint1_linear_1963_6881)"/>
<path d="M20.9683 23.7576L15.7768 28.9483H26.4216C26.9089 28.9483 27.304 28.5532 27.304 28.066V24.8557C25.202 25.1234 22.98 24.789 20.9683 23.7576Z" fill="url(#paint2_linear_1963_6881)"/>
<path d="M32.341 7.66437C28.7899 4.11263 23.0382 4.11145 19.4858 7.66437C15.9541 11.1949 15.9282 16.9602 19.4858 20.5172C23.0305 24.0607 28.7775 24.0802 32.341 20.5172C35.8863 16.9731 35.8863 11.2073 32.341 7.66437ZM24.1687 10.9355H21.7876C21.344 10.8885 20.9993 10.5138 20.9993 10.0585C20.9993 9.57142 21.394 9.17671 21.8823 9.17671H24.074C24.5617 9.17671 24.9564 9.57142 24.9564 10.0585C24.9564 10.5173 24.6064 10.8914 24.1687 10.9355ZM30.8281 18.1208C30.8281 18.6078 30.4328 19.0031 29.9458 19.0031C29.4922 19.0031 29.1187 18.6608 29.0693 18.2208V15.8284C29.1181 15.389 29.4922 15.0467 29.9458 15.0467C30.4328 15.0467 30.8281 15.4414 30.8281 15.929V18.1208ZM30.8281 12.2508C30.8281 12.7385 30.4328 13.1332 29.9458 13.1332C29.4922 13.1332 29.1187 12.7914 29.0693 12.3508V10.9355H27.6581C27.2152 10.8885 26.8705 10.5138 26.8705 10.0585C26.8705 9.57142 27.2658 9.17671 27.7528 9.17671H29.9458C30.4328 9.17671 30.8281 9.57142 30.8281 10.0585V12.2508Z" fill="url(#paint3_linear_1963_6881)"/>
<defs>
<linearGradient id="paint0_linear_1963_6881" x1="11.0519" y1="22.8262" x2="16.454" y2="22.6961" gradientUnits="userSpaceOnUse">
<stop stop-color="#6356FE"/>
<stop offset="0.303754" stop-color="#764AEF"/>
<stop offset="0.618202" stop-color="#8A3EDF"/>
<stop offset="1" stop-color="#A330CB"/>
</linearGradient>
<linearGradient id="paint1_linear_1963_6881" x1="5" y1="33.2489" x2="19.9728" y2="32.4488" gradientUnits="userSpaceOnUse">
<stop stop-color="#6356FE"/>
<stop offset="0.303754" stop-color="#764AEF"/>
<stop offset="0.618202" stop-color="#8A3EDF"/>
<stop offset="1" stop-color="#A330CB"/>
</linearGradient>
<linearGradient id="paint2_linear_1963_6881" x1="15.7768" y1="28.3185" x2="27.6039" y2="26.915" gradientUnits="userSpaceOnUse">
<stop stop-color="#6356FE"/>
<stop offset="0.303754" stop-color="#764AEF"/>
<stop offset="0.618202" stop-color="#8A3EDF"/>
<stop offset="1" stop-color="#A330CB"/>
</linearGradient>
<linearGradient id="paint3_linear_1963_6881" x1="16.8273" y1="20.9761" x2="35.6816" y2="19.9691" gradientUnits="userSpaceOnUse">
<stop stop-color="#6356FE"/>
<stop offset="0.303754" stop-color="#764AEF"/>
<stop offset="0.618202" stop-color="#8A3EDF"/>
<stop offset="1" stop-color="#A330CB"/>
</linearGradient>
</defs>
</svg>
