<svg width="40" height="40" viewBox="0 0 40 40" fill="none" xmlns="http://www.w3.org/2000/svg">
<path d="M34.299 17.7091C32.6743 17.3685 31.4045 16.0986 31.064 14.4741C30.9784 14.0656 30.6181 13.7729 30.2006 13.7729C29.7833 13.7729 29.4229 14.0655 29.3373 14.474C28.9967 16.0986 27.7269 17.3685 26.1023 17.709C25.6938 17.7946 25.4012 18.1549 25.4012 18.5723C25.4012 18.9897 25.6938 19.3499 26.1023 19.4356C27.7269 19.7762 28.9967 21.0459 29.3372 22.6706C29.4228 23.0791 29.783 23.3717 30.2005 23.3717C30.6178 23.3717 30.9781 23.0791 31.0638 22.6706C31.4045 21.0461 32.6743 19.7762 34.2989 19.4357C34.7074 19.3501 35 18.9899 35 18.5724C35 18.155 34.7074 17.7947 34.299 17.7091Z" fill="url(#paint0_linear_1963_6993)"/>
<path d="M17.7136 10.9697C16.3859 10.6914 15.3483 9.65369 15.07 8.32607C14.9844 7.91762 14.6242 7.625 14.2067 7.625C13.7893 7.625 13.429 7.91756 13.3434 8.32607C13.0651 9.65369 12.0274 10.6913 10.6998 10.9696C10.2913 11.0552 9.99866 11.4155 9.99866 11.8329C9.99866 12.2503 10.2913 12.6106 10.6997 12.6962C12.0273 12.9745 13.065 14.0122 13.3433 15.3398C13.4289 15.7483 13.7891 16.0409 14.2066 16.0409C14.624 16.0409 14.9843 15.7483 15.0699 15.3398C15.3483 14.0122 16.3859 12.9746 17.7135 12.6963C18.122 12.6107 18.4146 12.2505 18.4146 11.833C18.4146 11.4157 18.122 11.0554 17.7136 10.9697Z" fill="url(#paint1_linear_1963_6993)"/>
<path d="M27.4792 24.2396C26.1516 23.9613 25.114 22.9236 24.8357 21.596C24.7501 21.1875 24.3898 20.8949 23.9724 20.8949C23.5549 20.8949 23.1947 21.1875 23.109 21.596C22.8308 22.9236 21.7931 23.9612 20.4655 24.2395C20.057 24.3251 19.7643 24.6854 19.7643 25.1028C19.7643 25.5202 20.057 25.8804 20.4655 25.9661C21.793 26.2444 22.8307 27.2821 23.109 28.6097C23.1946 29.0183 23.5548 29.3108 23.9723 29.3108C24.3897 29.3108 24.7499 29.0183 24.8356 28.6097C25.1139 27.2821 26.1516 26.2445 27.4792 25.9662C27.8877 25.8806 28.1803 25.5203 28.1803 25.1029C28.1803 24.6855 27.8877 24.3252 27.4792 24.2396Z" fill="url(#paint2_linear_1963_6993)"/>
<path d="M20.1462 13.4031L5.25843 28.2909C5.09296 28.4563 5.00003 28.6806 5.00003 28.9146C5.00003 29.1485 5.09296 29.3728 5.25843 29.5382L7.83684 32.1166C8.0091 32.2888 8.23481 32.375 8.46051 32.375C8.68621 32.375 8.91203 32.289 9.08418 32.1166L23.972 17.2289L20.1462 13.4031Z" fill="url(#paint3_linear_1963_6993)"/>
<path d="M27.6562 12.2973L25.0777 9.71893C24.7333 9.37445 24.1748 9.37445 23.8303 9.71893L21.3935 12.1557L25.2193 15.9815L27.6561 13.5447C27.8215 13.3793 27.9145 13.155 27.9145 12.9211C27.9145 12.6872 27.8217 12.4628 27.6562 12.2973Z" fill="url(#paint4_linear_1963_6993)"/>
<defs>
<linearGradient id="paint0_linear_1963_6993" x1="25.4012" y1="22.2071" x2="35.3601" y2="21.6749" gradientUnits="userSpaceOnUse">
<stop stop-color="#6356FE"/>
<stop offset="0.303754" stop-color="#764AEF"/>
<stop offset="0.618202" stop-color="#8A3EDF"/>
<stop offset="1" stop-color="#A330CB"/>
</linearGradient>
<linearGradient id="paint1_linear_1963_6993" x1="9.99866" y1="15.0198" x2="18.7303" y2="14.5532" gradientUnits="userSpaceOnUse">
<stop stop-color="#6356FE"/>
<stop offset="0.303754" stop-color="#764AEF"/>
<stop offset="0.618202" stop-color="#8A3EDF"/>
<stop offset="1" stop-color="#A330CB"/>
</linearGradient>
<linearGradient id="paint2_linear_1963_6993" x1="19.7643" y1="28.2897" x2="28.496" y2="27.8231" gradientUnits="userSpaceOnUse">
<stop stop-color="#6356FE"/>
<stop offset="0.303754" stop-color="#764AEF"/>
<stop offset="0.618202" stop-color="#8A3EDF"/>
<stop offset="1" stop-color="#A330CB"/>
</linearGradient>
<linearGradient id="paint3_linear_1963_6993" x1="5.00003" y1="30.0732" x2="24.6836" y2="29.0214" gradientUnits="userSpaceOnUse">
<stop stop-color="#6356FE"/>
<stop offset="0.303754" stop-color="#764AEF"/>
<stop offset="0.618202" stop-color="#8A3EDF"/>
<stop offset="1" stop-color="#A330CB"/>
</linearGradient>
<linearGradient id="paint4_linear_1963_6993" x1="21.3935" y1="15.1903" x2="28.159" y2="14.8288" gradientUnits="userSpaceOnUse">
<stop stop-color="#6356FE"/>
<stop offset="0.303754" stop-color="#764AEF"/>
<stop offset="0.618202" stop-color="#8A3EDF"/>
<stop offset="1" stop-color="#A330CB"/>
</linearGradient>
</defs>
</svg>
