<svg width="24" height="24" viewBox="0 0 24 24" fill="none" xmlns="http://www.w3.org/2000/svg">
<path d="M11.0001 9.00006C11.0001 10.1046 10.1045 11.0001 9 11.0001C7.89551 11.0001 6.99994 10.1046 6.99994 9.00006C6.99994 7.89557 7.89551 7 9 7C10.1045 7 11.0001 7.89557 11.0001 9.00006Z" fill="url(#paint0_linear_971_10514)"/>
<path d="M21.1667 17.8333H19.5V7C19.5 5.62167 18.3783 4.5 17 4.5H6.16672V2.83328C6.16672 2.37338 5.7941 2 5.33328 2C4.87247 2 4.5 2.37338 4.5 2.83328V4.5H2.83328C2.37247 4.5 2 4.87338 2 5.33328C2 5.79333 2.37247 6.16672 2.83328 6.16672H4.5V17C4.5 18.3783 5.62167 19.5 7 19.5H17.8333V21.1667C17.8333 21.6266 18.2059 22 18.6667 22C19.1275 22 19.5 21.6266 19.5 21.1667V19.5H21.1667C21.6275 19.5 22 19.1266 22 18.6667C22 18.2067 21.6275 17.8333 21.1667 17.8333ZM17 6.16672C17.4601 6.16672 17.8333 6.54086 17.8333 7V12.7834L15.95 10.9C15.4 10.3492 14.4333 10.3492 13.8834 10.9L9.91672 14.8667L8.86661 13.8167C8.31668 13.2659 7.35004 13.2659 6.79996 13.8167L6.16672 14.4492V6.16672H17Z" fill="url(#paint1_linear_971_10514)"/>
<defs>
<linearGradient id="paint0_linear_971_10514" x1="6.99994" y1="10.5148" x2="11.1501" y2="10.293" gradientUnits="userSpaceOnUse">
<stop stop-color="#6356FE"/>
<stop offset="0.303754" stop-color="#764AEF"/>
<stop offset="0.618202" stop-color="#8A3EDF"/>
<stop offset="1" stop-color="#A330CB"/>
</linearGradient>
<linearGradient id="paint1_linear_971_10514" x1="2" y1="19.5734" x2="22.7501" y2="18.4646" gradientUnits="userSpaceOnUse">
<stop stop-color="#6356FE"/>
<stop offset="0.303754" stop-color="#764AEF"/>
<stop offset="0.618202" stop-color="#8A3EDF"/>
<stop offset="1" stop-color="#A330CB"/>
</linearGradient>
</defs>
</svg>
