<svg width="24" height="24" viewBox="0 0 24 24" fill="none" xmlns="http://www.w3.org/2000/svg">
<path d="M14.174 16.7438C13.4753 17.0617 12.7157 17.2233 11.9481 17.2173C11.1805 17.2113 10.4235 17.0378 9.72987 16.709C9.8102 17.1568 9.79595 17.6165 9.68803 18.0584C9.58011 18.5004 9.38092 18.9149 9.10325 19.2753C8.82558 19.6357 8.47558 19.934 8.07575 20.1511C7.67591 20.3681 7.23509 20.4991 6.7816 20.5356C8.32526 21.4767 10.0951 21.9818 11.903 21.9971C13.7108 22.0124 15.489 21.5374 17.0484 20.6226C16.5958 20.578 16.1575 20.4391 15.7619 20.2148C15.3663 19.9905 15.022 19.6859 14.7512 19.3205C14.4804 18.9551 14.2892 18.537 14.1898 18.0932C14.0904 17.6495 14.085 17.1898 14.174 16.7438Z" fill="url(#paint0_linear_1057_3738)"/>
<path d="M7.21647 14.1041C6.92483 13.441 6.77664 12.7238 6.78162 11.9995C6.78162 7.27701 12.5868 5.0071 15.796 8.42066C18.0268 10.6514 21.2447 7.69011 19.4661 5.37672C13.6653 -1.4156 1.99829 2.65892 1.99829 11.9995C2.00032 13.7186 2.44992 15.4076 3.30283 16.9002C3.35691 16.4509 3.50402 16.0178 3.73479 15.6285C3.96555 15.2392 4.27491 14.9023 4.64313 14.6392C5.01136 14.3762 5.43036 14.1927 5.87343 14.1006C6.31649 14.0084 6.7739 14.0096 7.21647 14.1041Z" fill="url(#paint1_linear_1057_3738)"/>
<path d="M8.30792 15.6913C7.99012 15.3356 7.57321 15.083 7.11078 14.9661C6.64834 14.8491 6.16149 14.8731 5.7128 15.035C5.26411 15.1969 4.87407 15.4892 4.5928 15.8744C4.31153 16.2597 4.15188 16.7202 4.13436 17.1969C4.11685 17.6736 4.24227 18.1446 4.49451 18.5495C4.74674 18.9543 5.11428 19.2745 5.54988 19.4688C5.98548 19.6632 6.46925 19.7229 6.93902 19.6402C7.4088 19.5575 7.84311 19.3362 8.18617 19.0048C8.62977 18.5747 8.8901 17.9899 8.91279 17.3725C8.93548 16.7551 8.71877 16.1527 8.30792 15.6913Z" fill="url(#paint2_linear_1057_3738)"/>
<path d="M20.7967 7.24658C20.7363 7.69775 20.5818 8.13121 20.3433 8.51892C20.1048 8.90663 19.7876 9.23997 19.4121 9.49736C19.0367 9.75476 18.6114 9.93049 18.1638 10.0132C17.7162 10.0959 17.2562 10.0837 16.8135 9.97743C17.2156 10.9335 17.3235 11.9877 17.1237 13.0054C16.9239 14.0231 16.4253 14.9582 15.6916 15.6913C15.4698 15.9132 15.2938 16.1766 15.1737 16.4664C15.0537 16.7563 14.9919 17.067 14.9919 17.3807C14.9919 18.0144 15.2436 18.622 15.6916 19.0701C16.1397 19.5182 16.7474 19.7699 17.381 19.7699C18.0147 19.7699 18.6223 19.5182 19.0704 19.0701C20.5923 17.5476 21.5823 15.5746 21.8933 13.4445C22.2043 11.3143 21.8198 9.1407 20.7967 7.24658Z" fill="url(#paint3_linear_1057_3738)"/>
<defs>
<linearGradient id="paint0_linear_1057_3738" x1="6.7816" y1="21.3558" x2="17.3501" y2="20.2594" gradientUnits="userSpaceOnUse">
<stop stop-color="#6356FE"/>
<stop offset="0.303754" stop-color="#764AEF"/>
<stop offset="0.618202" stop-color="#8A3EDF"/>
<stop offset="1" stop-color="#A330CB"/>
</linearGradient>
<linearGradient id="paint1_linear_1057_3738" x1="1.99829" y1="15.092" x2="20.6319" y2="13.8905" gradientUnits="userSpaceOnUse">
<stop stop-color="#6356FE"/>
<stop offset="0.303754" stop-color="#764AEF"/>
<stop offset="0.618202" stop-color="#8A3EDF"/>
<stop offset="1" stop-color="#A330CB"/>
</linearGradient>
<linearGradient id="paint2_linear_1057_3738" x1="4.13275" y1="19.096" x2="9.09376" y2="18.831" gradientUnits="userSpaceOnUse">
<stop stop-color="#6356FE"/>
<stop offset="0.303754" stop-color="#764AEF"/>
<stop offset="0.618202" stop-color="#8A3EDF"/>
<stop offset="1" stop-color="#A330CB"/>
</linearGradient>
<linearGradient id="paint3_linear_1057_3738" x1="14.9919" y1="18.2504" x2="22.2753" y2="18.0327" gradientUnits="userSpaceOnUse">
<stop stop-color="#6356FE"/>
<stop offset="0.303754" stop-color="#764AEF"/>
<stop offset="0.618202" stop-color="#8A3EDF"/>
<stop offset="1" stop-color="#A330CB"/>
</linearGradient>
</defs>
</svg>
