<svg width="36" height="34" viewBox="0 0 36 34" fill="none" xmlns="http://www.w3.org/2000/svg">
<path d="M11.7778 21.5317C12.8736 21.5317 13.7619 20.6435 13.7619 19.5476C13.7619 18.4517 12.8736 17.5635 11.7778 17.5635C10.682 17.5635 9.79366 18.4517 9.79366 19.5476C9.79366 20.6435 10.682 21.5317 11.7778 21.5317Z" fill="url(#paint0_linear_1789_3089)"/>
<path d="M30.4603 12.5317L29 15.7222C29.1429 16.4524 29.2381 17.1984 29.2381 17.9603C29.2381 24.9603 23.5397 30.6587 16.5397 30.6587C9.53969 30.6587 3.84127 24.9603 3.84127 17.9603C3.84127 17.8809 3.85715 17.8016 3.84127 17.7381C7.96826 16.1825 11.2857 12.992 12.9524 8.92855C15.873 12.5 20.3016 14.7857 25.2698 14.7857C25.9841 14.7857 26.6825 14.7222 27.381 14.627L26.4286 12.5317L25.0317 9.46823L21.9683 8.07141L17.5397 6.05553L21.9683 4.03966L23.0952 3.53172C21.0952 2.61109 18.873 2.08728 16.5397 2.08728C7.77778 2.08728 0.666672 9.19839 0.666672 17.9603C0.666672 26.7222 7.77778 33.8333 16.5397 33.8333C25.3016 33.8333 32.4127 26.7222 32.4127 17.9603C32.4127 15.627 31.8889 13.4047 30.9841 11.4047L30.4603 12.5317Z" fill="url(#paint1_linear_1789_3089)"/>
<path d="M21.3016 21.5317C22.3975 21.5317 23.2857 20.6435 23.2857 19.5476C23.2857 18.4517 22.3975 17.5635 21.3016 17.5635C20.2057 17.5635 19.3175 18.4517 19.3175 19.5476C19.3175 20.6435 20.2057 21.5317 21.3016 21.5317Z" fill="url(#paint2_linear_1789_3089)"/>
<path d="M31.8572 7.80159L30.2929 11.2144C30.2216 11.37 30.0006 11.37 29.9293 11.2144L28.3651 7.80159L24.9523 6.23737C24.7967 6.16607 24.7967 5.94504 24.9523 5.87374L28.3651 4.30952L29.9293 0.896683C30.0006 0.741124 30.2216 0.741124 30.2929 0.896683L31.8572 4.30952L35.27 5.87374C35.4256 5.94504 35.4256 6.16607 35.27 6.23737L31.8572 7.80159Z" fill="url(#paint3_linear_1789_3089)"/>
<defs>
<linearGradient id="paint0_linear_1789_3089" x1="9.79366" y1="21.0503" x2="13.9107" y2="20.8303" gradientUnits="userSpaceOnUse">
<stop stop-color="#6356FE"/>
<stop offset="0.303754" stop-color="#764AEF"/>
<stop offset="0.618202" stop-color="#8A3EDF"/>
<stop offset="1" stop-color="#A330CB"/>
</linearGradient>
<linearGradient id="paint1_linear_1789_3089" x1="0.666672" y1="29.9816" x2="33.6034" y2="28.2216" gradientUnits="userSpaceOnUse">
<stop stop-color="#6356FE"/>
<stop offset="0.303754" stop-color="#764AEF"/>
<stop offset="0.618202" stop-color="#8A3EDF"/>
<stop offset="1" stop-color="#A330CB"/>
</linearGradient>
<linearGradient id="paint2_linear_1789_3089" x1="19.3175" y1="21.0503" x2="23.4346" y2="20.8303" gradientUnits="userSpaceOnUse">
<stop stop-color="#6356FE"/>
<stop offset="0.303754" stop-color="#764AEF"/>
<stop offset="0.618202" stop-color="#8A3EDF"/>
<stop offset="1" stop-color="#A330CB"/>
</linearGradient>
<linearGradient id="paint3_linear_1789_3089" x1="24.5556" y1="10.263" x2="36.0834" y2="9.647" gradientUnits="userSpaceOnUse">
<stop stop-color="#6356FE"/>
<stop offset="0.303754" stop-color="#764AEF"/>
<stop offset="0.618202" stop-color="#8A3EDF"/>
<stop offset="1" stop-color="#A330CB"/>
</linearGradient>
</defs>
</svg>
