<svg width="24" height="25" viewBox="0 0 24 25" fill="none" xmlns="http://www.w3.org/2000/svg">
<path fill-rule="evenodd" clip-rule="evenodd" d="M3.43774 9.1964C7.42839 9.2969 10.5821 12.6131 10.482 16.6036C10.5825 12.613 13.8987 9.45924 17.8893 9.55934C13.8985 9.45909 10.7449 6.14264 10.845 2.1521C10.7447 6.1429 7.42829 9.2965 3.43774 9.1964ZM17.5727 22.263C17.6111 19.6056 15.4877 17.4202 12.8304 17.3818C15.4877 17.4202 17.6732 15.2968 17.7116 12.6394C17.6734 15.2969 19.7965 17.4822 22.4539 17.5206C19.7964 17.4825 17.6111 19.6056 17.5727 22.263ZM7.24655 22.9714C7.27996 21.3113 5.96114 19.9385 4.30112 19.9051C5.96114 19.9385 7.33397 18.6197 7.36739 16.9597C7.33413 18.6198 8.6528 19.9925 10.3128 20.0259C8.65271 19.9927 7.27996 21.3113 7.24655 22.9714Z" fill="url(#paint0_linear_23_934)"/>
<defs>
<linearGradient id="paint0_linear_23_934" x1="3.43774" y1="20.4453" x2="23.1764" y2="19.482" gradientUnits="userSpaceOnUse">
<stop stop-color="#6356FE"/>
<stop offset="0.303754" stop-color="#764AEF"/>
<stop offset="0.618202" stop-color="#8A3EDF"/>
<stop offset="1" stop-color="#A330CB"/>
</linearGradient>
</defs>
</svg>
