<svg width="24" height="24" viewBox="0 0 24 24" fill="none" xmlns="http://www.w3.org/2000/svg">
<path fill-rule="evenodd" clip-rule="evenodd" d="M8.0625 3C7.13052 3 6.375 3.75552 6.375 4.6875V10.875H7.5V4.6875C7.5 4.37684 7.75184 4.125 8.0625 4.125H8.32396L8.94799 5.06106C9.26096 5.53052 9.78786 5.8125 10.3521 5.8125H13.6479C14.2121 5.8125 14.739 5.53052 15.052 5.06106L15.6761 4.125H15.9375C16.2482 4.125 16.5 4.37684 16.5 4.6875V5.8125H17.625V4.6875C17.625 3.75552 16.8695 3 15.9375 3H8.0625ZM6.375 19.3125V16.5H7.5V17.0625H16.5V13.6875H17.625V19.3125C17.625 20.2445 16.8695 21 15.9375 21H8.0625C7.13052 21 6.375 20.2445 6.375 19.3125ZM3 12C3 11.6893 3.25184 11.4375 3.5625 11.4375H10.3125C10.6232 11.4375 10.875 11.6893 10.875 12V15.375C10.875 15.6857 10.6232 15.9375 10.3125 15.9375H3.5625C3.25184 15.9375 3 15.6857 3 15.375V12ZM13.125 6.9375C13.125 6.62684 13.3768 6.375 13.6875 6.375H20.4375C20.7482 6.375 21 6.62684 21 6.9375V12.5625C21 12.8732 20.7482 13.125 20.4375 13.125H13.6875C13.3768 13.125 13.125 12.8732 13.125 12.5625V6.9375Z" fill="url(#paint0_linear_971_10522)"/>
<defs>
<linearGradient id="paint0_linear_971_10522" x1="3" y1="18.8161" x2="21.6751" y2="17.8181" gradientUnits="userSpaceOnUse">
<stop stop-color="#6356FE"/>
<stop offset="0.303754" stop-color="#764AEF"/>
<stop offset="0.618202" stop-color="#8A3EDF"/>
<stop offset="1" stop-color="#A330CB"/>
</linearGradient>
</defs>
</svg>
