<svg width="24" height="24" viewBox="0 0 24 24" fill="none" xmlns="http://www.w3.org/2000/svg">
<path fill-rule="evenodd" clip-rule="evenodd" d="M10.6875 3H3.75C3.336 3 3 3.336 3 3.75V7.5C3 7.914 3.336 8.25 3.75 8.25H10.6875C11.1015 8.25 11.4375 7.914 11.4375 7.5V3.75C11.4375 3.336 11.1015 3 10.6875 3ZM11.4375 12.5625V11.4375V10.125C11.4375 9.71104 11.1015 9.37504 10.6875 9.37504H3.75C3.336 9.37504 3 9.71104 3 10.125V13.875C3 14.289 3.336 14.625 3.75 14.625H10.6875C11.1015 14.625 11.4375 14.289 11.4375 13.875V12.5625ZM13.3125 3H20.25C20.664 3 21 3.336 21 3.75V10.6875C21 11.1015 20.664 11.4375 20.25 11.4375H13.3125C12.8985 11.4375 12.5625 11.1015 12.5625 10.6875V9.375V8.25V3.75C12.5625 3.336 12.8985 3 13.3125 3ZM12.5625 14.625V15.75V20.25C12.5625 20.664 12.8985 21 13.3125 21H20.25C20.664 21 21 20.664 21 20.25V13.3125C21 12.8985 20.664 12.5625 20.25 12.5625H13.3125C12.8985 12.5625 12.5625 12.8985 12.5625 13.3125V14.625ZM3 20.25V16.5C3 16.086 3.336 15.75 3.75 15.75H10.6875C11.1015 15.75 11.4375 16.086 11.4375 16.5V20.25C11.4375 20.664 11.1015 21 10.6875 21H3.75C3.336 21 3 20.664 3 20.25Z" fill="url(#paint0_linear_971_10504)"/>
<defs>
<linearGradient id="paint0_linear_971_10504" x1="3" y1="18.8161" x2="21.6751" y2="17.8181" gradientUnits="userSpaceOnUse">
<stop stop-color="#6356FE"/>
<stop offset="0.303754" stop-color="#764AEF"/>
<stop offset="0.618202" stop-color="#8A3EDF"/>
<stop offset="1" stop-color="#A330CB"/>
</linearGradient>
</defs>
</svg>
