<svg width="24" height="24" viewBox="0 0 24 24" fill="none" xmlns="http://www.w3.org/2000/svg">
<path fill-rule="evenodd" clip-rule="evenodd" d="M16.0714 5.21429C16.0714 3.71763 17.289 2.5 18.7857 2.5C20.2824 2.5 21.5 3.71763 21.5 5.21429C21.5 6.71095 20.2824 7.92859 18.7857 7.92859C17.289 7.92859 16.0714 6.71095 16.0714 5.21429ZM2.5 5.2143C2.5 3.71764 3.71763 2.50001 5.21429 2.50001C6.71095 2.50001 7.92859 3.71764 7.92859 5.2143C7.92859 6.71096 6.71095 7.92859 5.21429 7.92859C3.71763 7.92859 2.5 6.71096 2.5 5.2143ZM12 2.5C10.5033 2.5 9.2857 3.71763 9.2857 5.21429C9.2857 6.71095 10.5033 7.92859 12 7.92859C13.4967 7.92859 14.7143 6.71095 14.7143 5.21429C14.7143 3.71763 13.4967 2.5 12 2.5ZM16.0714 18.7857C16.0714 17.289 17.289 16.0714 18.7857 16.0714C20.2824 16.0714 21.5 17.289 21.5 18.7857C21.5 20.2824 20.2824 21.5 18.7857 21.5C17.289 21.5 16.0714 20.2824 16.0714 18.7857ZM18.7857 9.28571C17.289 9.28571 16.0714 10.5033 16.0714 12C16.0714 13.4967 17.289 14.7143 18.7857 14.7143C20.2824 14.7143 21.5 13.4967 21.5 12C21.5 10.5033 20.2824 9.28571 18.7857 9.28571ZM9.2857 12C9.2857 10.5033 10.5033 9.28571 12 9.28571C13.4967 9.28571 14.7143 10.5033 14.7143 12C14.7143 13.4967 13.4967 14.7143 12 14.7143C10.5033 14.7143 9.2857 13.4967 9.2857 12Z" fill="url(#paint0_linear_1057_3728)"/>
<defs>
<linearGradient id="paint0_linear_1057_3728" x1="2.5" y1="19.1947" x2="22.2126" y2="18.1414" gradientUnits="userSpaceOnUse">
<stop stop-color="#6356FE"/>
<stop offset="0.303754" stop-color="#764AEF"/>
<stop offset="0.618202" stop-color="#8A3EDF"/>
<stop offset="1" stop-color="#A330CB"/>
</linearGradient>
</defs>
</svg>
