<svg width="74" height="74" viewBox="0 0 74 74" fill="none" xmlns="http://www.w3.org/2000/svg">
<g filter="url(#filter0_d_1430_2222)">
<rect x="16.5" y="16.5" width="41" height="41" rx="20.5" stroke="url(#paint0_linear_1430_2222)" shape-rendering="crispEdges"/>
<path fill-rule="evenodd" clip-rule="evenodd" d="M28.4377 33.4818C32.4284 33.5823 35.5821 36.8985 35.482 40.889C35.5825 36.8984 38.8987 33.7446 42.8893 33.8447C38.8985 33.7445 35.7449 30.428 35.845 26.4375C35.7447 30.4283 32.4283 33.5819 28.4377 33.4818ZM42.5727 46.5484C42.6111 43.891 40.4877 41.7056 37.8304 41.6672C40.4877 41.7056 42.6732 39.5822 42.7116 36.9248C42.6734 39.5823 44.7965 41.7676 47.4539 41.806C44.7964 41.7679 42.6111 43.891 42.5727 46.5484ZM32.2466 47.2568C32.28 45.5967 30.9611 44.2239 29.3011 44.1905C30.9611 44.2239 32.334 42.9051 32.3674 41.2451C32.3341 42.9052 33.6528 44.2779 35.3128 44.3113C33.6527 44.2781 32.28 45.5967 32.2466 47.2568Z" fill="url(#paint1_linear_1430_2222)"/>
</g>
<defs>
<filter id="filter0_d_1430_2222" x="0" y="0" width="74" height="74" filterUnits="userSpaceOnUse" color-interpolation-filters="sRGB">
<feFlood flood-opacity="0" result="BackgroundImageFix"/>
<feColorMatrix in="SourceAlpha" type="matrix" values="0 0 0 0 0 0 0 0 0 0 0 0 0 0 0 0 0 0 127 0" result="hardAlpha"/>
<feOffset/>
<feGaussianBlur stdDeviation="8"/>
<feComposite in2="hardAlpha" operator="out"/>
<feColorMatrix type="matrix" values="0 0 0 0 0.388235 0 0 0 0 0.337255 0 0 0 0 0.996078 0 0 0 0.08 0"/>
<feBlend mode="normal" in2="BackgroundImageFix" result="effect1_dropShadow_1430_2222"/>
<feBlend mode="normal" in="SourceGraphic" in2="effect1_dropShadow_1430_2222" result="shape"/>
</filter>
<linearGradient id="paint0_linear_1430_2222" x1="17" y1="52.1468" x2="58.5002" y2="49.9292" gradientUnits="userSpaceOnUse">
<stop stop-color="#6356FE"/>
<stop offset="0.303754" stop-color="#764AEF"/>
<stop offset="0.618202" stop-color="#8A3EDF"/>
<stop offset="1" stop-color="#A330CB"/>
</linearGradient>
<linearGradient id="paint1_linear_1430_2222" x1="28.4377" y1="44.7307" x2="48.1764" y2="43.7674" gradientUnits="userSpaceOnUse">
<stop stop-color="#6356FE"/>
<stop offset="0.303754" stop-color="#764AEF"/>
<stop offset="0.618202" stop-color="#8A3EDF"/>
<stop offset="1" stop-color="#A330CB"/>
</linearGradient>
</defs>
</svg>
