<svg width="25" height="24" viewBox="0 0 25 24" fill="none" xmlns="http://www.w3.org/2000/svg">
<path fill-rule="evenodd" clip-rule="evenodd" d="M12.5 2.5C7.2617 2.5 3 6.7617 3 12C3 17.2383 7.2617 21.5 12.5 21.5C17.7383 21.5 22 17.2384 22 12C22 6.76158 17.7383 2.5 12.5 2.5ZM15.8894 13.9978L16.3054 16.232C16.3329 16.3795 16.318 16.5317 16.2626 16.6712C16.2073 16.8106 16.1136 16.9315 15.9924 17.02C15.8712 17.1085 15.7275 17.1609 15.5778 17.1712C15.4282 17.1815 15.2786 17.1493 15.1465 17.0782L13.1248 15.9908C12.9457 15.8915 12.7434 15.8421 12.5387 15.8476C12.334 15.8531 12.1346 15.9133 11.9611 16.022L10.0682 17.1744C9.93612 17.2548 9.78342 17.295 9.62882 17.29C9.47422 17.285 9.32443 17.2351 9.19777 17.1463C9.07112 17.0575 8.97309 16.9337 8.91569 16.7901C8.85828 16.6465 8.84399 16.4892 8.87456 16.3376L9.33302 14.063C9.377 13.8599 9.36481 13.6487 9.29776 13.452C9.23071 13.2554 9.11133 13.0807 8.95246 12.9468L7.3337 11.5431C7.21791 11.4426 7.1336 11.3109 7.09092 11.1636C7.04823 11.0164 7.04899 10.86 7.0931 10.7132C7.13721 10.5664 7.22279 10.4354 7.33955 10.3361C7.45631 10.2368 7.59928 10.1733 7.75127 10.1533L10.0216 9.85439C10.2201 9.83049 10.409 9.75515 10.5695 9.6358C10.7299 9.51646 10.8564 9.35727 10.9365 9.17399L11.8364 7.17503C11.8972 7.0338 11.9985 6.9138 12.1276 6.83026C12.2567 6.74673 12.4076 6.70342 12.5614 6.70585H12.5653C12.7197 6.70405 12.8711 6.74834 13.0002 6.83304C13.1293 6.91774 13.2302 7.03902 13.29 7.18136L14.1665 9.17375C14.2481 9.3673 14.3815 9.5346 14.552 9.65724C14.7225 9.77989 14.9235 9.85313 15.133 9.86891L17.2169 10.0573C17.3664 10.0709 17.509 10.1265 17.6283 10.2177C17.7476 10.3089 17.8386 10.432 17.8908 10.5727C17.9431 10.7135 17.9545 10.8662 17.9236 11.0131C17.8928 11.16 17.821 11.2953 17.7165 11.4031L16.1998 12.9684C16.0676 13.1014 15.9702 13.2648 15.9161 13.4443C15.8619 13.6238 15.8528 13.8139 15.8894 13.9977V13.9978Z" fill="url(#paint0_linear_398_15550)"/>
<defs>
<linearGradient id="paint0_linear_398_15550" x1="3" y1="19.1947" x2="22.7126" y2="18.1414" gradientUnits="userSpaceOnUse">
<stop stop-color="#6356FE"/>
<stop offset="0.303754" stop-color="#764AEF"/>
<stop offset="0.618202" stop-color="#8A3EDF"/>
<stop offset="1" stop-color="#A330CB"/>
</linearGradient>
</defs>
</svg>
