<svg width="40" height="40" viewBox="0 0 40 40" fill="none" xmlns="http://www.w3.org/2000/svg">
<path d="M29.3055 10.053H8.03331C7.27775 10.053 6.66664 10.6641 6.66664 11.4196V31.8585C6.66664 32.6141 7.27775 33.2252 8.03331 33.2252H29.3055C30.0611 33.2252 30.6722 32.6141 30.6722 31.8585V11.4196C30.6722 10.6641 30.0611 10.053 29.3055 10.053ZM28.45 25.1363L23.2444 17.4808C23.05 17.1974 22.6389 17.1974 22.4444 17.4808L17.5222 24.7308L14.6111 20.4474C14.4166 20.1641 14.0055 20.1641 13.8111 20.4474L8.88886 27.6974V12.2752H28.45V25.1363Z" fill="url(#paint0_linear_1823_81)"/>
<path d="M31.9666 6.77515H10.6944C9.93886 6.77515 9.32775 7.38626 9.32775 8.14181V9.21959H29.3055C30.5166 9.21959 31.5055 10.2085 31.5055 11.4196V29.9474H31.9666C32.7222 29.9474 33.3333 29.3363 33.3333 28.5807V8.14181C33.3333 7.38626 32.7222 6.77515 31.9666 6.77515Z" fill="url(#paint1_linear_1823_81)"/>
<path d="M17.4794 18.0123C18.4572 18.0123 19.2572 17.2179 19.2572 16.2346C19.2572 15.2512 18.4572 14.4568 17.4794 14.4568C16.4961 14.4568 15.7016 15.2512 15.7016 16.2346C15.7016 17.2179 16.4961 18.0123 17.4794 18.0123Z" fill="url(#paint2_linear_1823_81)"/>
<defs>
<linearGradient id="paint0_linear_1823_81" x1="6.66664" y1="30.4137" x2="31.5674" y2="29.0353" gradientUnits="userSpaceOnUse">
<stop stop-color="#6356FE"/>
<stop offset="0.303754" stop-color="#764AEF"/>
<stop offset="0.618202" stop-color="#8A3EDF"/>
<stop offset="1" stop-color="#A330CB"/>
</linearGradient>
<linearGradient id="paint1_linear_1823_81" x1="9.32775" y1="27.1359" x2="34.2285" y2="25.7574" gradientUnits="userSpaceOnUse">
<stop stop-color="#6356FE"/>
<stop offset="0.303754" stop-color="#764AEF"/>
<stop offset="0.618202" stop-color="#8A3EDF"/>
<stop offset="1" stop-color="#A330CB"/>
</linearGradient>
<linearGradient id="paint2_linear_1823_81" x1="15.7016" y1="17.5809" x2="19.3906" y2="17.3838" gradientUnits="userSpaceOnUse">
<stop stop-color="#6356FE"/>
<stop offset="0.303754" stop-color="#764AEF"/>
<stop offset="0.618202" stop-color="#8A3EDF"/>
<stop offset="1" stop-color="#A330CB"/>
</linearGradient>
</defs>
</svg>
