<svg width="18" height="18" viewBox="0 0 18 18" fill="none" xmlns="http://www.w3.org/2000/svg">
<path d="M6.09122 4.62012H4.16057C3.8682 4.62012 3.63116 4.85715 3.63116 5.14953V11.5347L6.74814 8.41813C6.14522 7.23659 5.9264 5.90824 6.09122 4.62012Z" fill="url(#paint0_linear_1823_1385)"/>
<path d="M8.65893 10.6792C8.14541 10.2956 7.69421 9.84073 7.32249 9.34167C6.58379 10.0802 1.01269 15.6499 0.276669 16.3858C-0.0922229 16.7542 -0.0922229 17.3542 0.276669 17.7226C0.645066 18.0916 1.24344 18.0929 1.61381 17.7226C1.77415 17.5623 8.45984 10.8783 8.65893 10.6792Z" fill="url(#paint1_linear_1823_1385)"/>
<path d="M9.58096 11.2545L6.46609 14.369H12.853C13.1454 14.369 13.3824 14.1319 13.3824 13.8395V11.9134C12.1212 12.074 10.788 11.8734 9.58096 11.2545Z" fill="url(#paint2_linear_1823_1385)"/>
<path d="M16.4046 1.59867C14.274 -0.532375 10.8229 -0.533081 8.69152 1.59867C6.57247 3.71701 6.55694 7.17617 8.69152 9.31039C10.8183 11.4365 14.2665 11.4481 16.4046 9.31039C18.5318 7.18393 18.5318 3.72442 16.4046 1.59867ZM11.5013 3.56136H10.0726C9.80645 3.53313 9.59963 3.30831 9.59963 3.03513C9.59963 2.7429 9.83645 2.50608 10.1294 2.50608H11.4444C11.737 2.50608 11.9739 2.7429 11.9739 3.03513C11.9739 3.31043 11.7639 3.53489 11.5013 3.56136ZM15.4969 7.87251C15.4969 8.16475 15.2597 8.40192 14.9675 8.40192C14.6954 8.40192 14.4712 8.19651 14.4416 7.93251V6.49711C14.4709 6.23347 14.6954 6.02805 14.9675 6.02805C15.2597 6.02805 15.4969 6.26488 15.4969 6.55746V7.87251ZM15.4969 4.35054C15.4969 4.64312 15.2597 4.87994 14.9675 4.87994C14.6954 4.87994 14.4712 4.67489 14.4416 4.41054V3.56136H13.5949C13.3291 3.53313 13.1223 3.30831 13.1223 3.03513C13.1223 2.7429 13.3595 2.50608 13.6517 2.50608H14.9675C15.2597 2.50608 15.4969 2.7429 15.4969 3.03513V4.35054Z" fill="url(#paint3_linear_1823_1385)"/>
<defs>
<linearGradient id="paint0_linear_1823_1385" x1="3.63116" y1="10.6957" x2="6.8724" y2="10.6177" gradientUnits="userSpaceOnUse">
<stop stop-color="#6356FE"/>
<stop offset="0.303754" stop-color="#764AEF"/>
<stop offset="0.618202" stop-color="#8A3EDF"/>
<stop offset="1" stop-color="#A330CB"/>
</linearGradient>
<linearGradient id="paint1_linear_1823_1385" x1="3.0067e-08" y1="16.9493" x2="8.98369" y2="16.4693" gradientUnits="userSpaceOnUse">
<stop stop-color="#6356FE"/>
<stop offset="0.303754" stop-color="#764AEF"/>
<stop offset="0.618202" stop-color="#8A3EDF"/>
<stop offset="1" stop-color="#A330CB"/>
</linearGradient>
<linearGradient id="paint2_linear_1823_1385" x1="6.46609" y1="13.9911" x2="13.5624" y2="13.149" gradientUnits="userSpaceOnUse">
<stop stop-color="#6356FE"/>
<stop offset="0.303754" stop-color="#764AEF"/>
<stop offset="0.618202" stop-color="#8A3EDF"/>
<stop offset="1" stop-color="#A330CB"/>
</linearGradient>
<linearGradient id="paint3_linear_1823_1385" x1="7.09641" y1="9.58572" x2="18.409" y2="8.98154" gradientUnits="userSpaceOnUse">
<stop stop-color="#6356FE"/>
<stop offset="0.303754" stop-color="#764AEF"/>
<stop offset="0.618202" stop-color="#8A3EDF"/>
<stop offset="1" stop-color="#A330CB"/>
</linearGradient>
</defs>
</svg>
