<svg width="17" height="17" viewBox="0 0 17 17" fill="none" xmlns="http://www.w3.org/2000/svg">
<path d="M8.47375 2.12939C8.22671 2.12939 8.02661 2.32974 8.02661 2.57654V13.5331C8.02661 13.7802 8.22696 13.9803 8.47375 13.9803C8.72055 13.9803 8.92089 13.7799 8.92089 13.5331V2.57679C8.92089 2.32974 8.7208 2.12939 8.47375 2.12939Z" fill="white"/>
<path d="M5.34338 4.47705C5.09634 4.47705 4.89624 4.6774 4.89624 4.92419V11.1852C4.89624 11.4322 5.09659 11.6323 5.34338 11.6323C5.59017 11.6323 5.79052 11.432 5.79052 11.1852V4.92419C5.79077 4.6774 5.59043 4.47705 5.34338 4.47705Z" fill="white"/>
<path d="M2.21289 6.04224C1.96584 6.04224 1.76575 6.24258 1.76575 6.48938V9.61986C1.76575 9.86691 1.96609 10.067 2.21289 10.067C2.45968 10.067 2.66003 9.86666 2.66003 9.61986V6.48963C2.66003 6.24258 2.45968 6.04224 2.21289 6.04224Z" fill="white"/>
<path d="M11.6042 4.47705C11.3572 4.47705 11.1571 4.6774 11.1571 4.92419V11.1852C11.1571 11.4322 11.3575 11.6323 11.6042 11.6323C11.851 11.6323 12.0514 11.432 12.0514 11.1852V4.92419C12.0514 4.6774 11.851 4.47705 11.6042 4.47705Z" fill="white"/>
<path d="M14.7346 6.04224C14.4876 6.04224 14.2875 6.24258 14.2875 6.48938V9.61986C14.2875 9.86691 14.4878 10.067 14.7346 10.067C14.9814 10.067 15.1818 9.86666 15.1818 9.61986V6.48963C15.1818 6.24258 14.9814 6.04224 14.7346 6.04224Z" fill="white"/>
</svg>
