<svg width="40" height="40" viewBox="0 0 40 40" fill="none" xmlns="http://www.w3.org/2000/svg">
<path d="M11.2933 14.2112V10.9723C11.2933 8.67508 13.1627 6.80562 15.4599 6.80562C17.7571 6.80562 19.6266 8.67508 19.6266 10.9723V13.7501C19.7711 13.7501 19.9074 13.7835 20.049 13.7974C21.0711 12.6848 21.7099 11.2141 21.7099 9.58348C21.7099 6.13221 18.9115 3.3335 15.4599 3.3335C12.0087 3.3335 9.20996 6.13221 9.20996 9.58348C9.20996 11.428 10.024 13.0668 11.2933 14.2112Z" fill="url(#paint0_linear_1831_2706)"/>
<path d="M30.0432 18.6113C28.8932 18.6113 27.9599 19.5446 27.9599 20.6946V21.0417C27.9599 21.2335 27.8045 21.3889 27.6128 21.3889C27.421 21.3889 27.2656 21.2335 27.2656 21.0417V19.3056C27.2656 18.1556 26.3323 17.2222 25.1823 17.2222C24.0323 17.2222 23.099 18.1556 23.099 19.3056V21.0417C23.099 21.2335 22.9434 21.3889 22.7516 21.3889C22.5601 21.3889 22.4045 21.2335 22.4045 21.0417V17.9168C22.4045 16.7668 21.4711 15.8334 20.3211 15.8334C19.1711 15.8334 18.2378 16.7668 18.2378 17.9168V21.0417C18.2378 21.2335 18.0822 21.3889 17.8907 21.3889C17.6989 21.3889 17.5433 21.2335 17.5433 21.0417V10.9722C17.5433 9.82224 16.61 8.88892 15.46 8.88892C14.31 8.88892 13.3766 9.82224 13.3766 10.9722V23.4722C12.9934 23.4722 12.6824 23.1612 12.6824 22.7779V20.0001H11.9962C9.71147 20.0001 7.8199 21.8446 7.82117 24.1294C7.82803 31.464 13.1671 36.6667 16.4502 36.6667H25.1823C29.0168 36.6667 32.1266 33.557 32.1266 29.7222V20.6946C32.1266 19.5446 31.1932 18.6113 30.0432 18.6113Z" fill="url(#paint1_linear_1831_2706)"/>
<defs>
<linearGradient id="paint0_linear_1831_2706" x1="9.20996" y1="12.8914" x2="22.1669" y2="12.0958" gradientUnits="userSpaceOnUse">
<stop stop-color="#6356FE"/>
<stop offset="0.303754" stop-color="#764AEF"/>
<stop offset="0.618202" stop-color="#8A3EDF"/>
<stop offset="1" stop-color="#A330CB"/>
</linearGradient>
<linearGradient id="paint1_linear_1831_2706" x1="7.82117" y1="33.2964" x2="33.055" y2="32.1166" gradientUnits="userSpaceOnUse">
<stop stop-color="#6356FE"/>
<stop offset="0.303754" stop-color="#764AEF"/>
<stop offset="0.618202" stop-color="#8A3EDF"/>
<stop offset="1" stop-color="#A330CB"/>
</linearGradient>
</defs>
</svg>
