<svg width="40" height="40" viewBox="0 0 40 40" fill="none" xmlns="http://www.w3.org/2000/svg">
<path fill-rule="evenodd" clip-rule="evenodd" d="M32.9341 16.0861C34.006 16.796 35 18.169 35 20.0097C35 21.8504 34.006 23.2234 32.9342 23.9334C33.9865 27.1427 31.8359 30.7505 28.6134 31.1899C28.2642 33.224 26.6421 34.8034 24.641 34.9951V25.0364L25.3571 24.3199C27.1547 25.2416 29.3691 23.8762 29.3497 21.8471C29.3497 20.3238 28.1104 19.0845 26.5871 19.0845C24.5583 19.0649 23.1931 21.2786 24.1139 23.0763L23.14 24.0508C22.9752 24.2157 22.8826 24.4392 22.8826 24.6723V34.7312C21.7013 34.211 20.8741 33.0297 20.8741 31.6582V20.6986C23.7976 19.6673 23.1339 15.3795 19.995 15.3176C16.8565 15.3792 16.1918 19.6667 19.1157 20.6986V31.6582C19.1157 33.0296 18.2885 34.2109 17.1072 34.7312V24.6722C17.1072 24.4391 17.0147 24.2156 16.8499 24.0508L15.876 23.0762C16.7969 21.2786 15.4314 19.065 13.4028 19.0844C11.8795 19.0844 10.6402 20.3238 10.6402 21.8471C10.6206 23.8762 12.8352 25.2413 14.6328 24.3198L15.3488 25.0363V34.9951C13.3477 34.8034 11.7256 33.224 11.3764 31.1898C8.1544 30.7506 6.00316 27.143 7.05569 23.9333C4.31656 22.1495 4.31298 17.8732 7.05569 16.0861C6.00334 12.8768 8.15399 9.26901 11.3764 8.82958C11.7492 6.65813 13.5726 5.00464 15.759 5.00464C20.2108 5.18827 20.2119 11.5337 15.759 11.7178C15.2735 11.7178 14.8798 12.1115 14.8798 12.597C14.8798 13.0826 15.2735 13.4762 15.759 13.4762C17.5191 13.4762 19.0742 12.5829 19.9949 11.2256C20.9156 12.5829 22.4707 13.4762 24.2307 13.4762C24.7163 13.4762 25.1099 13.0826 25.1099 12.597C25.1099 12.1115 24.7163 11.7178 24.2307 11.7178C19.7795 11.5343 19.7771 5.18945 24.2307 5.00464C26.4172 5.00464 28.2406 6.65813 28.6133 8.82958C31.8354 9.26883 33.9866 12.8764 32.9341 16.0861ZM18.9907 18.0802C18.9907 17.5265 19.4412 17.076 19.995 17.076C20.5487 17.076 20.9993 17.5265 20.9993 18.0802C20.9443 19.4121 19.0458 19.4125 18.9907 18.0802ZM12.3987 21.8471C12.3987 22.4008 12.8492 22.8513 13.4029 22.8513C14.7352 22.7962 14.7348 20.8978 13.4029 20.8428C12.8491 20.8428 12.3987 21.2933 12.3987 21.8471ZM26.5871 20.8429C27.1408 20.8429 27.5913 21.2934 27.5913 21.8471C27.5913 22.4008 27.1408 22.8513 26.5871 22.8514C25.2551 22.7964 25.2548 20.898 26.5871 20.8429Z" fill="url(#paint0_linear_1831_2240)"/>
<defs>
<linearGradient id="paint0_linear_1831_2240" x1="5" y1="31.3564" x2="36.1251" y2="29.6927" gradientUnits="userSpaceOnUse">
<stop stop-color="#6356FE"/>
<stop offset="0.303754" stop-color="#764AEF"/>
<stop offset="0.618202" stop-color="#8A3EDF"/>
<stop offset="1" stop-color="#A330CB"/>
</linearGradient>
</defs>
</svg>
