<svg width="40" height="40" viewBox="0 0 40 40" fill="none" xmlns="http://www.w3.org/2000/svg">
<path fill-rule="evenodd" clip-rule="evenodd" d="M7.75052 13.7247C7.41553 12.0624 8.48472 10.4426 10.1441 10.0981L16.875 8.70024C19.0488 8.24881 21.87 7.71624 24.0932 7.30625C25.6149 7.02562 27.0722 7.92406 27.47 9.37218C27.687 10.1615 27.8965 10.9729 28.0576 11.6943H13.5687C10.8575 11.6943 8.61844 13.7156 8.27626 16.3335L7.75052 13.7247ZM8.23097 25.3307C7.93146 25.1805 7.70166 24.8989 7.63034 24.545L5.53958 14.1702C4.95972 11.2929 6.81071 8.48677 9.68551 7.88977L16.4164 6.49196C18.6163 6.03512 21.4583 5.49876 23.6841 5.08827C26.3121 4.60364 28.9247 6.15389 29.6448 8.77459C29.906 9.72497 30.166 10.7395 30.348 11.6163C30.3623 11.6852 30.37 11.7539 30.3715 11.8219C32.759 12.3535 34.5439 14.4844 34.5439 17.032V29.6622C34.5439 32.6102 32.1541 35 29.2062 35H13.5687C10.6208 35 8.23097 32.6102 8.23097 29.6622V25.3307ZM14.0256 20.4747C14.6967 18.5173 17.2605 18.0647 18.5611 19.6742L21.1822 22.9174C21.3254 23.0945 21.5918 23.1048 21.748 22.9391L22.9148 21.7014C24.0553 20.4918 26.0178 20.63 26.9777 21.9874L29.6526 25.7699C30.8849 27.5127 29.6386 29.9204 27.5041 29.9204H14.4708C12.6654 29.9204 11.3962 28.1436 11.9818 26.4357L14.0256 20.4747ZM27.4019 19.7712C28.2322 19.7712 28.9055 19.098 28.9055 18.2676C28.9055 17.4371 28.2322 16.764 27.4019 16.764C26.5714 16.764 25.8983 17.4371 25.8983 18.2676C25.8983 19.098 26.5714 19.7712 27.4019 19.7712ZM16.8071 21.0919C16.6212 20.8618 16.255 20.9265 16.1591 21.2062L14.1153 27.1672C14.0317 27.4112 14.213 27.665 14.4709 27.665H27.5042C27.8091 27.665 27.9871 27.321 27.8111 27.0721L25.1363 23.2895C24.9992 23.0956 24.7189 23.0759 24.5559 23.2488L23.3891 24.4863C22.2956 25.6461 20.4301 25.5749 19.4281 24.335L16.8071 21.0919Z" fill="url(#paint0_linear_1831_2352)"/>
<defs>
<linearGradient id="paint0_linear_1831_2352" x1="5.43332" y1="31.3601" x2="35.6408" y2="29.7938" gradientUnits="userSpaceOnUse">
<stop stop-color="#6356FE"/>
<stop offset="0.303754" stop-color="#764AEF"/>
<stop offset="0.618202" stop-color="#8A3EDF"/>
<stop offset="1" stop-color="#A330CB"/>
</linearGradient>
</defs>
</svg>
