<svg width="17" height="16" viewBox="0 0 17 16" fill="none" xmlns="http://www.w3.org/2000/svg">
<path d="M9.06742 0.268747L11.1986 5.29179L16.6041 5.77989C16.8427 5.80064 17.0191 6.01213 16.9984 6.25216C16.9885 6.36917 16.9334 6.47116 16.852 6.54284L16.8523 6.54297L12.7629 10.1375L13.9724 15.4651C14.026 15.7004 13.8797 15.9347 13.646 15.9886C13.5263 16.0163 13.4069 15.991 13.3116 15.9284L8.66675 13.1331L4.00716 15.9374C3.80153 16.0611 3.53515 15.9936 3.41213 15.7866C3.35231 15.6862 3.33753 15.5709 3.36153 15.4651H3.36113L4.57072 10.1375L0.48133 6.54311C0.301071 6.38432 0.282896 6.10852 0.440504 5.92707C0.520664 5.83478 0.63107 5.78481 0.743647 5.77866L6.13486 5.29179L8.26717 0.266016C8.36103 0.0438772 8.61602 -0.0594781 8.8367 0.0350025C8.94521 0.0814236 9.02523 0.167166 9.06742 0.268747ZM10.5013 5.87396L8.66675 1.5497L6.83202 5.87396L6.83148 5.87383C6.77071 6.01732 6.63521 6.12313 6.47001 6.13761L1.81693 6.55785L5.31888 9.63599C5.4476 9.73702 5.51392 9.90741 5.47513 10.0784L4.43427 14.6628L8.43631 12.2543C8.57004 12.17 8.74474 12.1625 8.8896 12.2498L12.8994 14.6628L11.8586 10.0784L11.8591 10.0781C11.8249 9.92666 11.8721 9.76159 11.9963 9.65223L15.5167 6.55785L10.8876 6.13979C10.7238 6.1346 10.5698 6.03575 10.5013 5.87396Z" fill="url(#paint0_linear_2028_1178)"/>
<path d="M10.5013 5.87396L8.66675 1.5497L6.83202 5.87396L6.83148 5.87383C6.77071 6.01732 6.63521 6.12313 6.47001 6.13761L1.81693 6.55785L5.31888 9.63599C5.4476 9.73702 5.51392 9.90741 5.47513 10.0784L4.43427 14.6628L8.43631 12.2543C8.57004 12.17 8.74474 12.1625 8.8896 12.2498L12.8994 14.6628L11.8586 10.0784L11.8591 10.0781C11.8249 9.92666 11.8721 9.76159 11.9963 9.65223L15.5167 6.55785L10.8876 6.13979C10.7238 6.1346 10.5698 6.03575 10.5013 5.87396Z" fill="url(#paint1_linear_2028_1178)"/>
<defs>
<linearGradient id="paint0_linear_2028_1178" x1="0.333252" y1="14.0585" x2="17.621" y2="13.0962" gradientUnits="userSpaceOnUse">
<stop stop-color="#6356FE"/>
<stop offset="0.303754" stop-color="#764AEF"/>
<stop offset="0.618202" stop-color="#8A3EDF"/>
<stop offset="1" stop-color="#A330CB"/>
</linearGradient>
<linearGradient id="paint1_linear_2028_1178" x1="0.333252" y1="14.0585" x2="17.621" y2="13.0962" gradientUnits="userSpaceOnUse">
<stop stop-color="#6356FE"/>
<stop offset="0.303754" stop-color="#764AEF"/>
<stop offset="0.618202" stop-color="#8A3EDF"/>
<stop offset="1" stop-color="#A330CB"/>
</linearGradient>
</defs>
</svg>
