<svg width="25" height="24" viewBox="0 0 25 24" fill="none" xmlns="http://www.w3.org/2000/svg">
<path d="M3.43812 14.0173V14.0266H6.73134C6.80648 13.2114 7.48458 12.5718 8.31871 12.5718C9.15285 12.5718 9.83094 13.2114 9.90609 14.0266H14.8167C14.8919 13.2114 15.57 12.5718 16.4041 12.5718C17.2383 12.5718 17.9164 13.2114 17.9915 14.0266H21.5619V14.0173C22.0596 13.5717 22.3752 12.9267 22.3752 12.2053V8.72591C22.3752 7.3834 21.2869 6.29462 19.944 6.29462H17.2148C16.878 4.4349 14.895 3 12.5 3C10.105 3 8.122 4.4349 7.78517 6.29551H5.05599C3.71307 6.29551 2.62476 7.38428 2.62476 8.7268V12.2066C2.62476 12.9272 2.94037 13.573 3.43812 14.0173ZM12.5 5.21115C13.5609 5.21115 14.5184 5.67752 14.8928 6.29639H10.1077C10.4812 5.67619 11.4387 5.21115 12.5 5.21115ZM21.5619 14.9102V18.5691C21.5619 19.9116 20.4736 21.0004 19.1306 21.0004H5.86935C4.52643 21.0004 3.43812 19.9116 3.43812 18.5691V14.9107H6.73134C6.80648 15.7258 7.48458 16.3664 8.31871 16.3664C9.15285 16.3664 9.83094 15.7258 9.90609 14.9107H14.8167C14.8919 15.7258 15.57 16.3664 16.4041 16.3664C17.2383 16.3664 17.9164 15.7258 17.9915 14.9107L21.5619 14.9102Z" fill="url(#paint0_linear_1789_2861)"/>
<defs>
<linearGradient id="paint0_linear_1789_2861" x1="2.62476" y1="18.8164" x2="23.1041" y2="17.6157" gradientUnits="userSpaceOnUse">
<stop stop-color="#6356FE"/>
<stop offset="0.303754" stop-color="#764AEF"/>
<stop offset="0.618202" stop-color="#8A3EDF"/>
<stop offset="1" stop-color="#A330CB"/>
</linearGradient>
</defs>
</svg>
