<svg width="25" height="24" viewBox="0 0 25 24" fill="none" xmlns="http://www.w3.org/2000/svg">
<path d="M18.7876 11.2284C19.458 11.2456 19.9878 11.8041 19.9703 12.4766C19.9524 13.147 19.3945 13.6767 18.7241 13.6585C18.0535 13.6413 17.524 13.0827 17.541 12.4118C17.5582 11.7409 18.1165 11.2114 18.7876 11.2284ZM7.69468 8.22826C8.13082 8.22826 8.4392 8.53664 8.4392 8.92016V10.0808H9.59963C9.98188 10.0808 10.2903 10.3892 10.2903 10.8254C10.2903 11.2602 9.98188 11.5686 9.59963 11.5686H8.4392V12.7308C8.4392 13.1126 8.13082 13.4209 7.69468 13.4209C7.25854 13.4209 6.95041 13.1126 6.95041 12.7308V11.5686H5.78948C5.40773 11.5686 5.09935 11.2602 5.09935 10.8254C5.09935 10.3892 5.40773 10.0808 5.78948 10.0808H6.95041V8.92016C6.95041 8.53664 7.25854 8.22826 7.69468 8.22826ZM16.7661 7.99121C17.437 8.00943 17.9665 8.567 17.9495 9.23891C17.9313 9.90957 17.3722 10.4396 16.7018 10.4208C16.0314 10.4039 15.5012 9.84506 15.5186 9.17466C15.5368 8.5035 16.0942 7.97376 16.7661 7.99121ZM7.46928 4.68652C4.99107 4.68652 3.65356 6.24387 3.44384 8.15312L2.54956 16.3155C2.34135 18.2238 3.98573 19.3346 5.23343 19.3346C7.68431 19.3346 9.67122 15.3423 10.9966 15.3423H14.0599C15.3856 15.3423 17.3709 19.3346 19.8231 19.3346C21.0708 19.3346 22.7612 18.2185 22.5057 16.3155L21.6112 8.15312C21.3554 6.2507 20.0642 4.68652 17.587 4.68652C15.7673 4.68652 15.3747 5.67492 13.3589 5.67492H11.6976C9.68185 5.67492 9.2877 4.68652 7.46928 4.68652Z" fill="url(#paint0_linear_1789_3070)"/>
<defs>
<linearGradient id="paint0_linear_1789_3070" x1="2.53159" y1="17.5574" x2="23.2308" y2="16.0472" gradientUnits="userSpaceOnUse">
<stop stop-color="#6356FE"/>
<stop offset="0.303754" stop-color="#764AEF"/>
<stop offset="0.618202" stop-color="#8A3EDF"/>
<stop offset="1" stop-color="#A330CB"/>
</linearGradient>
</defs>
</svg>
