<svg width="25" height="24" viewBox="0 0 25 24" fill="none" xmlns="http://www.w3.org/2000/svg">
<path d="M20.9219 17.8438C20.4438 17.8438 19.9964 17.9744 19.6126 18.2012L17.9459 16.5344C17.6701 16.865 17.365 17.1702 17.0344 17.4459L18.7011 19.1127C18.4744 19.4965 18.3437 19.9439 18.3437 20.4219C18.3437 21.8458 19.498 23.0001 20.9219 23.0001C22.3457 23.0001 23.5 21.8458 23.5 20.4219C23.5 18.9981 22.3457 17.8438 20.9219 17.8438Z" fill="url(#paint0_linear_1789_2655)"/>
<path d="M4.07812 6.15625C4.5562 6.15625 5.00359 6.02562 5.38738 5.79888L7.05414 7.46564C7.32987 7.13504 7.63504 6.82987 7.96564 6.55414L6.29888 4.88738C6.52562 4.50359 6.65625 4.0562 6.65625 3.57812C6.65625 2.15427 5.50198 1 4.07812 1C2.65427 1 1.5 2.15427 1.5 3.57812C1.5 5.00198 2.65427 6.15625 4.07812 6.15625Z" fill="url(#paint1_linear_1789_2655)"/>
<path d="M13.391 13.9336H11.609C10.5602 13.9336 9.70703 14.7868 9.70703 15.8355V17.0827C10.5361 17.5401 11.4881 17.8008 12.5 17.8008C13.5119 17.8008 14.4639 17.5401 15.293 17.0827V15.8355C15.293 14.7868 14.4398 13.9336 13.391 13.9336Z" fill="url(#paint2_linear_1789_2655)"/>
<path d="M18.3008 12C18.3008 8.80145 15.6986 6.19922 12.5 6.19922C9.30145 6.19922 6.69922 8.80145 6.69922 12C6.69922 13.6082 7.35724 15.0655 8.41797 16.1173V15.8355C8.41797 14.4964 9.24752 13.3481 10.4194 12.8754C10.1069 12.4489 9.92188 11.9235 9.92188 11.3555C9.92188 9.93389 11.0784 8.77734 12.5 8.77734C13.9216 8.77734 15.0781 9.93389 15.0781 11.3555C15.0781 11.9235 14.8931 12.4489 14.5806 12.8754C15.7525 13.3481 16.582 14.4964 16.582 15.8355V16.1173C17.6428 15.0655 18.3008 13.6082 18.3008 12Z" fill="url(#paint3_linear_1789_2655)"/>
<path d="M12.5 12.6445C13.2119 12.6445 13.7891 12.0674 13.7891 11.3555C13.7891 10.6435 13.2119 10.0664 12.5 10.0664C11.7881 10.0664 11.2109 10.6435 11.2109 11.3555C11.2109 12.0674 11.7881 12.6445 12.5 12.6445Z" fill="url(#paint4_linear_1789_2655)"/>
<path d="M17.9459 7.46564L19.6126 5.79888C19.9964 6.02562 20.4438 6.15625 20.9219 6.15625C22.3457 6.15625 23.5 5.00198 23.5 3.57812C23.5 2.15427 22.3457 1 20.9219 1C19.498 1 18.3437 2.15427 18.3437 3.57812C18.3437 4.0562 18.4744 4.50359 18.7011 4.88738L17.0344 6.55414C17.365 6.82987 17.6701 7.13504 17.9459 7.46564Z" fill="url(#paint5_linear_1789_2655)"/>
<path d="M7.05414 16.5344L5.38738 18.2012C5.00359 17.9744 4.5562 17.8438 4.07812 17.8438C2.65427 17.8438 1.5 18.9981 1.5 20.4219C1.5 21.8458 2.65427 23.0001 4.07812 23.0001C5.50198 23.0001 6.65625 21.8458 6.65625 20.4219C6.65625 19.9439 6.52562 19.4965 6.29888 19.1127L7.96564 17.4459C7.63504 17.1702 7.32987 16.865 7.05414 16.5344Z" fill="url(#paint6_linear_1789_2655)"/>
<defs>
<linearGradient id="paint0_linear_1789_2655" x1="17.0344" y1="22.2156" x2="23.7425" y2="21.8571" gradientUnits="userSpaceOnUse">
<stop stop-color="#6356FE"/>
<stop offset="0.303754" stop-color="#764AEF"/>
<stop offset="0.618202" stop-color="#8A3EDF"/>
<stop offset="1" stop-color="#A330CB"/>
</linearGradient>
<linearGradient id="paint1_linear_1789_2655" x1="1.5" y1="6.68116" x2="8.20814" y2="6.32271" gradientUnits="userSpaceOnUse">
<stop stop-color="#6356FE"/>
<stop offset="0.303754" stop-color="#764AEF"/>
<stop offset="0.618202" stop-color="#8A3EDF"/>
<stop offset="1" stop-color="#A330CB"/>
</linearGradient>
<linearGradient id="paint2_linear_1789_2655" x1="9.70703" y1="17.3316" x2="15.4846" y2="16.8856" gradientUnits="userSpaceOnUse">
<stop stop-color="#6356FE"/>
<stop offset="0.303754" stop-color="#764AEF"/>
<stop offset="0.618202" stop-color="#8A3EDF"/>
<stop offset="1" stop-color="#A330CB"/>
</linearGradient>
<linearGradient id="paint3_linear_1789_2655" x1="6.69922" y1="14.9139" x2="18.7233" y2="14.1623" gradientUnits="userSpaceOnUse">
<stop stop-color="#6356FE"/>
<stop offset="0.303754" stop-color="#764AEF"/>
<stop offset="0.618202" stop-color="#8A3EDF"/>
<stop offset="1" stop-color="#A330CB"/>
</linearGradient>
<linearGradient id="paint4_linear_1789_2655" x1="11.2109" y1="12.3317" x2="13.8858" y2="12.1888" gradientUnits="userSpaceOnUse">
<stop stop-color="#6356FE"/>
<stop offset="0.303754" stop-color="#764AEF"/>
<stop offset="0.618202" stop-color="#8A3EDF"/>
<stop offset="1" stop-color="#A330CB"/>
</linearGradient>
<linearGradient id="paint5_linear_1789_2655" x1="17.0344" y1="6.68116" x2="23.7425" y2="6.32271" gradientUnits="userSpaceOnUse">
<stop stop-color="#6356FE"/>
<stop offset="0.303754" stop-color="#764AEF"/>
<stop offset="0.618202" stop-color="#8A3EDF"/>
<stop offset="1" stop-color="#A330CB"/>
</linearGradient>
<linearGradient id="paint6_linear_1789_2655" x1="1.5" y1="22.2156" x2="8.20814" y2="21.8571" gradientUnits="userSpaceOnUse">
<stop stop-color="#6356FE"/>
<stop offset="0.303754" stop-color="#764AEF"/>
<stop offset="0.618202" stop-color="#8A3EDF"/>
<stop offset="1" stop-color="#A330CB"/>
</linearGradient>
</defs>
</svg>
